<svg xmlns="http://www.w3.org/2000/svg" viewBox="0 0 176.292 85.309">
  <defs>
    <style>
      .cls-1 {
        fill: #fff;
      }
    </style>
  </defs>
  <g id="Group_182" data-name="Group 182" transform="translate(176.292 85.309) rotate(180)">
    <g id="Group_125" data-name="Group 125" transform="translate(0 82.522)">
      <path id="Path_3196" data-name="Path 3196" class="cls-1" d="M194.3,134.594a1.361,1.361,0,0,1,1.394-1.394h0a1.361,1.361,0,0,1,1.394,1.394h0a1.361,1.361,0,0,1-1.394,1.394h0a1.424,1.424,0,0,1-1.394-1.394Z" transform="translate(-20.795 -133.2)"/>
      <path id="Path_3197" data-name="Path 3197" class="cls-1" d="M184,134.594a1.361,1.361,0,0,1,1.394-1.394h0a1.361,1.361,0,0,1,1.394,1.394h0a1.361,1.361,0,0,1-1.394,1.394h0A1.424,1.424,0,0,1,184,134.594Z" transform="translate(-20.748 -133.2)"/>
      <path id="Path_3198" data-name="Path 3198" class="cls-1" d="M173.8,134.594a1.361,1.361,0,0,1,1.394-1.394h0a1.361,1.361,0,0,1,1.394,1.394h0a1.361,1.361,0,0,1-1.394,1.394h0a1.424,1.424,0,0,1-1.394-1.394Z" transform="translate(-20.702 -133.2)"/>
      <path id="Path_3199" data-name="Path 3199" class="cls-1" d="M163.5,134.594a1.361,1.361,0,0,1,1.394-1.394h0a1.361,1.361,0,0,1,1.394,1.394h0a1.361,1.361,0,0,1-1.394,1.394h0a1.424,1.424,0,0,1-1.394-1.394Z" transform="translate(-20.655 -133.2)"/>
      <path id="Path_3200" data-name="Path 3200" class="cls-1" d="M153.3,134.594a1.361,1.361,0,0,1,1.394-1.394h0a1.361,1.361,0,0,1,1.394,1.394h0a1.361,1.361,0,0,1-1.394,1.394h0a1.424,1.424,0,0,1-1.394-1.394Z" transform="translate(-20.608 -133.2)"/>
      <path id="Path_3201" data-name="Path 3201" class="cls-1" d="M143,134.594a1.361,1.361,0,0,1,1.394-1.394h0a1.361,1.361,0,0,1,1.394,1.394h0a1.361,1.361,0,0,1-1.394,1.394h0A1.424,1.424,0,0,1,143,134.594Z" transform="translate(-20.561 -133.2)"/>
      <path id="Path_3202" data-name="Path 3202" class="cls-1" d="M132.8,134.594a1.361,1.361,0,0,1,1.394-1.394h0a1.361,1.361,0,0,1,1.394,1.394h0a1.361,1.361,0,0,1-1.394,1.394h0a1.424,1.424,0,0,1-1.394-1.394Z" transform="translate(-20.515 -133.2)"/>
      <path id="Path_3203" data-name="Path 3203" class="cls-1" d="M122.5,134.594a1.361,1.361,0,0,1,1.394-1.394h0a1.361,1.361,0,0,1,1.394,1.394h0a1.361,1.361,0,0,1-1.394,1.394h0a1.5,1.5,0,0,1-1.394-1.394Z" transform="translate(-20.468 -133.2)"/>
      <path id="Path_3204" data-name="Path 3204" class="cls-1" d="M112.3,134.594a1.361,1.361,0,0,1,1.394-1.394h0a1.361,1.361,0,0,1,1.394,1.394h0a1.361,1.361,0,0,1-1.394,1.394h0a1.424,1.424,0,0,1-1.394-1.394Z" transform="translate(-20.421 -133.2)"/>
      <path id="Path_3205" data-name="Path 3205" class="cls-1" d="M102,134.594a1.361,1.361,0,0,1,1.394-1.394h0a1.361,1.361,0,0,1,1.394,1.394h0a1.361,1.361,0,0,1-1.394,1.394h0A1.5,1.5,0,0,1,102,134.594Z" transform="translate(-20.374 -133.2)"/>
      <path id="Path_3206" data-name="Path 3206" class="cls-1" d="M91.8,134.594a1.361,1.361,0,0,1,1.394-1.394h0a1.361,1.361,0,0,1,1.394,1.394h0a1.361,1.361,0,0,1-1.394,1.394h0a1.424,1.424,0,0,1-1.394-1.394Z" transform="translate(-20.328 -133.2)"/>
      <path id="Path_3207" data-name="Path 3207" class="cls-1" d="M81.5,134.594a1.361,1.361,0,0,1,1.394-1.394h0a1.361,1.361,0,0,1,1.394,1.394h0a1.361,1.361,0,0,1-1.394,1.394h0a1.5,1.5,0,0,1-1.394-1.394Z" transform="translate(-20.281 -133.2)"/>
      <path id="Path_3208" data-name="Path 3208" class="cls-1" d="M71.3,134.594a1.361,1.361,0,0,1,1.394-1.394h0a1.361,1.361,0,0,1,1.394,1.394h0a1.361,1.361,0,0,1-1.394,1.394h0a1.424,1.424,0,0,1-1.394-1.394Z" transform="translate(-20.234 -133.2)"/>
      <path id="Path_3209" data-name="Path 3209" class="cls-1" d="M61,134.594a1.361,1.361,0,0,1,1.394-1.394h0a1.361,1.361,0,0,1,1.394,1.394h0a1.361,1.361,0,0,1-1.394,1.394h0A1.5,1.5,0,0,1,61,134.594Z" transform="translate(-20.187 -133.2)"/>
      <path id="Path_3210" data-name="Path 3210" class="cls-1" d="M50.8,134.594a1.361,1.361,0,0,1,1.394-1.394h0a1.361,1.361,0,0,1,1.394,1.394h0a1.361,1.361,0,0,1-1.394,1.394h0a1.424,1.424,0,0,1-1.394-1.394Z" transform="translate(-20.141 -133.2)"/>
      <path id="Path_3211" data-name="Path 3211" class="cls-1" d="M40.5,134.594a1.361,1.361,0,0,1,1.394-1.394h0a1.361,1.361,0,0,1,1.394,1.394h0a1.361,1.361,0,0,1-1.394,1.394h0a1.5,1.5,0,0,1-1.394-1.394Z" transform="translate(-20.094 -133.2)"/>
      <path id="Path_3212" data-name="Path 3212" class="cls-1" d="M30.3,134.594a1.361,1.361,0,0,1,1.394-1.394h0a1.361,1.361,0,0,1,1.394,1.394h0a1.361,1.361,0,0,1-1.394,1.394h0a1.424,1.424,0,0,1-1.394-1.394Z" transform="translate(-20.047 -133.2)"/>
      <path id="Path_3213" data-name="Path 3213" class="cls-1" d="M20,134.594a1.361,1.361,0,0,1,1.394-1.394h0a1.361,1.361,0,0,1,1.394,1.394h0a1.361,1.361,0,0,1-1.394,1.394h0A1.5,1.5,0,0,1,20,134.594Z" transform="translate(-20 -133.2)"/>
    </g>
    <g id="Group_126" data-name="Group 126" transform="translate(5.176 76.848)">
      <path id="Path_3214" data-name="Path 3214" class="cls-1" d="M189.1,128.894a1.361,1.361,0,0,1,1.394-1.394h0a1.361,1.361,0,0,1,1.394,1.394h0a1.361,1.361,0,0,1-1.394,1.394h0a1.424,1.424,0,0,1-1.394-1.394Z" transform="translate(-25.948 -127.5)"/>
      <path id="Path_3215" data-name="Path 3215" class="cls-1" d="M178.9,128.894a1.361,1.361,0,0,1,1.394-1.394h0a1.361,1.361,0,0,1,1.394,1.394h0a1.361,1.361,0,0,1-1.394,1.394h0a1.361,1.361,0,0,1-1.394-1.394Z" transform="translate(-25.901 -127.5)"/>
      <path id="Path_3216" data-name="Path 3216" class="cls-1" d="M168.6,128.894a1.361,1.361,0,0,1,1.394-1.394h0a1.361,1.361,0,0,1,1.394,1.394h0a1.361,1.361,0,0,1-1.394,1.394h0a1.424,1.424,0,0,1-1.394-1.394Z" transform="translate(-25.854 -127.5)"/>
      <path id="Path_3217" data-name="Path 3217" class="cls-1" d="M158.4,128.894a1.361,1.361,0,0,1,1.394-1.394h0a1.361,1.361,0,0,1,1.394,1.394h0a1.361,1.361,0,0,1-1.394,1.394h0a1.361,1.361,0,0,1-1.394-1.394Z" transform="translate(-25.808 -127.5)"/>
      <path id="Path_3218" data-name="Path 3218" class="cls-1" d="M148.1,128.894a1.361,1.361,0,0,1,1.394-1.394h0a1.361,1.361,0,0,1,1.394,1.394h0a1.361,1.361,0,0,1-1.394,1.394h0a1.424,1.424,0,0,1-1.394-1.394Z" transform="translate(-25.761 -127.5)"/>
      <path id="Path_3219" data-name="Path 3219" class="cls-1" d="M137.9,128.894a1.361,1.361,0,0,1,1.394-1.394h0a1.361,1.361,0,0,1,1.394,1.394h0a1.361,1.361,0,0,1-1.394,1.394h0a1.361,1.361,0,0,1-1.394-1.394Z" transform="translate(-25.714 -127.5)"/>
      <path id="Path_3220" data-name="Path 3220" class="cls-1" d="M127.6,128.894a1.361,1.361,0,0,1,1.394-1.394h0a1.361,1.361,0,0,1,1.394,1.394h0a1.361,1.361,0,0,1-1.394,1.394h0a1.424,1.424,0,0,1-1.394-1.394Z" transform="translate(-25.667 -127.5)"/>
      <path id="Path_3221" data-name="Path 3221" class="cls-1" d="M117.4,128.894a1.361,1.361,0,0,1,1.394-1.394h0a1.361,1.361,0,0,1,1.394,1.394h0a1.361,1.361,0,0,1-1.394,1.394h0a1.361,1.361,0,0,1-1.394-1.394Z" transform="translate(-25.621 -127.5)"/>
      <path id="Path_3222" data-name="Path 3222" class="cls-1" d="M107.1,128.894a1.361,1.361,0,0,1,1.394-1.394h0a1.361,1.361,0,0,1,1.394,1.394h0a1.361,1.361,0,0,1-1.394,1.394h0a1.424,1.424,0,0,1-1.394-1.394Z" transform="translate(-25.574 -127.5)"/>
      <path id="Path_3223" data-name="Path 3223" class="cls-1" d="M96.9,128.894a1.361,1.361,0,0,1,1.394-1.394h0a1.361,1.361,0,0,1,1.394,1.394h0a1.361,1.361,0,0,1-1.394,1.394h0a1.361,1.361,0,0,1-1.394-1.394Z" transform="translate(-25.527 -127.5)"/>
      <path id="Path_3224" data-name="Path 3224" class="cls-1" d="M86.7,128.894a1.361,1.361,0,0,1,1.394-1.394h0a1.361,1.361,0,0,1,1.394,1.394h0a1.361,1.361,0,0,1-1.394,1.394h0a1.361,1.361,0,0,1-1.394-1.394Z" transform="translate(-25.481 -127.5)"/>
      <path id="Path_3225" data-name="Path 3225" class="cls-1" d="M76.4,128.894a1.361,1.361,0,0,1,1.394-1.394h0a1.361,1.361,0,0,1,1.394,1.394h0a1.361,1.361,0,0,1-1.394,1.394h0a1.361,1.361,0,0,1-1.394-1.394Z" transform="translate(-25.434 -127.5)"/>
      <path id="Path_3226" data-name="Path 3226" class="cls-1" d="M66.2,128.894a1.361,1.361,0,0,1,1.394-1.394h0a1.361,1.361,0,0,1,1.394,1.394h0a1.361,1.361,0,0,1-1.394,1.394h0a1.361,1.361,0,0,1-1.394-1.394Z" transform="translate(-25.387 -127.5)"/>
      <path id="Path_3227" data-name="Path 3227" class="cls-1" d="M55.9,128.894a1.361,1.361,0,0,1,1.394-1.394h0a1.361,1.361,0,0,1,1.394,1.394h0a1.361,1.361,0,0,1-1.394,1.394h0a1.361,1.361,0,0,1-1.394-1.394Z" transform="translate(-25.34 -127.5)"/>
      <path id="Path_3228" data-name="Path 3228" class="cls-1" d="M45.7,128.894a1.361,1.361,0,0,1,1.394-1.394h0a1.361,1.361,0,0,1,1.394,1.394h0a1.361,1.361,0,0,1-1.394,1.394h0a1.361,1.361,0,0,1-1.394-1.394Z" transform="translate(-25.294 -127.5)"/>
      <path id="Path_3229" data-name="Path 3229" class="cls-1" d="M35.4,128.894a1.361,1.361,0,0,1,1.394-1.394h0a1.361,1.361,0,0,1,1.394,1.394h0a1.361,1.361,0,0,1-1.394,1.394h0a1.361,1.361,0,0,1-1.394-1.394Z" transform="translate(-25.247 -127.5)"/>
      <path id="Path_3230" data-name="Path 3230" class="cls-1" d="M25.2,128.894a1.361,1.361,0,0,1,1.394-1.394h0a1.361,1.361,0,0,1,1.394,1.394h0a1.361,1.361,0,0,1-1.394,1.394h0a1.361,1.361,0,0,1-1.394-1.394Z" transform="translate(-25.2 -127.5)"/>
    </g>
    <g id="Group_127" data-name="Group 127" transform="translate(0 70.676)">
      <path id="Path_3231" data-name="Path 3231" class="cls-1" d="M194.3,122.694a1.361,1.361,0,0,1,1.394-1.394h0a1.361,1.361,0,0,1,1.394,1.394h0a1.361,1.361,0,0,1-1.394,1.394h0a1.361,1.361,0,0,1-1.394-1.394Z" transform="translate(-20.795 -121.3)"/>
      <path id="Path_3232" data-name="Path 3232" class="cls-1" d="M184,122.694a1.361,1.361,0,0,1,1.394-1.394h0a1.361,1.361,0,0,1,1.394,1.394h0a1.361,1.361,0,0,1-1.394,1.394h0A1.361,1.361,0,0,1,184,122.694Z" transform="translate(-20.748 -121.3)"/>
      <path id="Path_3233" data-name="Path 3233" class="cls-1" d="M173.8,122.694a1.361,1.361,0,0,1,1.394-1.394h0a1.361,1.361,0,0,1,1.394,1.394h0a1.361,1.361,0,0,1-1.394,1.394h0a1.361,1.361,0,0,1-1.394-1.394Z" transform="translate(-20.702 -121.3)"/>
      <path id="Path_3234" data-name="Path 3234" class="cls-1" d="M163.5,122.694a1.361,1.361,0,0,1,1.394-1.394h0a1.361,1.361,0,0,1,1.394,1.394h0a1.361,1.361,0,0,1-1.394,1.394h0a1.361,1.361,0,0,1-1.394-1.394Z" transform="translate(-20.655 -121.3)"/>
      <path id="Path_3235" data-name="Path 3235" class="cls-1" d="M153.3,122.694a1.361,1.361,0,0,1,1.394-1.394h0a1.361,1.361,0,0,1,1.394,1.394h0a1.361,1.361,0,0,1-1.394,1.394h0a1.361,1.361,0,0,1-1.394-1.394Z" transform="translate(-20.608 -121.3)"/>
      <path id="Path_3236" data-name="Path 3236" class="cls-1" d="M143,122.694a1.361,1.361,0,0,1,1.394-1.394h0a1.361,1.361,0,0,1,1.394,1.394h0a1.361,1.361,0,0,1-1.394,1.394h0A1.361,1.361,0,0,1,143,122.694Z" transform="translate(-20.561 -121.3)"/>
      <path id="Path_3237" data-name="Path 3237" class="cls-1" d="M132.8,122.694a1.361,1.361,0,0,1,1.394-1.394h0a1.361,1.361,0,0,1,1.394,1.394h0a1.361,1.361,0,0,1-1.394,1.394h0a1.361,1.361,0,0,1-1.394-1.394Z" transform="translate(-20.515 -121.3)"/>
      <path id="Path_3238" data-name="Path 3238" class="cls-1" d="M122.5,122.694a1.361,1.361,0,0,1,1.394-1.394h0a1.361,1.361,0,0,1,1.394,1.394h0a1.361,1.361,0,0,1-1.394,1.394h0a1.424,1.424,0,0,1-1.394-1.394Z" transform="translate(-20.468 -121.3)"/>
      <path id="Path_3239" data-name="Path 3239" class="cls-1" d="M112.3,122.694a1.361,1.361,0,0,1,1.394-1.394h0a1.361,1.361,0,0,1,1.394,1.394h0a1.361,1.361,0,0,1-1.394,1.394h0a1.361,1.361,0,0,1-1.394-1.394Z" transform="translate(-20.421 -121.3)"/>
      <path id="Path_3240" data-name="Path 3240" class="cls-1" d="M102,122.694a1.361,1.361,0,0,1,1.394-1.394h0a1.361,1.361,0,0,1,1.394,1.394h0a1.361,1.361,0,0,1-1.394,1.394h0A1.424,1.424,0,0,1,102,122.694Z" transform="translate(-20.374 -121.3)"/>
      <path id="Path_3241" data-name="Path 3241" class="cls-1" d="M91.8,122.694a1.361,1.361,0,0,1,1.394-1.394h0a1.361,1.361,0,0,1,1.394,1.394h0a1.361,1.361,0,0,1-1.394,1.394h0a1.361,1.361,0,0,1-1.394-1.394Z" transform="translate(-20.328 -121.3)"/>
      <path id="Path_3242" data-name="Path 3242" class="cls-1" d="M81.5,122.694a1.361,1.361,0,0,1,1.394-1.394h0a1.361,1.361,0,0,1,1.394,1.394h0a1.361,1.361,0,0,1-1.394,1.394h0a1.424,1.424,0,0,1-1.394-1.394Z" transform="translate(-20.281 -121.3)"/>
      <path id="Path_3243" data-name="Path 3243" class="cls-1" d="M71.3,122.694a1.361,1.361,0,0,1,1.394-1.394h0a1.361,1.361,0,0,1,1.394,1.394h0a1.361,1.361,0,0,1-1.394,1.394h0a1.361,1.361,0,0,1-1.394-1.394Z" transform="translate(-20.234 -121.3)"/>
      <path id="Path_3244" data-name="Path 3244" class="cls-1" d="M61,122.694a1.361,1.361,0,0,1,1.394-1.394h0a1.361,1.361,0,0,1,1.394,1.394h0a1.361,1.361,0,0,1-1.394,1.394h0A1.424,1.424,0,0,1,61,122.694Z" transform="translate(-20.187 -121.3)"/>
      <path id="Path_3245" data-name="Path 3245" class="cls-1" d="M50.8,122.694a1.361,1.361,0,0,1,1.394-1.394h0a1.361,1.361,0,0,1,1.394,1.394h0a1.361,1.361,0,0,1-1.394,1.394h0a1.361,1.361,0,0,1-1.394-1.394Z" transform="translate(-20.141 -121.3)"/>
      <path id="Path_3246" data-name="Path 3246" class="cls-1" d="M40.5,122.694a1.361,1.361,0,0,1,1.394-1.394h0a1.361,1.361,0,0,1,1.394,1.394h0a1.361,1.361,0,0,1-1.394,1.394h0a1.424,1.424,0,0,1-1.394-1.394Z" transform="translate(-20.094 -121.3)"/>
      <path id="Path_3247" data-name="Path 3247" class="cls-1" d="M30.3,122.694a1.361,1.361,0,0,1,1.394-1.394h0a1.361,1.361,0,0,1,1.394,1.394h0a1.361,1.361,0,0,1-1.394,1.394h0a1.361,1.361,0,0,1-1.394-1.394Z" transform="translate(-20.047 -121.3)"/>
      <path id="Path_3248" data-name="Path 3248" class="cls-1" d="M20,122.694a1.361,1.361,0,0,1,1.394-1.394h0a1.361,1.361,0,0,1,1.394,1.394h0a1.361,1.361,0,0,1-1.394,1.394h0A1.424,1.424,0,0,1,20,122.694Z" transform="translate(-20 -121.3)"/>
    </g>
    <g id="Group_128" data-name="Group 128" transform="translate(5.176 65.102)">
      <path id="Path_3249" data-name="Path 3249" class="cls-1" d="M189.1,117.094a1.361,1.361,0,0,1,1.394-1.394h0a1.361,1.361,0,0,1,1.394,1.394h0a1.361,1.361,0,0,1-1.394,1.394h0a1.5,1.5,0,0,1-1.394-1.394Z" transform="translate(-25.948 -115.7)"/>
      <path id="Path_3250" data-name="Path 3250" class="cls-1" d="M178.9,117.094a1.361,1.361,0,0,1,1.394-1.394h0a1.361,1.361,0,0,1,1.394,1.394h0a1.361,1.361,0,0,1-1.394,1.394h0a1.424,1.424,0,0,1-1.394-1.394Z" transform="translate(-25.901 -115.7)"/>
      <path id="Path_3251" data-name="Path 3251" class="cls-1" d="M168.6,117.094a1.361,1.361,0,0,1,1.394-1.394h0a1.361,1.361,0,0,1,1.394,1.394h0a1.361,1.361,0,0,1-1.394,1.394h0a1.5,1.5,0,0,1-1.394-1.394Z" transform="translate(-25.854 -115.7)"/>
      <path id="Path_3252" data-name="Path 3252" class="cls-1" d="M158.4,117.094a1.361,1.361,0,0,1,1.394-1.394h0a1.361,1.361,0,0,1,1.394,1.394h0a1.361,1.361,0,0,1-1.394,1.394h0a1.424,1.424,0,0,1-1.394-1.394Z" transform="translate(-25.808 -115.7)"/>
      <path id="Path_3253" data-name="Path 3253" class="cls-1" d="M148.1,117.094a1.361,1.361,0,0,1,1.394-1.394h0a1.361,1.361,0,0,1,1.394,1.394h0a1.361,1.361,0,0,1-1.394,1.394h0a1.5,1.5,0,0,1-1.394-1.394Z" transform="translate(-25.761 -115.7)"/>
      <path id="Path_3254" data-name="Path 3254" class="cls-1" d="M137.9,117.094a1.361,1.361,0,0,1,1.394-1.394h0a1.361,1.361,0,0,1,1.394,1.394h0a1.361,1.361,0,0,1-1.394,1.394h0a1.424,1.424,0,0,1-1.394-1.394Z" transform="translate(-25.714 -115.7)"/>
      <path id="Path_3255" data-name="Path 3255" class="cls-1" d="M127.6,117.094a1.361,1.361,0,0,1,1.394-1.394h0a1.361,1.361,0,0,1,1.394,1.394h0a1.361,1.361,0,0,1-1.394,1.394h0a1.5,1.5,0,0,1-1.394-1.394Z" transform="translate(-25.667 -115.7)"/>
      <path id="Path_3256" data-name="Path 3256" class="cls-1" d="M117.4,117.094a1.361,1.361,0,0,1,1.394-1.394h0a1.361,1.361,0,0,1,1.394,1.394h0a1.361,1.361,0,0,1-1.394,1.394h0a1.424,1.424,0,0,1-1.394-1.394Z" transform="translate(-25.621 -115.7)"/>
      <path id="Path_3257" data-name="Path 3257" class="cls-1" d="M107.1,117.094a1.361,1.361,0,0,1,1.394-1.394h0a1.361,1.361,0,0,1,1.394,1.394h0a1.361,1.361,0,0,1-1.394,1.394h0a1.5,1.5,0,0,1-1.394-1.394Z" transform="translate(-25.574 -115.7)"/>
      <path id="Path_3258" data-name="Path 3258" class="cls-1" d="M96.9,117.094a1.361,1.361,0,0,1,1.394-1.394h0a1.361,1.361,0,0,1,1.394,1.394h0a1.361,1.361,0,0,1-1.394,1.394h0a1.424,1.424,0,0,1-1.394-1.394Z" transform="translate(-25.527 -115.7)"/>
      <path id="Path_3259" data-name="Path 3259" class="cls-1" d="M86.7,117.094a1.361,1.361,0,0,1,1.394-1.394h0a1.361,1.361,0,0,1,1.394,1.394h0a1.361,1.361,0,0,1-1.394,1.394h0a1.424,1.424,0,0,1-1.394-1.394Z" transform="translate(-25.481 -115.7)"/>
      <path id="Path_3260" data-name="Path 3260" class="cls-1" d="M76.4,117.094a1.361,1.361,0,0,1,1.394-1.394h0a1.361,1.361,0,0,1,1.394,1.394h0a1.361,1.361,0,0,1-1.394,1.394h0a1.424,1.424,0,0,1-1.394-1.394Z" transform="translate(-25.434 -115.7)"/>
      <path id="Path_3261" data-name="Path 3261" class="cls-1" d="M66.2,117.094a1.361,1.361,0,0,1,1.394-1.394h0a1.361,1.361,0,0,1,1.394,1.394h0a1.361,1.361,0,0,1-1.394,1.394h0a1.424,1.424,0,0,1-1.394-1.394Z" transform="translate(-25.387 -115.7)"/>
      <path id="Path_3262" data-name="Path 3262" class="cls-1" d="M55.9,117.094a1.361,1.361,0,0,1,1.394-1.394h0a1.361,1.361,0,0,1,1.394,1.394h0a1.361,1.361,0,0,1-1.394,1.394h0a1.424,1.424,0,0,1-1.394-1.394Z" transform="translate(-25.34 -115.7)"/>
      <path id="Path_3263" data-name="Path 3263" class="cls-1" d="M45.7,117.094a1.361,1.361,0,0,1,1.394-1.394h0a1.361,1.361,0,0,1,1.394,1.394h0a1.361,1.361,0,0,1-1.394,1.394h0a1.424,1.424,0,0,1-1.394-1.394Z" transform="translate(-25.294 -115.7)"/>
      <path id="Path_3264" data-name="Path 3264" class="cls-1" d="M35.4,117.094a1.361,1.361,0,0,1,1.394-1.394h0a1.361,1.361,0,0,1,1.394,1.394h0a1.361,1.361,0,0,1-1.394,1.394h0a1.424,1.424,0,0,1-1.394-1.394Z" transform="translate(-25.247 -115.7)"/>
      <path id="Path_3265" data-name="Path 3265" class="cls-1" d="M25.2,117.094a1.361,1.361,0,0,1,1.394-1.394h0a1.361,1.361,0,0,1,1.394,1.394h0a1.361,1.361,0,0,1-1.394,1.394h0a1.424,1.424,0,0,1-1.394-1.394Z" transform="translate(-25.2 -115.7)"/>
    </g>
    <g id="Group_129" data-name="Group 129" transform="translate(0 58.93)">
      <path id="Path_3266" data-name="Path 3266" class="cls-1" d="M194.3,110.894a1.361,1.361,0,0,1,1.394-1.394h0a1.361,1.361,0,0,1,1.394,1.394h0a1.361,1.361,0,0,1-1.394,1.394h0a1.361,1.361,0,0,1-1.394-1.394Z" transform="translate(-20.795 -109.5)"/>
      <path id="Path_3267" data-name="Path 3267" class="cls-1" d="M184,110.894a1.361,1.361,0,0,1,1.394-1.394h0a1.361,1.361,0,0,1,1.394,1.394h0a1.361,1.361,0,0,1-1.394,1.394h0A1.361,1.361,0,0,1,184,110.894Z" transform="translate(-20.748 -109.5)"/>
      <path id="Path_3268" data-name="Path 3268" class="cls-1" d="M173.8,110.894a1.361,1.361,0,0,1,1.394-1.394h0a1.361,1.361,0,0,1,1.394,1.394h0a1.361,1.361,0,0,1-1.394,1.394h0a1.361,1.361,0,0,1-1.394-1.394Z" transform="translate(-20.702 -109.5)"/>
      <path id="Path_3269" data-name="Path 3269" class="cls-1" d="M163.5,110.894a1.361,1.361,0,0,1,1.394-1.394h0a1.361,1.361,0,0,1,1.394,1.394h0a1.361,1.361,0,0,1-1.394,1.394h0a1.361,1.361,0,0,1-1.394-1.394Z" transform="translate(-20.655 -109.5)"/>
      <path id="Path_3270" data-name="Path 3270" class="cls-1" d="M153.3,110.894a1.361,1.361,0,0,1,1.394-1.394h0a1.361,1.361,0,0,1,1.394,1.394h0a1.361,1.361,0,0,1-1.394,1.394h0a1.361,1.361,0,0,1-1.394-1.394Z" transform="translate(-20.608 -109.5)"/>
      <path id="Path_3271" data-name="Path 3271" class="cls-1" d="M143,110.894a1.361,1.361,0,0,1,1.394-1.394h0a1.361,1.361,0,0,1,1.394,1.394h0a1.361,1.361,0,0,1-1.394,1.394h0A1.361,1.361,0,0,1,143,110.894Z" transform="translate(-20.561 -109.5)"/>
      <path id="Path_3272" data-name="Path 3272" class="cls-1" d="M132.8,110.894a1.361,1.361,0,0,1,1.394-1.394h0a1.361,1.361,0,0,1,1.394,1.394h0a1.361,1.361,0,0,1-1.394,1.394h0a1.361,1.361,0,0,1-1.394-1.394Z" transform="translate(-20.515 -109.5)"/>
      <path id="Path_3273" data-name="Path 3273" class="cls-1" d="M122.5,110.894a1.361,1.361,0,0,1,1.394-1.394h0a1.361,1.361,0,0,1,1.394,1.394h0a1.361,1.361,0,0,1-1.394,1.394h0a1.424,1.424,0,0,1-1.394-1.394Z" transform="translate(-20.468 -109.5)"/>
      <path id="Path_3274" data-name="Path 3274" class="cls-1" d="M112.3,110.894a1.361,1.361,0,0,1,1.394-1.394h0a1.361,1.361,0,0,1,1.394,1.394h0a1.361,1.361,0,0,1-1.394,1.394h0a1.361,1.361,0,0,1-1.394-1.394Z" transform="translate(-20.421 -109.5)"/>
      <path id="Path_3275" data-name="Path 3275" class="cls-1" d="M102,110.894a1.361,1.361,0,0,1,1.394-1.394h0a1.361,1.361,0,0,1,1.394,1.394h0a1.361,1.361,0,0,1-1.394,1.394h0A1.424,1.424,0,0,1,102,110.894Z" transform="translate(-20.374 -109.5)"/>
      <path id="Path_3276" data-name="Path 3276" class="cls-1" d="M91.8,110.894a1.361,1.361,0,0,1,1.394-1.394h0a1.361,1.361,0,0,1,1.394,1.394h0a1.361,1.361,0,0,1-1.394,1.394h0a1.361,1.361,0,0,1-1.394-1.394Z" transform="translate(-20.328 -109.5)"/>
      <path id="Path_3277" data-name="Path 3277" class="cls-1" d="M81.5,110.894a1.361,1.361,0,0,1,1.394-1.394h0a1.361,1.361,0,0,1,1.394,1.394h0a1.361,1.361,0,0,1-1.394,1.394h0a1.424,1.424,0,0,1-1.394-1.394Z" transform="translate(-20.281 -109.5)"/>
      <path id="Path_3278" data-name="Path 3278" class="cls-1" d="M71.3,110.894a1.361,1.361,0,0,1,1.394-1.394h0a1.361,1.361,0,0,1,1.394,1.394h0a1.361,1.361,0,0,1-1.394,1.394h0a1.361,1.361,0,0,1-1.394-1.394Z" transform="translate(-20.234 -109.5)"/>
      <path id="Path_3279" data-name="Path 3279" class="cls-1" d="M61,110.894a1.361,1.361,0,0,1,1.394-1.394h0a1.361,1.361,0,0,1,1.394,1.394h0a1.361,1.361,0,0,1-1.394,1.394h0A1.424,1.424,0,0,1,61,110.894Z" transform="translate(-20.187 -109.5)"/>
      <path id="Path_3280" data-name="Path 3280" class="cls-1" d="M50.8,110.894a1.361,1.361,0,0,1,1.394-1.394h0a1.361,1.361,0,0,1,1.394,1.394h0a1.361,1.361,0,0,1-1.394,1.394h0a1.361,1.361,0,0,1-1.394-1.394Z" transform="translate(-20.141 -109.5)"/>
      <path id="Path_3281" data-name="Path 3281" class="cls-1" d="M40.5,110.894a1.361,1.361,0,0,1,1.394-1.394h0a1.361,1.361,0,0,1,1.394,1.394h0a1.361,1.361,0,0,1-1.394,1.394h0a1.424,1.424,0,0,1-1.394-1.394Z" transform="translate(-20.094 -109.5)"/>
      <path id="Path_3282" data-name="Path 3282" class="cls-1" d="M30.3,110.894a1.361,1.361,0,0,1,1.394-1.394h0a1.361,1.361,0,0,1,1.394,1.394h0a1.361,1.361,0,0,1-1.394,1.394h0a1.361,1.361,0,0,1-1.394-1.394Z" transform="translate(-20.047 -109.5)"/>
      <path id="Path_3283" data-name="Path 3283" class="cls-1" d="M20,110.894a1.361,1.361,0,0,1,1.394-1.394h0a1.361,1.361,0,0,1,1.394,1.394h0a1.361,1.361,0,0,1-1.394,1.394h0A1.424,1.424,0,0,1,20,110.894Z" transform="translate(-20 -109.5)"/>
    </g>
    <g id="Group_130" data-name="Group 130" transform="translate(5.176 53.256)">
      <path id="Path_3284" data-name="Path 3284" class="cls-1" d="M189.1,105.194a1.361,1.361,0,0,1,1.394-1.394h0a1.361,1.361,0,0,1,1.394,1.394h0a1.361,1.361,0,0,1-1.394,1.394h0a1.359,1.359,0,0,1-1.394-1.394Z" transform="translate(-25.948 -103.8)"/>
      <path id="Path_3285" data-name="Path 3285" class="cls-1" d="M178.9,105.194a1.361,1.361,0,0,1,1.394-1.394h0a1.361,1.361,0,0,1,1.394,1.394h0a1.361,1.361,0,0,1-1.394,1.394h0a1.306,1.306,0,0,1-1.394-1.394Z" transform="translate(-25.901 -103.8)"/>
      <path id="Path_3286" data-name="Path 3286" class="cls-1" d="M168.6,105.194a1.361,1.361,0,0,1,1.394-1.394h0a1.361,1.361,0,0,1,1.394,1.394h0a1.361,1.361,0,0,1-1.394,1.394h0a1.359,1.359,0,0,1-1.394-1.394Z" transform="translate(-25.854 -103.8)"/>
      <path id="Path_3287" data-name="Path 3287" class="cls-1" d="M158.4,105.194a1.361,1.361,0,0,1,1.394-1.394h0a1.361,1.361,0,0,1,1.394,1.394h0a1.361,1.361,0,0,1-1.394,1.394h0a1.306,1.306,0,0,1-1.394-1.394Z" transform="translate(-25.808 -103.8)"/>
      <path id="Path_3288" data-name="Path 3288" class="cls-1" d="M148.1,105.194a1.361,1.361,0,0,1,1.394-1.394h0a1.361,1.361,0,0,1,1.394,1.394h0a1.361,1.361,0,0,1-1.394,1.394h0a1.359,1.359,0,0,1-1.394-1.394Z" transform="translate(-25.761 -103.8)"/>
      <path id="Path_3289" data-name="Path 3289" class="cls-1" d="M137.9,105.194a1.361,1.361,0,0,1,1.394-1.394h0a1.361,1.361,0,0,1,1.394,1.394h0a1.361,1.361,0,0,1-1.394,1.394h0a1.306,1.306,0,0,1-1.394-1.394Z" transform="translate(-25.714 -103.8)"/>
      <path id="Path_3290" data-name="Path 3290" class="cls-1" d="M127.6,105.194a1.361,1.361,0,0,1,1.394-1.394h0a1.361,1.361,0,0,1,1.394,1.394h0a1.361,1.361,0,0,1-1.394,1.394h0a1.359,1.359,0,0,1-1.394-1.394Z" transform="translate(-25.667 -103.8)"/>
      <path id="Path_3291" data-name="Path 3291" class="cls-1" d="M117.4,105.194a1.361,1.361,0,0,1,1.394-1.394h0a1.361,1.361,0,0,1,1.394,1.394h0a1.361,1.361,0,0,1-1.394,1.394h0a1.306,1.306,0,0,1-1.394-1.394Z" transform="translate(-25.621 -103.8)"/>
      <path id="Path_3292" data-name="Path 3292" class="cls-1" d="M107.1,105.194a1.361,1.361,0,0,1,1.394-1.394h0a1.361,1.361,0,0,1,1.394,1.394h0a1.361,1.361,0,0,1-1.394,1.394h0a1.359,1.359,0,0,1-1.394-1.394Z" transform="translate(-25.574 -103.8)"/>
      <path id="Path_3293" data-name="Path 3293" class="cls-1" d="M96.9,105.194a1.361,1.361,0,0,1,1.394-1.394h0a1.361,1.361,0,0,1,1.394,1.394h0a1.361,1.361,0,0,1-1.394,1.394h0a1.306,1.306,0,0,1-1.394-1.394Z" transform="translate(-25.527 -103.8)"/>
      <path id="Path_3294" data-name="Path 3294" class="cls-1" d="M86.7,105.194a1.361,1.361,0,0,1,1.394-1.394h0a1.361,1.361,0,0,1,1.394,1.394h0a1.361,1.361,0,0,1-1.394,1.394h0a1.306,1.306,0,0,1-1.394-1.394Z" transform="translate(-25.481 -103.8)"/>
      <path id="Path_3295" data-name="Path 3295" class="cls-1" d="M76.4,105.194a1.361,1.361,0,0,1,1.394-1.394h0a1.361,1.361,0,0,1,1.394,1.394h0a1.361,1.361,0,0,1-1.394,1.394h0a1.306,1.306,0,0,1-1.394-1.394Z" transform="translate(-25.434 -103.8)"/>
      <path id="Path_3296" data-name="Path 3296" class="cls-1" d="M66.2,105.194a1.361,1.361,0,0,1,1.394-1.394h0a1.361,1.361,0,0,1,1.394,1.394h0a1.361,1.361,0,0,1-1.394,1.394h0a1.306,1.306,0,0,1-1.394-1.394Z" transform="translate(-25.387 -103.8)"/>
      <path id="Path_3297" data-name="Path 3297" class="cls-1" d="M55.9,105.194a1.361,1.361,0,0,1,1.394-1.394h0a1.361,1.361,0,0,1,1.394,1.394h0a1.361,1.361,0,0,1-1.394,1.394h0a1.306,1.306,0,0,1-1.394-1.394Z" transform="translate(-25.34 -103.8)"/>
      <path id="Path_3298" data-name="Path 3298" class="cls-1" d="M45.7,105.194a1.361,1.361,0,0,1,1.394-1.394h0a1.361,1.361,0,0,1,1.394,1.394h0a1.361,1.361,0,0,1-1.394,1.394h0a1.306,1.306,0,0,1-1.394-1.394Z" transform="translate(-25.294 -103.8)"/>
      <path id="Path_3299" data-name="Path 3299" class="cls-1" d="M35.4,105.194a1.361,1.361,0,0,1,1.394-1.394h0a1.361,1.361,0,0,1,1.394,1.394h0a1.361,1.361,0,0,1-1.394,1.394h0a1.306,1.306,0,0,1-1.394-1.394Z" transform="translate(-25.247 -103.8)"/>
      <path id="Path_3300" data-name="Path 3300" class="cls-1" d="M25.2,105.194a1.361,1.361,0,0,1,1.394-1.394h0a1.361,1.361,0,0,1,1.394,1.394h0a1.361,1.361,0,0,1-1.394,1.394h0a1.306,1.306,0,0,1-1.394-1.394Z" transform="translate(-25.2 -103.8)"/>
    </g>
    <g id="Group_131" data-name="Group 131" transform="translate(0 47.184)">
      <path id="Path_3301" data-name="Path 3301" class="cls-1" d="M194.3,99.094a1.361,1.361,0,0,1,1.394-1.394h0a1.361,1.361,0,0,1,1.394,1.394h0a1.361,1.361,0,0,1-1.394,1.394h0a1.361,1.361,0,0,1-1.394-1.394Z" transform="translate(-20.795 -97.7)"/>
      <path id="Path_3302" data-name="Path 3302" class="cls-1" d="M184,99.094a1.361,1.361,0,0,1,1.394-1.394h0a1.361,1.361,0,0,1,1.394,1.394h0a1.361,1.361,0,0,1-1.394,1.394h0A1.361,1.361,0,0,1,184,99.094Z" transform="translate(-20.748 -97.7)"/>
      <path id="Path_3303" data-name="Path 3303" class="cls-1" d="M173.8,99.094a1.361,1.361,0,0,1,1.394-1.394h0a1.361,1.361,0,0,1,1.394,1.394h0a1.361,1.361,0,0,1-1.394,1.394h0a1.361,1.361,0,0,1-1.394-1.394Z" transform="translate(-20.702 -97.7)"/>
      <path id="Path_3304" data-name="Path 3304" class="cls-1" d="M163.5,99.094a1.361,1.361,0,0,1,1.394-1.394h0a1.361,1.361,0,0,1,1.394,1.394h0a1.361,1.361,0,0,1-1.394,1.394h0a1.361,1.361,0,0,1-1.394-1.394Z" transform="translate(-20.655 -97.7)"/>
      <path id="Path_3305" data-name="Path 3305" class="cls-1" d="M153.3,99.094a1.361,1.361,0,0,1,1.394-1.394h0a1.361,1.361,0,0,1,1.394,1.394h0a1.361,1.361,0,0,1-1.394,1.394h0a1.361,1.361,0,0,1-1.394-1.394Z" transform="translate(-20.608 -97.7)"/>
      <path id="Path_3306" data-name="Path 3306" class="cls-1" d="M143,99.094a1.361,1.361,0,0,1,1.394-1.394h0a1.361,1.361,0,0,1,1.394,1.394h0a1.361,1.361,0,0,1-1.394,1.394h0A1.361,1.361,0,0,1,143,99.094Z" transform="translate(-20.561 -97.7)"/>
      <path id="Path_3307" data-name="Path 3307" class="cls-1" d="M132.8,99.094a1.361,1.361,0,0,1,1.394-1.394h0a1.361,1.361,0,0,1,1.394,1.394h0a1.361,1.361,0,0,1-1.394,1.394h0a1.361,1.361,0,0,1-1.394-1.394Z" transform="translate(-20.515 -97.7)"/>
      <path id="Path_3308" data-name="Path 3308" class="cls-1" d="M122.5,99.094a1.361,1.361,0,0,1,1.394-1.394h0a1.361,1.361,0,0,1,1.394,1.394h0a1.361,1.361,0,0,1-1.394,1.394h0a1.424,1.424,0,0,1-1.394-1.394Z" transform="translate(-20.468 -97.7)"/>
      <path id="Path_3309" data-name="Path 3309" class="cls-1" d="M112.3,99.094a1.361,1.361,0,0,1,1.394-1.394h0a1.361,1.361,0,0,1,1.394,1.394h0a1.361,1.361,0,0,1-1.394,1.394h0a1.361,1.361,0,0,1-1.394-1.394Z" transform="translate(-20.421 -97.7)"/>
      <path id="Path_3310" data-name="Path 3310" class="cls-1" d="M102,99.094a1.361,1.361,0,0,1,1.394-1.394h0a1.361,1.361,0,0,1,1.394,1.394h0a1.361,1.361,0,0,1-1.394,1.394h0A1.424,1.424,0,0,1,102,99.094Z" transform="translate(-20.374 -97.7)"/>
      <path id="Path_3311" data-name="Path 3311" class="cls-1" d="M91.8,99.094A1.361,1.361,0,0,1,93.194,97.7h0a1.361,1.361,0,0,1,1.394,1.394h0a1.361,1.361,0,0,1-1.394,1.394h0A1.361,1.361,0,0,1,91.8,99.094Z" transform="translate(-20.328 -97.7)"/>
      <path id="Path_3312" data-name="Path 3312" class="cls-1" d="M81.5,99.094A1.361,1.361,0,0,1,82.894,97.7h0a1.361,1.361,0,0,1,1.394,1.394h0a1.361,1.361,0,0,1-1.394,1.394h0A1.424,1.424,0,0,1,81.5,99.094Z" transform="translate(-20.281 -97.7)"/>
      <path id="Path_3313" data-name="Path 3313" class="cls-1" d="M71.3,99.094A1.361,1.361,0,0,1,72.694,97.7h0a1.361,1.361,0,0,1,1.394,1.394h0a1.361,1.361,0,0,1-1.394,1.394h0A1.361,1.361,0,0,1,71.3,99.094Z" transform="translate(-20.234 -97.7)"/>
      <path id="Path_3314" data-name="Path 3314" class="cls-1" d="M61,99.094A1.361,1.361,0,0,1,62.394,97.7h0a1.361,1.361,0,0,1,1.394,1.394h0a1.361,1.361,0,0,1-1.394,1.394h0A1.424,1.424,0,0,1,61,99.094Z" transform="translate(-20.187 -97.7)"/>
      <path id="Path_3315" data-name="Path 3315" class="cls-1" d="M50.8,99.094A1.361,1.361,0,0,1,52.194,97.7h0a1.361,1.361,0,0,1,1.394,1.394h0a1.361,1.361,0,0,1-1.394,1.394h0A1.361,1.361,0,0,1,50.8,99.094Z" transform="translate(-20.141 -97.7)"/>
      <path id="Path_3316" data-name="Path 3316" class="cls-1" d="M40.5,99.094A1.361,1.361,0,0,1,41.894,97.7h0a1.361,1.361,0,0,1,1.394,1.394h0a1.361,1.361,0,0,1-1.394,1.394h0A1.424,1.424,0,0,1,40.5,99.094Z" transform="translate(-20.094 -97.7)"/>
      <path id="Path_3317" data-name="Path 3317" class="cls-1" d="M30.3,99.094A1.361,1.361,0,0,1,31.694,97.7h0a1.361,1.361,0,0,1,1.394,1.394h0a1.361,1.361,0,0,1-1.394,1.394h0A1.361,1.361,0,0,1,30.3,99.094Z" transform="translate(-20.047 -97.7)"/>
      <path id="Path_3318" data-name="Path 3318" class="cls-1" d="M20,99.094A1.361,1.361,0,0,1,21.394,97.7h0a1.361,1.361,0,0,1,1.394,1.394h0a1.361,1.361,0,0,1-1.394,1.394h0A1.424,1.424,0,0,1,20,99.094Z" transform="translate(-20 -97.7)"/>
    </g>
    <g id="Group_132" data-name="Group 132" transform="translate(5.176 41.51)">
      <path id="Path_3319" data-name="Path 3319" class="cls-1" d="M189.1,93.394A1.361,1.361,0,0,1,190.494,92h0a1.361,1.361,0,0,1,1.394,1.394h0a1.361,1.361,0,0,1-1.394,1.394h0a1.424,1.424,0,0,1-1.394-1.394Z" transform="translate(-25.948 -92)"/>
      <path id="Path_3320" data-name="Path 3320" class="cls-1" d="M178.9,93.394A1.361,1.361,0,0,1,180.294,92h0a1.361,1.361,0,0,1,1.394,1.394h0a1.361,1.361,0,0,1-1.394,1.394h0a1.361,1.361,0,0,1-1.394-1.394Z" transform="translate(-25.901 -92)"/>
      <path id="Path_3321" data-name="Path 3321" class="cls-1" d="M168.6,93.394A1.361,1.361,0,0,1,169.994,92h0a1.361,1.361,0,0,1,1.394,1.394h0a1.361,1.361,0,0,1-1.394,1.394h0a1.424,1.424,0,0,1-1.394-1.394Z" transform="translate(-25.854 -92)"/>
      <path id="Path_3322" data-name="Path 3322" class="cls-1" d="M158.4,93.394A1.361,1.361,0,0,1,159.794,92h0a1.361,1.361,0,0,1,1.394,1.394h0a1.361,1.361,0,0,1-1.394,1.394h0a1.361,1.361,0,0,1-1.394-1.394Z" transform="translate(-25.808 -92)"/>
      <path id="Path_3323" data-name="Path 3323" class="cls-1" d="M148.1,93.394A1.361,1.361,0,0,1,149.494,92h0a1.361,1.361,0,0,1,1.394,1.394h0a1.361,1.361,0,0,1-1.394,1.394h0a1.424,1.424,0,0,1-1.394-1.394Z" transform="translate(-25.761 -92)"/>
      <path id="Path_3324" data-name="Path 3324" class="cls-1" d="M137.9,93.394A1.361,1.361,0,0,1,139.294,92h0a1.361,1.361,0,0,1,1.394,1.394h0a1.361,1.361,0,0,1-1.394,1.394h0a1.361,1.361,0,0,1-1.394-1.394Z" transform="translate(-25.714 -92)"/>
      <path id="Path_3325" data-name="Path 3325" class="cls-1" d="M127.6,93.394A1.361,1.361,0,0,1,128.994,92h0a1.361,1.361,0,0,1,1.394,1.394h0a1.361,1.361,0,0,1-1.394,1.394h0a1.424,1.424,0,0,1-1.394-1.394Z" transform="translate(-25.667 -92)"/>
      <path id="Path_3326" data-name="Path 3326" class="cls-1" d="M117.4,93.394A1.361,1.361,0,0,1,118.794,92h0a1.361,1.361,0,0,1,1.394,1.394h0a1.361,1.361,0,0,1-1.394,1.394h0a1.361,1.361,0,0,1-1.394-1.394Z" transform="translate(-25.621 -92)"/>
      <path id="Path_3327" data-name="Path 3327" class="cls-1" d="M107.1,93.394A1.361,1.361,0,0,1,108.494,92h0a1.361,1.361,0,0,1,1.394,1.394h0a1.361,1.361,0,0,1-1.394,1.394h0a1.424,1.424,0,0,1-1.394-1.394Z" transform="translate(-25.574 -92)"/>
      <path id="Path_3328" data-name="Path 3328" class="cls-1" d="M96.9,93.394A1.361,1.361,0,0,1,98.294,92h0a1.361,1.361,0,0,1,1.394,1.394h0a1.361,1.361,0,0,1-1.394,1.394h0A1.361,1.361,0,0,1,96.9,93.394Z" transform="translate(-25.527 -92)"/>
      <path id="Path_3329" data-name="Path 3329" class="cls-1" d="M86.7,93.394A1.361,1.361,0,0,1,88.094,92h0a1.361,1.361,0,0,1,1.394,1.394h0a1.361,1.361,0,0,1-1.394,1.394h0A1.361,1.361,0,0,1,86.7,93.394Z" transform="translate(-25.481 -92)"/>
      <path id="Path_3330" data-name="Path 3330" class="cls-1" d="M76.4,93.394A1.361,1.361,0,0,1,77.794,92h0a1.361,1.361,0,0,1,1.394,1.394h0a1.361,1.361,0,0,1-1.394,1.394h0A1.361,1.361,0,0,1,76.4,93.394Z" transform="translate(-25.434 -92)"/>
      <path id="Path_3331" data-name="Path 3331" class="cls-1" d="M66.2,93.394A1.361,1.361,0,0,1,67.594,92h0a1.361,1.361,0,0,1,1.394,1.394h0a1.361,1.361,0,0,1-1.394,1.394h0A1.361,1.361,0,0,1,66.2,93.394Z" transform="translate(-25.387 -92)"/>
      <path id="Path_3332" data-name="Path 3332" class="cls-1" d="M55.9,93.394A1.361,1.361,0,0,1,57.294,92h0a1.361,1.361,0,0,1,1.394,1.394h0a1.361,1.361,0,0,1-1.394,1.394h0A1.361,1.361,0,0,1,55.9,93.394Z" transform="translate(-25.34 -92)"/>
      <path id="Path_3333" data-name="Path 3333" class="cls-1" d="M45.7,93.394A1.361,1.361,0,0,1,47.094,92h0a1.361,1.361,0,0,1,1.394,1.394h0a1.361,1.361,0,0,1-1.394,1.394h0A1.361,1.361,0,0,1,45.7,93.394Z" transform="translate(-25.294 -92)"/>
      <path id="Path_3334" data-name="Path 3334" class="cls-1" d="M35.4,93.394A1.361,1.361,0,0,1,36.794,92h0a1.361,1.361,0,0,1,1.394,1.394h0a1.361,1.361,0,0,1-1.394,1.394h0A1.361,1.361,0,0,1,35.4,93.394Z" transform="translate(-25.247 -92)"/>
      <path id="Path_3335" data-name="Path 3335" class="cls-1" d="M25.2,93.394A1.361,1.361,0,0,1,26.594,92h0a1.361,1.361,0,0,1,1.394,1.394h0a1.361,1.361,0,0,1-1.394,1.394h0A1.361,1.361,0,0,1,25.2,93.394Z" transform="translate(-25.2 -92)"/>
    </g>
    <g id="Group_133" data-name="Group 133" transform="translate(0 35.338)">
      <path id="Path_3336" data-name="Path 3336" class="cls-1" d="M194.3,87.194a1.361,1.361,0,0,1,1.394-1.394h0a1.361,1.361,0,0,1,1.394,1.394h0a1.361,1.361,0,0,1-1.394,1.394h0a1.306,1.306,0,0,1-1.394-1.394Z" transform="translate(-20.795 -85.8)"/>
      <path id="Path_3337" data-name="Path 3337" class="cls-1" d="M184,87.194a1.361,1.361,0,0,1,1.394-1.394h0a1.361,1.361,0,0,1,1.394,1.394h0a1.361,1.361,0,0,1-1.394,1.394h0A1.306,1.306,0,0,1,184,87.194Z" transform="translate(-20.748 -85.8)"/>
      <path id="Path_3338" data-name="Path 3338" class="cls-1" d="M173.8,87.194a1.361,1.361,0,0,1,1.394-1.394h0a1.361,1.361,0,0,1,1.394,1.394h0a1.361,1.361,0,0,1-1.394,1.394h0a1.306,1.306,0,0,1-1.394-1.394Z" transform="translate(-20.702 -85.8)"/>
      <path id="Path_3339" data-name="Path 3339" class="cls-1" d="M163.5,87.194a1.361,1.361,0,0,1,1.394-1.394h0a1.361,1.361,0,0,1,1.394,1.394h0a1.361,1.361,0,0,1-1.394,1.394h0a1.306,1.306,0,0,1-1.394-1.394Z" transform="translate(-20.655 -85.8)"/>
      <path id="Path_3340" data-name="Path 3340" class="cls-1" d="M153.3,87.194a1.361,1.361,0,0,1,1.394-1.394h0a1.361,1.361,0,0,1,1.394,1.394h0a1.361,1.361,0,0,1-1.394,1.394h0a1.306,1.306,0,0,1-1.394-1.394Z" transform="translate(-20.608 -85.8)"/>
      <path id="Path_3341" data-name="Path 3341" class="cls-1" d="M143,87.194a1.361,1.361,0,0,1,1.394-1.394h0a1.361,1.361,0,0,1,1.394,1.394h0a1.361,1.361,0,0,1-1.394,1.394h0A1.306,1.306,0,0,1,143,87.194Z" transform="translate(-20.561 -85.8)"/>
      <path id="Path_3342" data-name="Path 3342" class="cls-1" d="M132.8,87.194a1.361,1.361,0,0,1,1.394-1.394h0a1.361,1.361,0,0,1,1.394,1.394h0a1.361,1.361,0,0,1-1.394,1.394h0a1.306,1.306,0,0,1-1.394-1.394Z" transform="translate(-20.515 -85.8)"/>
      <path id="Path_3343" data-name="Path 3343" class="cls-1" d="M122.5,87.194a1.361,1.361,0,0,1,1.394-1.394h0a1.361,1.361,0,0,1,1.394,1.394h0a1.361,1.361,0,0,1-1.394,1.394h0a1.359,1.359,0,0,1-1.394-1.394Z" transform="translate(-20.468 -85.8)"/>
      <path id="Path_3344" data-name="Path 3344" class="cls-1" d="M112.3,87.194a1.361,1.361,0,0,1,1.394-1.394h0a1.361,1.361,0,0,1,1.394,1.394h0a1.361,1.361,0,0,1-1.394,1.394h0a1.306,1.306,0,0,1-1.394-1.394Z" transform="translate(-20.421 -85.8)"/>
      <path id="Path_3345" data-name="Path 3345" class="cls-1" d="M102,87.194a1.361,1.361,0,0,1,1.394-1.394h0a1.361,1.361,0,0,1,1.394,1.394h0a1.361,1.361,0,0,1-1.394,1.394h0A1.359,1.359,0,0,1,102,87.194Z" transform="translate(-20.374 -85.8)"/>
      <path id="Path_3346" data-name="Path 3346" class="cls-1" d="M91.8,87.194A1.361,1.361,0,0,1,93.194,85.8h0a1.361,1.361,0,0,1,1.394,1.394h0a1.361,1.361,0,0,1-1.394,1.394h0A1.306,1.306,0,0,1,91.8,87.194Z" transform="translate(-20.328 -85.8)"/>
      <path id="Path_3347" data-name="Path 3347" class="cls-1" d="M81.5,87.194A1.361,1.361,0,0,1,82.894,85.8h0a1.361,1.361,0,0,1,1.394,1.394h0a1.361,1.361,0,0,1-1.394,1.394h0A1.359,1.359,0,0,1,81.5,87.194Z" transform="translate(-20.281 -85.8)"/>
      <path id="Path_3348" data-name="Path 3348" class="cls-1" d="M71.3,87.194A1.361,1.361,0,0,1,72.694,85.8h0a1.361,1.361,0,0,1,1.394,1.394h0a1.361,1.361,0,0,1-1.394,1.394h0A1.306,1.306,0,0,1,71.3,87.194Z" transform="translate(-20.234 -85.8)"/>
      <path id="Path_3349" data-name="Path 3349" class="cls-1" d="M61,87.194A1.361,1.361,0,0,1,62.394,85.8h0a1.361,1.361,0,0,1,1.394,1.394h0a1.361,1.361,0,0,1-1.394,1.394h0A1.359,1.359,0,0,1,61,87.194Z" transform="translate(-20.187 -85.8)"/>
      <path id="Path_3350" data-name="Path 3350" class="cls-1" d="M50.8,87.194A1.361,1.361,0,0,1,52.194,85.8h0a1.361,1.361,0,0,1,1.394,1.394h0a1.361,1.361,0,0,1-1.394,1.394h0A1.306,1.306,0,0,1,50.8,87.194Z" transform="translate(-20.141 -85.8)"/>
      <path id="Path_3351" data-name="Path 3351" class="cls-1" d="M40.5,87.194A1.361,1.361,0,0,1,41.894,85.8h0a1.361,1.361,0,0,1,1.394,1.394h0a1.361,1.361,0,0,1-1.394,1.394h0A1.359,1.359,0,0,1,40.5,87.194Z" transform="translate(-20.094 -85.8)"/>
      <path id="Path_3352" data-name="Path 3352" class="cls-1" d="M30.3,87.194A1.361,1.361,0,0,1,31.694,85.8h0a1.361,1.361,0,0,1,1.394,1.394h0a1.361,1.361,0,0,1-1.394,1.394h0A1.306,1.306,0,0,1,30.3,87.194Z" transform="translate(-20.047 -85.8)"/>
      <path id="Path_3353" data-name="Path 3353" class="cls-1" d="M20,87.194A1.361,1.361,0,0,1,21.394,85.8h0a1.361,1.361,0,0,1,1.394,1.394h0a1.361,1.361,0,0,1-1.394,1.394h0A1.359,1.359,0,0,1,20,87.194Z" transform="translate(-20 -85.8)"/>
    </g>
    <g id="Group_134" data-name="Group 134" transform="translate(5.176 29.764)">
      <path id="Path_3354" data-name="Path 3354" class="cls-1" d="M189.1,81.594a1.361,1.361,0,0,1,1.394-1.394h0a1.361,1.361,0,0,1,1.394,1.394h0a1.361,1.361,0,0,1-1.394,1.394h0a1.424,1.424,0,0,1-1.394-1.394Z" transform="translate(-25.948 -80.2)"/>
      <path id="Path_3355" data-name="Path 3355" class="cls-1" d="M178.9,81.594a1.361,1.361,0,0,1,1.394-1.394h0a1.361,1.361,0,0,1,1.394,1.394h0a1.361,1.361,0,0,1-1.394,1.394h0a1.361,1.361,0,0,1-1.394-1.394Z" transform="translate(-25.901 -80.2)"/>
      <path id="Path_3356" data-name="Path 3356" class="cls-1" d="M168.6,81.594a1.361,1.361,0,0,1,1.394-1.394h0a1.361,1.361,0,0,1,1.394,1.394h0a1.361,1.361,0,0,1-1.394,1.394h0a1.424,1.424,0,0,1-1.394-1.394Z" transform="translate(-25.854 -80.2)"/>
      <path id="Path_3357" data-name="Path 3357" class="cls-1" d="M158.4,81.594a1.361,1.361,0,0,1,1.394-1.394h0a1.361,1.361,0,0,1,1.394,1.394h0a1.361,1.361,0,0,1-1.394,1.394h0a1.361,1.361,0,0,1-1.394-1.394Z" transform="translate(-25.808 -80.2)"/>
      <path id="Path_3358" data-name="Path 3358" class="cls-1" d="M148.1,81.594a1.361,1.361,0,0,1,1.394-1.394h0a1.361,1.361,0,0,1,1.394,1.394h0a1.361,1.361,0,0,1-1.394,1.394h0a1.424,1.424,0,0,1-1.394-1.394Z" transform="translate(-25.761 -80.2)"/>
      <path id="Path_3359" data-name="Path 3359" class="cls-1" d="M137.9,81.594a1.361,1.361,0,0,1,1.394-1.394h0a1.361,1.361,0,0,1,1.394,1.394h0a1.361,1.361,0,0,1-1.394,1.394h0a1.361,1.361,0,0,1-1.394-1.394Z" transform="translate(-25.714 -80.2)"/>
      <path id="Path_3360" data-name="Path 3360" class="cls-1" d="M127.6,81.594a1.361,1.361,0,0,1,1.394-1.394h0a1.361,1.361,0,0,1,1.394,1.394h0a1.361,1.361,0,0,1-1.394,1.394h0a1.424,1.424,0,0,1-1.394-1.394Z" transform="translate(-25.667 -80.2)"/>
      <path id="Path_3361" data-name="Path 3361" class="cls-1" d="M117.4,81.594a1.361,1.361,0,0,1,1.394-1.394h0a1.361,1.361,0,0,1,1.394,1.394h0a1.361,1.361,0,0,1-1.394,1.394h0a1.361,1.361,0,0,1-1.394-1.394Z" transform="translate(-25.621 -80.2)"/>
      <path id="Path_3362" data-name="Path 3362" class="cls-1" d="M107.1,81.594a1.361,1.361,0,0,1,1.394-1.394h0a1.361,1.361,0,0,1,1.394,1.394h0a1.361,1.361,0,0,1-1.394,1.394h0a1.424,1.424,0,0,1-1.394-1.394Z" transform="translate(-25.574 -80.2)"/>
      <path id="Path_3363" data-name="Path 3363" class="cls-1" d="M96.9,81.594A1.361,1.361,0,0,1,98.294,80.2h0a1.361,1.361,0,0,1,1.394,1.394h0a1.361,1.361,0,0,1-1.394,1.394h0A1.361,1.361,0,0,1,96.9,81.594Z" transform="translate(-25.527 -80.2)"/>
      <path id="Path_3364" data-name="Path 3364" class="cls-1" d="M86.7,81.594A1.361,1.361,0,0,1,88.094,80.2h0a1.361,1.361,0,0,1,1.394,1.394h0a1.361,1.361,0,0,1-1.394,1.394h0A1.361,1.361,0,0,1,86.7,81.594Z" transform="translate(-25.481 -80.2)"/>
      <path id="Path_3365" data-name="Path 3365" class="cls-1" d="M76.4,81.594A1.361,1.361,0,0,1,77.794,80.2h0a1.361,1.361,0,0,1,1.394,1.394h0a1.361,1.361,0,0,1-1.394,1.394h0A1.361,1.361,0,0,1,76.4,81.594Z" transform="translate(-25.434 -80.2)"/>
      <path id="Path_3366" data-name="Path 3366" class="cls-1" d="M66.2,81.594A1.361,1.361,0,0,1,67.594,80.2h0a1.361,1.361,0,0,1,1.394,1.394h0a1.361,1.361,0,0,1-1.394,1.394h0A1.361,1.361,0,0,1,66.2,81.594Z" transform="translate(-25.387 -80.2)"/>
      <path id="Path_3367" data-name="Path 3367" class="cls-1" d="M55.9,81.594A1.361,1.361,0,0,1,57.294,80.2h0a1.361,1.361,0,0,1,1.394,1.394h0a1.361,1.361,0,0,1-1.394,1.394h0A1.361,1.361,0,0,1,55.9,81.594Z" transform="translate(-25.34 -80.2)"/>
      <path id="Path_3368" data-name="Path 3368" class="cls-1" d="M45.7,81.594A1.361,1.361,0,0,1,47.094,80.2h0a1.361,1.361,0,0,1,1.394,1.394h0a1.361,1.361,0,0,1-1.394,1.394h0A1.361,1.361,0,0,1,45.7,81.594Z" transform="translate(-25.294 -80.2)"/>
      <path id="Path_3369" data-name="Path 3369" class="cls-1" d="M35.4,81.594A1.361,1.361,0,0,1,36.794,80.2h0a1.361,1.361,0,0,1,1.394,1.394h0a1.361,1.361,0,0,1-1.394,1.394h0A1.361,1.361,0,0,1,35.4,81.594Z" transform="translate(-25.247 -80.2)"/>
      <path id="Path_3370" data-name="Path 3370" class="cls-1" d="M25.2,81.594A1.361,1.361,0,0,1,26.594,80.2h0a1.361,1.361,0,0,1,1.394,1.394h0a1.361,1.361,0,0,1-1.394,1.394h0A1.361,1.361,0,0,1,25.2,81.594Z" transform="translate(-25.2 -80.2)"/>
    </g>
    <g id="Group_135" data-name="Group 135" transform="translate(0 23.592)">
      <path id="Path_3371" data-name="Path 3371" class="cls-1" d="M194.3,75.394A1.361,1.361,0,0,1,195.694,74h0a1.361,1.361,0,0,1,1.394,1.394h0a1.361,1.361,0,0,1-1.394,1.394h0a1.361,1.361,0,0,1-1.394-1.394Z" transform="translate(-20.795 -74)"/>
      <path id="Path_3372" data-name="Path 3372" class="cls-1" d="M184,75.394A1.361,1.361,0,0,1,185.394,74h0a1.361,1.361,0,0,1,1.394,1.394h0a1.361,1.361,0,0,1-1.394,1.394h0A1.361,1.361,0,0,1,184,75.394Z" transform="translate(-20.748 -74)"/>
      <path id="Path_3373" data-name="Path 3373" class="cls-1" d="M173.8,75.394A1.361,1.361,0,0,1,175.194,74h0a1.361,1.361,0,0,1,1.394,1.394h0a1.361,1.361,0,0,1-1.394,1.394h0a1.361,1.361,0,0,1-1.394-1.394Z" transform="translate(-20.702 -74)"/>
      <path id="Path_3374" data-name="Path 3374" class="cls-1" d="M163.5,75.394A1.361,1.361,0,0,1,164.894,74h0a1.361,1.361,0,0,1,1.394,1.394h0a1.361,1.361,0,0,1-1.394,1.394h0a1.361,1.361,0,0,1-1.394-1.394Z" transform="translate(-20.655 -74)"/>
      <path id="Path_3375" data-name="Path 3375" class="cls-1" d="M153.3,75.394A1.361,1.361,0,0,1,154.694,74h0a1.361,1.361,0,0,1,1.394,1.394h0a1.361,1.361,0,0,1-1.394,1.394h0a1.361,1.361,0,0,1-1.394-1.394Z" transform="translate(-20.608 -74)"/>
      <path id="Path_3376" data-name="Path 3376" class="cls-1" d="M143,75.394A1.361,1.361,0,0,1,144.394,74h0a1.361,1.361,0,0,1,1.394,1.394h0a1.361,1.361,0,0,1-1.394,1.394h0A1.361,1.361,0,0,1,143,75.394Z" transform="translate(-20.561 -74)"/>
      <path id="Path_3377" data-name="Path 3377" class="cls-1" d="M132.8,75.394A1.361,1.361,0,0,1,134.194,74h0a1.361,1.361,0,0,1,1.394,1.394h0a1.361,1.361,0,0,1-1.394,1.394h0a1.361,1.361,0,0,1-1.394-1.394Z" transform="translate(-20.515 -74)"/>
      <path id="Path_3378" data-name="Path 3378" class="cls-1" d="M122.5,75.394A1.361,1.361,0,0,1,123.894,74h0a1.361,1.361,0,0,1,1.394,1.394h0a1.361,1.361,0,0,1-1.394,1.394h0a1.424,1.424,0,0,1-1.394-1.394Z" transform="translate(-20.468 -74)"/>
      <path id="Path_3379" data-name="Path 3379" class="cls-1" d="M112.3,75.394A1.361,1.361,0,0,1,113.694,74h0a1.361,1.361,0,0,1,1.394,1.394h0a1.361,1.361,0,0,1-1.394,1.394h0a1.361,1.361,0,0,1-1.394-1.394Z" transform="translate(-20.421 -74)"/>
      <path id="Path_3380" data-name="Path 3380" class="cls-1" d="M102,75.394A1.361,1.361,0,0,1,103.394,74h0a1.361,1.361,0,0,1,1.394,1.394h0a1.361,1.361,0,0,1-1.394,1.394h0A1.424,1.424,0,0,1,102,75.394Z" transform="translate(-20.374 -74)"/>
      <path id="Path_3381" data-name="Path 3381" class="cls-1" d="M91.8,75.394A1.361,1.361,0,0,1,93.194,74h0a1.361,1.361,0,0,1,1.394,1.394h0a1.361,1.361,0,0,1-1.394,1.394h0A1.361,1.361,0,0,1,91.8,75.394Z" transform="translate(-20.328 -74)"/>
      <path id="Path_3382" data-name="Path 3382" class="cls-1" d="M81.5,75.394A1.361,1.361,0,0,1,82.894,74h0a1.361,1.361,0,0,1,1.394,1.394h0a1.361,1.361,0,0,1-1.394,1.394h0A1.424,1.424,0,0,1,81.5,75.394Z" transform="translate(-20.281 -74)"/>
      <path id="Path_3383" data-name="Path 3383" class="cls-1" d="M71.3,75.394A1.361,1.361,0,0,1,72.694,74h0a1.361,1.361,0,0,1,1.394,1.394h0a1.361,1.361,0,0,1-1.394,1.394h0A1.361,1.361,0,0,1,71.3,75.394Z" transform="translate(-20.234 -74)"/>
      <path id="Path_3384" data-name="Path 3384" class="cls-1" d="M61,75.394A1.361,1.361,0,0,1,62.394,74h0a1.361,1.361,0,0,1,1.394,1.394h0a1.361,1.361,0,0,1-1.394,1.394h0A1.424,1.424,0,0,1,61,75.394Z" transform="translate(-20.187 -74)"/>
      <path id="Path_3385" data-name="Path 3385" class="cls-1" d="M50.8,75.394A1.361,1.361,0,0,1,52.194,74h0a1.361,1.361,0,0,1,1.394,1.394h0a1.361,1.361,0,0,1-1.394,1.394h0A1.361,1.361,0,0,1,50.8,75.394Z" transform="translate(-20.141 -74)"/>
      <path id="Path_3386" data-name="Path 3386" class="cls-1" d="M40.5,75.394A1.361,1.361,0,0,1,41.894,74h0a1.361,1.361,0,0,1,1.394,1.394h0a1.361,1.361,0,0,1-1.394,1.394h0A1.424,1.424,0,0,1,40.5,75.394Z" transform="translate(-20.094 -74)"/>
      <path id="Path_3387" data-name="Path 3387" class="cls-1" d="M30.3,75.394A1.361,1.361,0,0,1,31.694,74h0a1.361,1.361,0,0,1,1.394,1.394h0a1.361,1.361,0,0,1-1.394,1.394h0A1.361,1.361,0,0,1,30.3,75.394Z" transform="translate(-20.047 -74)"/>
      <path id="Path_3388" data-name="Path 3388" class="cls-1" d="M20,75.394A1.361,1.361,0,0,1,21.394,74h0a1.361,1.361,0,0,1,1.394,1.394h0a1.361,1.361,0,0,1-1.394,1.394h0A1.424,1.424,0,0,1,20,75.394Z" transform="translate(-20 -74)"/>
    </g>
    <g id="Group_136" data-name="Group 136" transform="translate(5.176 17.918)">
      <path id="Path_3389" data-name="Path 3389" class="cls-1" d="M189.1,69.694a1.361,1.361,0,0,1,1.394-1.394h0a1.361,1.361,0,0,1,1.394,1.394h0a1.361,1.361,0,0,1-1.394,1.394h0a1.359,1.359,0,0,1-1.394-1.394Z" transform="translate(-25.948 -68.3)"/>
      <path id="Path_3390" data-name="Path 3390" class="cls-1" d="M178.9,69.694a1.361,1.361,0,0,1,1.394-1.394h0a1.361,1.361,0,0,1,1.394,1.394h0a1.361,1.361,0,0,1-1.394,1.394h0a1.306,1.306,0,0,1-1.394-1.394Z" transform="translate(-25.901 -68.3)"/>
      <path id="Path_3391" data-name="Path 3391" class="cls-1" d="M168.6,69.694a1.361,1.361,0,0,1,1.394-1.394h0a1.361,1.361,0,0,1,1.394,1.394h0a1.361,1.361,0,0,1-1.394,1.394h0a1.359,1.359,0,0,1-1.394-1.394Z" transform="translate(-25.854 -68.3)"/>
      <path id="Path_3392" data-name="Path 3392" class="cls-1" d="M158.4,69.694a1.361,1.361,0,0,1,1.394-1.394h0a1.361,1.361,0,0,1,1.394,1.394h0a1.361,1.361,0,0,1-1.394,1.394h0a1.306,1.306,0,0,1-1.394-1.394Z" transform="translate(-25.808 -68.3)"/>
      <path id="Path_3393" data-name="Path 3393" class="cls-1" d="M148.1,69.694a1.361,1.361,0,0,1,1.394-1.394h0a1.361,1.361,0,0,1,1.394,1.394h0a1.361,1.361,0,0,1-1.394,1.394h0a1.359,1.359,0,0,1-1.394-1.394Z" transform="translate(-25.761 -68.3)"/>
      <path id="Path_3394" data-name="Path 3394" class="cls-1" d="M137.9,69.694a1.361,1.361,0,0,1,1.394-1.394h0a1.361,1.361,0,0,1,1.394,1.394h0a1.361,1.361,0,0,1-1.394,1.394h0a1.306,1.306,0,0,1-1.394-1.394Z" transform="translate(-25.714 -68.3)"/>
      <path id="Path_3395" data-name="Path 3395" class="cls-1" d="M127.6,69.694a1.361,1.361,0,0,1,1.394-1.394h0a1.361,1.361,0,0,1,1.394,1.394h0a1.361,1.361,0,0,1-1.394,1.394h0a1.359,1.359,0,0,1-1.394-1.394Z" transform="translate(-25.667 -68.3)"/>
      <path id="Path_3396" data-name="Path 3396" class="cls-1" d="M117.4,69.694a1.361,1.361,0,0,1,1.394-1.394h0a1.361,1.361,0,0,1,1.394,1.394h0a1.361,1.361,0,0,1-1.394,1.394h0a1.306,1.306,0,0,1-1.394-1.394Z" transform="translate(-25.621 -68.3)"/>
      <path id="Path_3397" data-name="Path 3397" class="cls-1" d="M107.1,69.694a1.361,1.361,0,0,1,1.394-1.394h0a1.361,1.361,0,0,1,1.394,1.394h0a1.361,1.361,0,0,1-1.394,1.394h0a1.359,1.359,0,0,1-1.394-1.394Z" transform="translate(-25.574 -68.3)"/>
      <path id="Path_3398" data-name="Path 3398" class="cls-1" d="M96.9,69.694A1.361,1.361,0,0,1,98.294,68.3h0a1.361,1.361,0,0,1,1.394,1.394h0a1.361,1.361,0,0,1-1.394,1.394h0A1.306,1.306,0,0,1,96.9,69.694Z" transform="translate(-25.527 -68.3)"/>
      <path id="Path_3399" data-name="Path 3399" class="cls-1" d="M86.7,69.694A1.361,1.361,0,0,1,88.094,68.3h0a1.361,1.361,0,0,1,1.394,1.394h0a1.361,1.361,0,0,1-1.394,1.394h0A1.306,1.306,0,0,1,86.7,69.694Z" transform="translate(-25.481 -68.3)"/>
      <path id="Path_3400" data-name="Path 3400" class="cls-1" d="M76.4,69.694A1.361,1.361,0,0,1,77.794,68.3h0a1.361,1.361,0,0,1,1.394,1.394h0a1.361,1.361,0,0,1-1.394,1.394h0A1.306,1.306,0,0,1,76.4,69.694Z" transform="translate(-25.434 -68.3)"/>
      <path id="Path_3401" data-name="Path 3401" class="cls-1" d="M66.2,69.694A1.361,1.361,0,0,1,67.594,68.3h0a1.361,1.361,0,0,1,1.394,1.394h0a1.361,1.361,0,0,1-1.394,1.394h0A1.306,1.306,0,0,1,66.2,69.694Z" transform="translate(-25.387 -68.3)"/>
      <path id="Path_3402" data-name="Path 3402" class="cls-1" d="M55.9,69.694A1.361,1.361,0,0,1,57.294,68.3h0a1.361,1.361,0,0,1,1.394,1.394h0a1.361,1.361,0,0,1-1.394,1.394h0A1.306,1.306,0,0,1,55.9,69.694Z" transform="translate(-25.34 -68.3)"/>
      <path id="Path_3403" data-name="Path 3403" class="cls-1" d="M45.7,69.694A1.361,1.361,0,0,1,47.094,68.3h0a1.361,1.361,0,0,1,1.394,1.394h0a1.361,1.361,0,0,1-1.394,1.394h0A1.306,1.306,0,0,1,45.7,69.694Z" transform="translate(-25.294 -68.3)"/>
      <path id="Path_3404" data-name="Path 3404" class="cls-1" d="M35.4,69.694A1.361,1.361,0,0,1,36.794,68.3h0a1.361,1.361,0,0,1,1.394,1.394h0a1.361,1.361,0,0,1-1.394,1.394h0A1.306,1.306,0,0,1,35.4,69.694Z" transform="translate(-25.247 -68.3)"/>
      <path id="Path_3405" data-name="Path 3405" class="cls-1" d="M25.2,69.694A1.361,1.361,0,0,1,26.594,68.3h0a1.361,1.361,0,0,1,1.394,1.394h0a1.361,1.361,0,0,1-1.394,1.394h0A1.306,1.306,0,0,1,25.2,69.694Z" transform="translate(-25.2 -68.3)"/>
    </g>
    <g id="Group_137" data-name="Group 137" transform="translate(0 11.846)">
      <path id="Path_3406" data-name="Path 3406" class="cls-1" d="M194.3,63.594a1.361,1.361,0,0,1,1.394-1.394h0a1.361,1.361,0,0,1,1.394,1.394h0a1.361,1.361,0,0,1-1.394,1.394h0a1.361,1.361,0,0,1-1.394-1.394Z" transform="translate(-20.795 -62.2)"/>
      <path id="Path_3407" data-name="Path 3407" class="cls-1" d="M184,63.594a1.361,1.361,0,0,1,1.394-1.394h0a1.361,1.361,0,0,1,1.394,1.394h0a1.361,1.361,0,0,1-1.394,1.394h0A1.361,1.361,0,0,1,184,63.594Z" transform="translate(-20.748 -62.2)"/>
      <path id="Path_3408" data-name="Path 3408" class="cls-1" d="M173.8,63.594a1.361,1.361,0,0,1,1.394-1.394h0a1.361,1.361,0,0,1,1.394,1.394h0a1.361,1.361,0,0,1-1.394,1.394h0a1.361,1.361,0,0,1-1.394-1.394Z" transform="translate(-20.702 -62.2)"/>
      <path id="Path_3409" data-name="Path 3409" class="cls-1" d="M163.5,63.594a1.361,1.361,0,0,1,1.394-1.394h0a1.361,1.361,0,0,1,1.394,1.394h0a1.361,1.361,0,0,1-1.394,1.394h0a1.361,1.361,0,0,1-1.394-1.394Z" transform="translate(-20.655 -62.2)"/>
      <path id="Path_3410" data-name="Path 3410" class="cls-1" d="M153.3,63.594a1.361,1.361,0,0,1,1.394-1.394h0a1.361,1.361,0,0,1,1.394,1.394h0a1.361,1.361,0,0,1-1.394,1.394h0a1.361,1.361,0,0,1-1.394-1.394Z" transform="translate(-20.608 -62.2)"/>
      <path id="Path_3411" data-name="Path 3411" class="cls-1" d="M143,63.594a1.361,1.361,0,0,1,1.394-1.394h0a1.361,1.361,0,0,1,1.394,1.394h0a1.361,1.361,0,0,1-1.394,1.394h0A1.361,1.361,0,0,1,143,63.594Z" transform="translate(-20.561 -62.2)"/>
      <path id="Path_3412" data-name="Path 3412" class="cls-1" d="M132.8,63.594a1.361,1.361,0,0,1,1.394-1.394h0a1.361,1.361,0,0,1,1.394,1.394h0a1.361,1.361,0,0,1-1.394,1.394h0a1.361,1.361,0,0,1-1.394-1.394Z" transform="translate(-20.515 -62.2)"/>
      <path id="Path_3413" data-name="Path 3413" class="cls-1" d="M122.5,63.594a1.361,1.361,0,0,1,1.394-1.394h0a1.361,1.361,0,0,1,1.394,1.394h0a1.361,1.361,0,0,1-1.394,1.394h0a1.424,1.424,0,0,1-1.394-1.394Z" transform="translate(-20.468 -62.2)"/>
      <path id="Path_3414" data-name="Path 3414" class="cls-1" d="M112.3,63.594a1.361,1.361,0,0,1,1.394-1.394h0a1.361,1.361,0,0,1,1.394,1.394h0a1.361,1.361,0,0,1-1.394,1.394h0a1.361,1.361,0,0,1-1.394-1.394Z" transform="translate(-20.421 -62.2)"/>
      <path id="Path_3415" data-name="Path 3415" class="cls-1" d="M102,63.594a1.361,1.361,0,0,1,1.394-1.394h0a1.361,1.361,0,0,1,1.394,1.394h0a1.361,1.361,0,0,1-1.394,1.394h0A1.424,1.424,0,0,1,102,63.594Z" transform="translate(-20.374 -62.2)"/>
      <path id="Path_3416" data-name="Path 3416" class="cls-1" d="M91.8,63.594A1.361,1.361,0,0,1,93.194,62.2h0a1.361,1.361,0,0,1,1.394,1.394h0a1.361,1.361,0,0,1-1.394,1.394h0A1.361,1.361,0,0,1,91.8,63.594Z" transform="translate(-20.328 -62.2)"/>
      <path id="Path_3417" data-name="Path 3417" class="cls-1" d="M81.5,63.594A1.361,1.361,0,0,1,82.894,62.2h0a1.361,1.361,0,0,1,1.394,1.394h0a1.361,1.361,0,0,1-1.394,1.394h0A1.424,1.424,0,0,1,81.5,63.594Z" transform="translate(-20.281 -62.2)"/>
      <path id="Path_3418" data-name="Path 3418" class="cls-1" d="M71.3,63.594A1.361,1.361,0,0,1,72.694,62.2h0a1.361,1.361,0,0,1,1.394,1.394h0a1.361,1.361,0,0,1-1.394,1.394h0A1.361,1.361,0,0,1,71.3,63.594Z" transform="translate(-20.234 -62.2)"/>
      <path id="Path_3419" data-name="Path 3419" class="cls-1" d="M61,63.594A1.361,1.361,0,0,1,62.394,62.2h0a1.361,1.361,0,0,1,1.394,1.394h0a1.361,1.361,0,0,1-1.394,1.394h0A1.424,1.424,0,0,1,61,63.594Z" transform="translate(-20.187 -62.2)"/>
      <path id="Path_3420" data-name="Path 3420" class="cls-1" d="M50.8,63.594A1.361,1.361,0,0,1,52.194,62.2h0a1.361,1.361,0,0,1,1.394,1.394h0a1.361,1.361,0,0,1-1.394,1.394h0A1.361,1.361,0,0,1,50.8,63.594Z" transform="translate(-20.141 -62.2)"/>
      <path id="Path_3421" data-name="Path 3421" class="cls-1" d="M40.5,63.594A1.361,1.361,0,0,1,41.894,62.2h0a1.361,1.361,0,0,1,1.394,1.394h0a1.361,1.361,0,0,1-1.394,1.394h0A1.424,1.424,0,0,1,40.5,63.594Z" transform="translate(-20.094 -62.2)"/>
      <path id="Path_3422" data-name="Path 3422" class="cls-1" d="M30.3,63.594A1.361,1.361,0,0,1,31.694,62.2h0a1.361,1.361,0,0,1,1.394,1.394h0a1.361,1.361,0,0,1-1.394,1.394h0A1.361,1.361,0,0,1,30.3,63.594Z" transform="translate(-20.047 -62.2)"/>
      <path id="Path_3423" data-name="Path 3423" class="cls-1" d="M20,63.594A1.361,1.361,0,0,1,21.394,62.2h0a1.361,1.361,0,0,1,1.394,1.394h0a1.361,1.361,0,0,1-1.394,1.394h0A1.424,1.424,0,0,1,20,63.594Z" transform="translate(-20 -62.2)"/>
    </g>
    <g id="Group_138" data-name="Group 138" transform="translate(5.176 6.172)">
      <path id="Path_3424" data-name="Path 3424" class="cls-1" d="M189.1,57.894a1.361,1.361,0,0,1,1.394-1.394h0a1.361,1.361,0,0,1,1.394,1.394h0a1.361,1.361,0,0,1-1.394,1.394h0a1.424,1.424,0,0,1-1.394-1.394Z" transform="translate(-25.948 -56.5)"/>
      <path id="Path_3425" data-name="Path 3425" class="cls-1" d="M178.9,57.894a1.361,1.361,0,0,1,1.394-1.394h0a1.361,1.361,0,0,1,1.394,1.394h0a1.361,1.361,0,0,1-1.394,1.394h0a1.361,1.361,0,0,1-1.394-1.394Z" transform="translate(-25.901 -56.5)"/>
      <path id="Path_3426" data-name="Path 3426" class="cls-1" d="M168.6,57.894a1.361,1.361,0,0,1,1.394-1.394h0a1.361,1.361,0,0,1,1.394,1.394h0a1.361,1.361,0,0,1-1.394,1.394h0a1.424,1.424,0,0,1-1.394-1.394Z" transform="translate(-25.854 -56.5)"/>
      <path id="Path_3427" data-name="Path 3427" class="cls-1" d="M158.4,57.894a1.361,1.361,0,0,1,1.394-1.394h0a1.361,1.361,0,0,1,1.394,1.394h0a1.361,1.361,0,0,1-1.394,1.394h0a1.361,1.361,0,0,1-1.394-1.394Z" transform="translate(-25.808 -56.5)"/>
      <path id="Path_3428" data-name="Path 3428" class="cls-1" d="M148.1,57.894a1.361,1.361,0,0,1,1.394-1.394h0a1.361,1.361,0,0,1,1.394,1.394h0a1.361,1.361,0,0,1-1.394,1.394h0a1.424,1.424,0,0,1-1.394-1.394Z" transform="translate(-25.761 -56.5)"/>
      <path id="Path_3429" data-name="Path 3429" class="cls-1" d="M137.9,57.894a1.361,1.361,0,0,1,1.394-1.394h0a1.361,1.361,0,0,1,1.394,1.394h0a1.361,1.361,0,0,1-1.394,1.394h0a1.361,1.361,0,0,1-1.394-1.394Z" transform="translate(-25.714 -56.5)"/>
      <path id="Path_3430" data-name="Path 3430" class="cls-1" d="M127.6,57.894a1.361,1.361,0,0,1,1.394-1.394h0a1.361,1.361,0,0,1,1.394,1.394h0a1.361,1.361,0,0,1-1.394,1.394h0a1.424,1.424,0,0,1-1.394-1.394Z" transform="translate(-25.667 -56.5)"/>
      <path id="Path_3431" data-name="Path 3431" class="cls-1" d="M117.4,57.894a1.361,1.361,0,0,1,1.394-1.394h0a1.361,1.361,0,0,1,1.394,1.394h0a1.361,1.361,0,0,1-1.394,1.394h0a1.361,1.361,0,0,1-1.394-1.394Z" transform="translate(-25.621 -56.5)"/>
      <path id="Path_3432" data-name="Path 3432" class="cls-1" d="M107.1,57.894a1.361,1.361,0,0,1,1.394-1.394h0a1.361,1.361,0,0,1,1.394,1.394h0a1.361,1.361,0,0,1-1.394,1.394h0a1.424,1.424,0,0,1-1.394-1.394Z" transform="translate(-25.574 -56.5)"/>
      <path id="Path_3433" data-name="Path 3433" class="cls-1" d="M96.9,57.894A1.361,1.361,0,0,1,98.294,56.5h0a1.361,1.361,0,0,1,1.394,1.394h0a1.361,1.361,0,0,1-1.394,1.394h0A1.361,1.361,0,0,1,96.9,57.894Z" transform="translate(-25.527 -56.5)"/>
      <path id="Path_3434" data-name="Path 3434" class="cls-1" d="M86.7,57.894A1.361,1.361,0,0,1,88.094,56.5h0a1.361,1.361,0,0,1,1.394,1.394h0a1.361,1.361,0,0,1-1.394,1.394h0A1.361,1.361,0,0,1,86.7,57.894Z" transform="translate(-25.481 -56.5)"/>
      <path id="Path_3435" data-name="Path 3435" class="cls-1" d="M76.4,57.894A1.361,1.361,0,0,1,77.794,56.5h0a1.361,1.361,0,0,1,1.394,1.394h0a1.361,1.361,0,0,1-1.394,1.394h0A1.361,1.361,0,0,1,76.4,57.894Z" transform="translate(-25.434 -56.5)"/>
      <path id="Path_3436" data-name="Path 3436" class="cls-1" d="M66.2,57.894A1.361,1.361,0,0,1,67.594,56.5h0a1.361,1.361,0,0,1,1.394,1.394h0a1.361,1.361,0,0,1-1.394,1.394h0A1.361,1.361,0,0,1,66.2,57.894Z" transform="translate(-25.387 -56.5)"/>
      <path id="Path_3437" data-name="Path 3437" class="cls-1" d="M55.9,57.894A1.361,1.361,0,0,1,57.294,56.5h0a1.361,1.361,0,0,1,1.394,1.394h0a1.361,1.361,0,0,1-1.394,1.394h0A1.361,1.361,0,0,1,55.9,57.894Z" transform="translate(-25.34 -56.5)"/>
      <path id="Path_3438" data-name="Path 3438" class="cls-1" d="M45.7,57.894A1.361,1.361,0,0,1,47.094,56.5h0a1.361,1.361,0,0,1,1.394,1.394h0a1.361,1.361,0,0,1-1.394,1.394h0A1.361,1.361,0,0,1,45.7,57.894Z" transform="translate(-25.294 -56.5)"/>
      <path id="Path_3439" data-name="Path 3439" class="cls-1" d="M35.4,57.894A1.361,1.361,0,0,1,36.794,56.5h0a1.361,1.361,0,0,1,1.394,1.394h0a1.361,1.361,0,0,1-1.394,1.394h0A1.361,1.361,0,0,1,35.4,57.894Z" transform="translate(-25.247 -56.5)"/>
      <path id="Path_3440" data-name="Path 3440" class="cls-1" d="M25.2,57.894A1.361,1.361,0,0,1,26.594,56.5h0a1.361,1.361,0,0,1,1.394,1.394h0a1.361,1.361,0,0,1-1.394,1.394h0A1.361,1.361,0,0,1,25.2,57.894Z" transform="translate(-25.2 -56.5)"/>
    </g>
    <g id="Group_139" data-name="Group 139">
      <path id="Path_3441" data-name="Path 3441" class="cls-1" d="M194.3,51.694a1.361,1.361,0,0,1,1.394-1.394h0a1.361,1.361,0,0,1,1.394,1.394h0a1.361,1.361,0,0,1-1.394,1.394h0a1.306,1.306,0,0,1-1.394-1.394Z" transform="translate(-20.795 -50.3)"/>
      <path id="Path_3442" data-name="Path 3442" class="cls-1" d="M184,51.694a1.361,1.361,0,0,1,1.394-1.394h0a1.361,1.361,0,0,1,1.394,1.394h0a1.361,1.361,0,0,1-1.394,1.394h0A1.306,1.306,0,0,1,184,51.694Z" transform="translate(-20.748 -50.3)"/>
      <path id="Path_3443" data-name="Path 3443" class="cls-1" d="M173.8,51.694a1.361,1.361,0,0,1,1.394-1.394h0a1.361,1.361,0,0,1,1.394,1.394h0a1.361,1.361,0,0,1-1.394,1.394h0a1.306,1.306,0,0,1-1.394-1.394Z" transform="translate(-20.702 -50.3)"/>
      <path id="Path_3444" data-name="Path 3444" class="cls-1" d="M163.5,51.694a1.361,1.361,0,0,1,1.394-1.394h0a1.361,1.361,0,0,1,1.394,1.394h0a1.361,1.361,0,0,1-1.394,1.394h0a1.306,1.306,0,0,1-1.394-1.394Z" transform="translate(-20.655 -50.3)"/>
      <path id="Path_3445" data-name="Path 3445" class="cls-1" d="M153.3,51.694a1.361,1.361,0,0,1,1.394-1.394h0a1.361,1.361,0,0,1,1.394,1.394h0a1.361,1.361,0,0,1-1.394,1.394h0a1.306,1.306,0,0,1-1.394-1.394Z" transform="translate(-20.608 -50.3)"/>
      <path id="Path_3446" data-name="Path 3446" class="cls-1" d="M143,51.694a1.361,1.361,0,0,1,1.394-1.394h0a1.361,1.361,0,0,1,1.394,1.394h0a1.361,1.361,0,0,1-1.394,1.394h0A1.306,1.306,0,0,1,143,51.694Z" transform="translate(-20.561 -50.3)"/>
      <path id="Path_3447" data-name="Path 3447" class="cls-1" d="M132.8,51.694a1.361,1.361,0,0,1,1.394-1.394h0a1.361,1.361,0,0,1,1.394,1.394h0a1.361,1.361,0,0,1-1.394,1.394h0a1.306,1.306,0,0,1-1.394-1.394Z" transform="translate(-20.515 -50.3)"/>
      <path id="Path_3448" data-name="Path 3448" class="cls-1" d="M122.5,51.694a1.361,1.361,0,0,1,1.394-1.394h0a1.361,1.361,0,0,1,1.394,1.394h0a1.361,1.361,0,0,1-1.394,1.394h0a1.359,1.359,0,0,1-1.394-1.394Z" transform="translate(-20.468 -50.3)"/>
      <path id="Path_3449" data-name="Path 3449" class="cls-1" d="M112.3,51.694a1.361,1.361,0,0,1,1.394-1.394h0a1.361,1.361,0,0,1,1.394,1.394h0a1.361,1.361,0,0,1-1.394,1.394h0a1.306,1.306,0,0,1-1.394-1.394Z" transform="translate(-20.421 -50.3)"/>
      <path id="Path_3450" data-name="Path 3450" class="cls-1" d="M102,51.694a1.361,1.361,0,0,1,1.394-1.394h0a1.361,1.361,0,0,1,1.394,1.394h0a1.361,1.361,0,0,1-1.394,1.394h0A1.359,1.359,0,0,1,102,51.694Z" transform="translate(-20.374 -50.3)"/>
      <path id="Path_3451" data-name="Path 3451" class="cls-1" d="M91.8,51.694A1.361,1.361,0,0,1,93.194,50.3h0a1.361,1.361,0,0,1,1.394,1.394h0a1.361,1.361,0,0,1-1.394,1.394h0A1.306,1.306,0,0,1,91.8,51.694Z" transform="translate(-20.328 -50.3)"/>
      <path id="Path_3452" data-name="Path 3452" class="cls-1" d="M81.5,51.694A1.361,1.361,0,0,1,82.894,50.3h0a1.361,1.361,0,0,1,1.394,1.394h0a1.361,1.361,0,0,1-1.394,1.394h0A1.359,1.359,0,0,1,81.5,51.694Z" transform="translate(-20.281 -50.3)"/>
      <path id="Path_3453" data-name="Path 3453" class="cls-1" d="M71.3,51.694A1.361,1.361,0,0,1,72.694,50.3h0a1.361,1.361,0,0,1,1.394,1.394h0a1.361,1.361,0,0,1-1.394,1.394h0A1.306,1.306,0,0,1,71.3,51.694Z" transform="translate(-20.234 -50.3)"/>
      <path id="Path_3454" data-name="Path 3454" class="cls-1" d="M61,51.694A1.361,1.361,0,0,1,62.394,50.3h0a1.361,1.361,0,0,1,1.394,1.394h0a1.361,1.361,0,0,1-1.394,1.394h0A1.359,1.359,0,0,1,61,51.694Z" transform="translate(-20.187 -50.3)"/>
      <path id="Path_3455" data-name="Path 3455" class="cls-1" d="M50.8,51.694A1.361,1.361,0,0,1,52.194,50.3h0a1.361,1.361,0,0,1,1.394,1.394h0a1.361,1.361,0,0,1-1.394,1.394h0A1.306,1.306,0,0,1,50.8,51.694Z" transform="translate(-20.141 -50.3)"/>
      <path id="Path_3456" data-name="Path 3456" class="cls-1" d="M40.5,51.694A1.361,1.361,0,0,1,41.894,50.3h0a1.361,1.361,0,0,1,1.394,1.394h0a1.361,1.361,0,0,1-1.394,1.394h0A1.359,1.359,0,0,1,40.5,51.694Z" transform="translate(-20.094 -50.3)"/>
      <path id="Path_3457" data-name="Path 3457" class="cls-1" d="M30.3,51.694A1.361,1.361,0,0,1,31.694,50.3h0a1.361,1.361,0,0,1,1.394,1.394h0a1.361,1.361,0,0,1-1.394,1.394h0A1.306,1.306,0,0,1,30.3,51.694Z" transform="translate(-20.047 -50.3)"/>
      <path id="Path_3458" data-name="Path 3458" class="cls-1" d="M20,51.694A1.361,1.361,0,0,1,21.394,50.3h0a1.361,1.361,0,0,1,1.394,1.394h0a1.361,1.361,0,0,1-1.394,1.394h0A1.359,1.359,0,0,1,20,51.694Z" transform="translate(-20 -50.3)"/>
    </g>
  </g>
</svg>
