<svg xmlns="http://www.w3.org/2000/svg" viewBox="0 0 115.09 237.834">
  <defs>
    <style>
      .cls-1 {
        fill: #f6f6f6;
      }
    </style>
  </defs>
  <g id="Group_178" data-name="Group 178" transform="translate(0 237.834) rotate(-90)">
    <g id="Group_125" data-name="Group 125" transform="translate(0 111.33)">
      <path id="Path_3196" data-name="Path 3196" class="cls-1" d="M194.3,135.08a1.836,1.836,0,0,1,1.88-1.88h0a1.836,1.836,0,0,1,1.88,1.88h0a1.836,1.836,0,0,1-1.88,1.88h0a1.921,1.921,0,0,1-1.88-1.88Z" transform="translate(39.774 -133.2)"/>
      <path id="Path_3197" data-name="Path 3197" class="cls-1" d="M184,135.08a1.836,1.836,0,0,1,1.88-1.88h0a1.836,1.836,0,0,1,1.88,1.88h0a1.836,1.836,0,0,1-1.88,1.88h0a1.921,1.921,0,0,1-1.88-1.88Z" transform="translate(36.242 -133.2)"/>
      <path id="Path_3198" data-name="Path 3198" class="cls-1" d="M173.8,135.08a1.836,1.836,0,0,1,1.88-1.88h0a1.836,1.836,0,0,1,1.88,1.88h0a1.836,1.836,0,0,1-1.88,1.88h0a1.921,1.921,0,0,1-1.88-1.88Z" transform="translate(32.744 -133.2)"/>
      <path id="Path_3199" data-name="Path 3199" class="cls-1" d="M163.5,135.08a1.836,1.836,0,0,1,1.88-1.88h0a1.836,1.836,0,0,1,1.88,1.88h0a1.836,1.836,0,0,1-1.88,1.88h0a1.921,1.921,0,0,1-1.88-1.88Z" transform="translate(29.211 -133.2)"/>
      <path id="Path_3200" data-name="Path 3200" class="cls-1" d="M153.3,135.08a1.836,1.836,0,0,1,1.88-1.88h0a1.836,1.836,0,0,1,1.88,1.88h0a1.836,1.836,0,0,1-1.88,1.88h0a1.921,1.921,0,0,1-1.88-1.88Z" transform="translate(25.714 -133.2)"/>
      <path id="Path_3201" data-name="Path 3201" class="cls-1" d="M143,135.08a1.836,1.836,0,0,1,1.88-1.88h0a1.836,1.836,0,0,1,1.88,1.88h0a1.836,1.836,0,0,1-1.88,1.88h0a1.921,1.921,0,0,1-1.88-1.88Z" transform="translate(22.181 -133.2)"/>
      <path id="Path_3202" data-name="Path 3202" class="cls-1" d="M132.8,135.08a1.836,1.836,0,0,1,1.88-1.88h0a1.836,1.836,0,0,1,1.88,1.88h0a1.836,1.836,0,0,1-1.88,1.88h0a1.921,1.921,0,0,1-1.88-1.88Z" transform="translate(18.683 -133.2)"/>
      <path id="Path_3203" data-name="Path 3203" class="cls-1" d="M122.5,135.08a1.836,1.836,0,0,1,1.88-1.88h0a1.836,1.836,0,0,1,1.88,1.88h0a1.836,1.836,0,0,1-1.88,1.88h0a2.022,2.022,0,0,1-1.88-1.88Z" transform="translate(15.151 -133.2)"/>
      <path id="Path_3204" data-name="Path 3204" class="cls-1" d="M112.3,135.08a1.836,1.836,0,0,1,1.88-1.88h0a1.836,1.836,0,0,1,1.88,1.88h0a1.836,1.836,0,0,1-1.88,1.88h0a1.921,1.921,0,0,1-1.88-1.88Z" transform="translate(11.653 -133.2)"/>
      <path id="Path_3205" data-name="Path 3205" class="cls-1" d="M102,135.08a1.836,1.836,0,0,1,1.88-1.88h0a1.836,1.836,0,0,1,1.88,1.88h0a1.836,1.836,0,0,1-1.88,1.88h0a2.022,2.022,0,0,1-1.88-1.88Z" transform="translate(8.121 -133.2)"/>
      <path id="Path_3206" data-name="Path 3206" class="cls-1" d="M91.8,135.08a1.836,1.836,0,0,1,1.88-1.88h0a1.836,1.836,0,0,1,1.88,1.88h0a1.836,1.836,0,0,1-1.88,1.88h0a1.921,1.921,0,0,1-1.88-1.88Z" transform="translate(4.623 -133.2)"/>
      <path id="Path_3207" data-name="Path 3207" class="cls-1" d="M81.5,135.08a1.836,1.836,0,0,1,1.88-1.88h0a1.836,1.836,0,0,1,1.88,1.88h0a1.836,1.836,0,0,1-1.88,1.88h0a2.022,2.022,0,0,1-1.88-1.88Z" transform="translate(1.091 -133.2)"/>
      <path id="Path_3208" data-name="Path 3208" class="cls-1" d="M71.3,135.08a1.836,1.836,0,0,1,1.88-1.88h0a1.836,1.836,0,0,1,1.88,1.88h0a1.836,1.836,0,0,1-1.88,1.88h0a1.921,1.921,0,0,1-1.88-1.88Z" transform="translate(-2.407 -133.2)"/>
      <path id="Path_3209" data-name="Path 3209" class="cls-1" d="M61,135.08a1.836,1.836,0,0,1,1.88-1.88h0a1.836,1.836,0,0,1,1.88,1.88h0a1.836,1.836,0,0,1-1.88,1.88h0A2.022,2.022,0,0,1,61,135.08Z" transform="translate(-5.94 -133.2)"/>
      <path id="Path_3210" data-name="Path 3210" class="cls-1" d="M50.8,135.08a1.836,1.836,0,0,1,1.88-1.88h0a1.836,1.836,0,0,1,1.88,1.88h0a1.836,1.836,0,0,1-1.88,1.88h0a1.921,1.921,0,0,1-1.88-1.88Z" transform="translate(-9.438 -133.2)"/>
      <path id="Path_3211" data-name="Path 3211" class="cls-1" d="M40.5,135.08a1.836,1.836,0,0,1,1.88-1.88h0a1.836,1.836,0,0,1,1.88,1.88h0a1.836,1.836,0,0,1-1.88,1.88h0a2.022,2.022,0,0,1-1.88-1.88Z" transform="translate(-12.97 -133.2)"/>
      <path id="Path_3212" data-name="Path 3212" class="cls-1" d="M30.3,135.08a1.836,1.836,0,0,1,1.88-1.88h0a1.836,1.836,0,0,1,1.88,1.88h0a1.836,1.836,0,0,1-1.88,1.88h0a1.921,1.921,0,0,1-1.88-1.88Z" transform="translate(-16.468 -133.2)"/>
      <path id="Path_3213" data-name="Path 3213" class="cls-1" d="M20,135.08a1.836,1.836,0,0,1,1.88-1.88h0a1.836,1.836,0,0,1,1.88,1.88h0a1.836,1.836,0,0,1-1.88,1.88h0A2.022,2.022,0,0,1,20,135.08Z" transform="translate(-20 -133.2)"/>
    </g>
    <g id="Group_126" data-name="Group 126" transform="translate(6.983 103.675)">
      <path id="Path_3214" data-name="Path 3214" class="cls-1" d="M189.1,129.38a1.836,1.836,0,0,1,1.88-1.88h0a1.836,1.836,0,0,1,1.88,1.88h0a1.836,1.836,0,0,1-1.88,1.88h0a1.921,1.921,0,0,1-1.88-1.88Z" transform="translate(31.007 -127.5)"/>
      <path id="Path_3215" data-name="Path 3215" class="cls-1" d="M178.9,129.38a1.836,1.836,0,0,1,1.88-1.88h0a1.836,1.836,0,0,1,1.88,1.88h0a1.836,1.836,0,0,1-1.88,1.88h0a1.836,1.836,0,0,1-1.88-1.88Z" transform="translate(27.509 -127.5)"/>
      <path id="Path_3216" data-name="Path 3216" class="cls-1" d="M168.6,129.38a1.836,1.836,0,0,1,1.88-1.88h0a1.836,1.836,0,0,1,1.88,1.88h0a1.836,1.836,0,0,1-1.88,1.88h0a1.921,1.921,0,0,1-1.88-1.88Z" transform="translate(23.977 -127.5)"/>
      <path id="Path_3217" data-name="Path 3217" class="cls-1" d="M158.4,129.38a1.836,1.836,0,0,1,1.88-1.88h0a1.836,1.836,0,0,1,1.88,1.88h0a1.836,1.836,0,0,1-1.88,1.88h0a1.836,1.836,0,0,1-1.88-1.88Z" transform="translate(20.479 -127.5)"/>
      <path id="Path_3218" data-name="Path 3218" class="cls-1" d="M148.1,129.38a1.836,1.836,0,0,1,1.88-1.88h0a1.836,1.836,0,0,1,1.88,1.88h0a1.836,1.836,0,0,1-1.88,1.88h0a1.921,1.921,0,0,1-1.88-1.88Z" transform="translate(16.947 -127.5)"/>
      <path id="Path_3219" data-name="Path 3219" class="cls-1" d="M137.9,129.38a1.836,1.836,0,0,1,1.88-1.88h0a1.836,1.836,0,0,1,1.88,1.88h0a1.836,1.836,0,0,1-1.88,1.88h0a1.836,1.836,0,0,1-1.88-1.88Z" transform="translate(13.449 -127.5)"/>
      <path id="Path_3220" data-name="Path 3220" class="cls-1" d="M127.6,129.38a1.836,1.836,0,0,1,1.88-1.88h0a1.836,1.836,0,0,1,1.88,1.88h0a1.836,1.836,0,0,1-1.88,1.88h0a1.921,1.921,0,0,1-1.88-1.88Z" transform="translate(9.917 -127.5)"/>
      <path id="Path_3221" data-name="Path 3221" class="cls-1" d="M117.4,129.38a1.836,1.836,0,0,1,1.88-1.88h0a1.836,1.836,0,0,1,1.88,1.88h0a1.836,1.836,0,0,1-1.88,1.88h0a1.836,1.836,0,0,1-1.88-1.88Z" transform="translate(6.419 -127.5)"/>
      <path id="Path_3222" data-name="Path 3222" class="cls-1" d="M107.1,129.38a1.836,1.836,0,0,1,1.88-1.88h0a1.836,1.836,0,0,1,1.88,1.88h0a1.836,1.836,0,0,1-1.88,1.88h0a1.921,1.921,0,0,1-1.88-1.88Z" transform="translate(2.887 -127.5)"/>
      <path id="Path_3223" data-name="Path 3223" class="cls-1" d="M96.9,129.38a1.836,1.836,0,0,1,1.88-1.88h0a1.836,1.836,0,0,1,1.88,1.88h0a1.836,1.836,0,0,1-1.88,1.88h0a1.836,1.836,0,0,1-1.88-1.88Z" transform="translate(-0.611 -127.5)"/>
      <path id="Path_3224" data-name="Path 3224" class="cls-1" d="M86.7,129.38a1.836,1.836,0,0,1,1.88-1.88h0a1.836,1.836,0,0,1,1.88,1.88h0a1.836,1.836,0,0,1-1.88,1.88h0a1.836,1.836,0,0,1-1.88-1.88Z" transform="translate(-4.109 -127.5)"/>
      <path id="Path_3225" data-name="Path 3225" class="cls-1" d="M76.4,129.38a1.836,1.836,0,0,1,1.88-1.88h0a1.836,1.836,0,0,1,1.88,1.88h0a1.836,1.836,0,0,1-1.88,1.88h0a1.836,1.836,0,0,1-1.88-1.88Z" transform="translate(-7.642 -127.5)"/>
      <path id="Path_3226" data-name="Path 3226" class="cls-1" d="M66.2,129.38a1.836,1.836,0,0,1,1.88-1.88h0a1.836,1.836,0,0,1,1.88,1.88h0a1.836,1.836,0,0,1-1.88,1.88h0a1.836,1.836,0,0,1-1.88-1.88Z" transform="translate(-11.14 -127.5)"/>
      <path id="Path_3227" data-name="Path 3227" class="cls-1" d="M55.9,129.38a1.836,1.836,0,0,1,1.88-1.88h0a1.836,1.836,0,0,1,1.88,1.88h0a1.836,1.836,0,0,1-1.88,1.88h0a1.836,1.836,0,0,1-1.88-1.88Z" transform="translate(-14.672 -127.5)"/>
      <path id="Path_3228" data-name="Path 3228" class="cls-1" d="M45.7,129.38a1.836,1.836,0,0,1,1.88-1.88h0a1.836,1.836,0,0,1,1.88,1.88h0a1.836,1.836,0,0,1-1.88,1.88h0a1.836,1.836,0,0,1-1.88-1.88Z" transform="translate(-18.17 -127.5)"/>
      <path id="Path_3229" data-name="Path 3229" class="cls-1" d="M35.4,129.38a1.836,1.836,0,0,1,1.88-1.88h0a1.836,1.836,0,0,1,1.88,1.88h0a1.836,1.836,0,0,1-1.88,1.88h0a1.836,1.836,0,0,1-1.88-1.88Z" transform="translate(-21.702 -127.5)"/>
      <path id="Path_3230" data-name="Path 3230" class="cls-1" d="M25.2,129.38a1.836,1.836,0,0,1,1.88-1.88h0a1.836,1.836,0,0,1,1.88,1.88h0a1.836,1.836,0,0,1-1.88,1.88h0a1.836,1.836,0,0,1-1.88-1.88Z" transform="translate(-25.2 -127.5)"/>
    </g>
    <g id="Group_127" data-name="Group 127" transform="translate(0 95.349)">
      <path id="Path_3231" data-name="Path 3231" class="cls-1" d="M194.3,123.18a1.836,1.836,0,0,1,1.88-1.88h0a1.836,1.836,0,0,1,1.88,1.88h0a1.836,1.836,0,0,1-1.88,1.88h0a1.836,1.836,0,0,1-1.88-1.88Z" transform="translate(39.774 -121.3)"/>
      <path id="Path_3232" data-name="Path 3232" class="cls-1" d="M184,123.18a1.836,1.836,0,0,1,1.88-1.88h0a1.836,1.836,0,0,1,1.88,1.88h0a1.836,1.836,0,0,1-1.88,1.88h0a1.836,1.836,0,0,1-1.88-1.88Z" transform="translate(36.242 -121.3)"/>
      <path id="Path_3233" data-name="Path 3233" class="cls-1" d="M173.8,123.18a1.836,1.836,0,0,1,1.88-1.88h0a1.836,1.836,0,0,1,1.88,1.88h0a1.836,1.836,0,0,1-1.88,1.88h0a1.836,1.836,0,0,1-1.88-1.88Z" transform="translate(32.744 -121.3)"/>
      <path id="Path_3234" data-name="Path 3234" class="cls-1" d="M163.5,123.18a1.836,1.836,0,0,1,1.88-1.88h0a1.836,1.836,0,0,1,1.88,1.88h0a1.836,1.836,0,0,1-1.88,1.88h0a1.836,1.836,0,0,1-1.88-1.88Z" transform="translate(29.211 -121.3)"/>
      <path id="Path_3235" data-name="Path 3235" class="cls-1" d="M153.3,123.18a1.836,1.836,0,0,1,1.88-1.88h0a1.836,1.836,0,0,1,1.88,1.88h0a1.836,1.836,0,0,1-1.88,1.88h0a1.836,1.836,0,0,1-1.88-1.88Z" transform="translate(25.714 -121.3)"/>
      <path id="Path_3236" data-name="Path 3236" class="cls-1" d="M143,123.18a1.836,1.836,0,0,1,1.88-1.88h0a1.836,1.836,0,0,1,1.88,1.88h0a1.836,1.836,0,0,1-1.88,1.88h0a1.836,1.836,0,0,1-1.88-1.88Z" transform="translate(22.181 -121.3)"/>
      <path id="Path_3237" data-name="Path 3237" class="cls-1" d="M132.8,123.18a1.836,1.836,0,0,1,1.88-1.88h0a1.836,1.836,0,0,1,1.88,1.88h0a1.836,1.836,0,0,1-1.88,1.88h0a1.836,1.836,0,0,1-1.88-1.88Z" transform="translate(18.683 -121.3)"/>
      <path id="Path_3238" data-name="Path 3238" class="cls-1" d="M122.5,123.18a1.836,1.836,0,0,1,1.88-1.88h0a1.836,1.836,0,0,1,1.88,1.88h0a1.836,1.836,0,0,1-1.88,1.88h0a1.921,1.921,0,0,1-1.88-1.88Z" transform="translate(15.151 -121.3)"/>
      <path id="Path_3239" data-name="Path 3239" class="cls-1" d="M112.3,123.18a1.836,1.836,0,0,1,1.88-1.88h0a1.836,1.836,0,0,1,1.88,1.88h0a1.836,1.836,0,0,1-1.88,1.88h0a1.836,1.836,0,0,1-1.88-1.88Z" transform="translate(11.653 -121.3)"/>
      <path id="Path_3240" data-name="Path 3240" class="cls-1" d="M102,123.18a1.836,1.836,0,0,1,1.88-1.88h0a1.836,1.836,0,0,1,1.88,1.88h0a1.836,1.836,0,0,1-1.88,1.88h0a1.921,1.921,0,0,1-1.88-1.88Z" transform="translate(8.121 -121.3)"/>
      <path id="Path_3241" data-name="Path 3241" class="cls-1" d="M91.8,123.18a1.836,1.836,0,0,1,1.88-1.88h0a1.836,1.836,0,0,1,1.88,1.88h0a1.836,1.836,0,0,1-1.88,1.88h0a1.836,1.836,0,0,1-1.88-1.88Z" transform="translate(4.623 -121.3)"/>
      <path id="Path_3242" data-name="Path 3242" class="cls-1" d="M81.5,123.18a1.836,1.836,0,0,1,1.88-1.88h0a1.836,1.836,0,0,1,1.88,1.88h0a1.836,1.836,0,0,1-1.88,1.88h0a1.921,1.921,0,0,1-1.88-1.88Z" transform="translate(1.091 -121.3)"/>
      <path id="Path_3243" data-name="Path 3243" class="cls-1" d="M71.3,123.18a1.836,1.836,0,0,1,1.88-1.88h0a1.836,1.836,0,0,1,1.88,1.88h0a1.836,1.836,0,0,1-1.88,1.88h0a1.836,1.836,0,0,1-1.88-1.88Z" transform="translate(-2.407 -121.3)"/>
      <path id="Path_3244" data-name="Path 3244" class="cls-1" d="M61,123.18a1.836,1.836,0,0,1,1.88-1.88h0a1.836,1.836,0,0,1,1.88,1.88h0a1.836,1.836,0,0,1-1.88,1.88h0A1.921,1.921,0,0,1,61,123.18Z" transform="translate(-5.94 -121.3)"/>
      <path id="Path_3245" data-name="Path 3245" class="cls-1" d="M50.8,123.18a1.836,1.836,0,0,1,1.88-1.88h0a1.836,1.836,0,0,1,1.88,1.88h0a1.836,1.836,0,0,1-1.88,1.88h0a1.836,1.836,0,0,1-1.88-1.88Z" transform="translate(-9.438 -121.3)"/>
      <path id="Path_3246" data-name="Path 3246" class="cls-1" d="M40.5,123.18a1.836,1.836,0,0,1,1.88-1.88h0a1.836,1.836,0,0,1,1.88,1.88h0a1.836,1.836,0,0,1-1.88,1.88h0a1.921,1.921,0,0,1-1.88-1.88Z" transform="translate(-12.97 -121.3)"/>
      <path id="Path_3247" data-name="Path 3247" class="cls-1" d="M30.3,123.18a1.836,1.836,0,0,1,1.88-1.88h0a1.836,1.836,0,0,1,1.88,1.88h0a1.836,1.836,0,0,1-1.88,1.88h0a1.836,1.836,0,0,1-1.88-1.88Z" transform="translate(-16.468 -121.3)"/>
      <path id="Path_3248" data-name="Path 3248" class="cls-1" d="M20,123.18a1.836,1.836,0,0,1,1.88-1.88h0a1.836,1.836,0,0,1,1.88,1.88h0a1.836,1.836,0,0,1-1.88,1.88h0A1.921,1.921,0,0,1,20,123.18Z" transform="translate(-20 -121.3)"/>
    </g>
    <g id="Group_128" data-name="Group 128" transform="translate(6.983 87.828)">
      <path id="Path_3249" data-name="Path 3249" class="cls-1" d="M189.1,117.58a1.836,1.836,0,0,1,1.88-1.88h0a1.836,1.836,0,0,1,1.88,1.88h0a1.836,1.836,0,0,1-1.88,1.88h0a2.022,2.022,0,0,1-1.88-1.88Z" transform="translate(31.007 -115.7)"/>
      <path id="Path_3250" data-name="Path 3250" class="cls-1" d="M178.9,117.58a1.836,1.836,0,0,1,1.88-1.88h0a1.836,1.836,0,0,1,1.88,1.88h0a1.836,1.836,0,0,1-1.88,1.88h0a1.921,1.921,0,0,1-1.88-1.88Z" transform="translate(27.509 -115.7)"/>
      <path id="Path_3251" data-name="Path 3251" class="cls-1" d="M168.6,117.58a1.836,1.836,0,0,1,1.88-1.88h0a1.836,1.836,0,0,1,1.88,1.88h0a1.836,1.836,0,0,1-1.88,1.88h0a2.022,2.022,0,0,1-1.88-1.88Z" transform="translate(23.977 -115.7)"/>
      <path id="Path_3252" data-name="Path 3252" class="cls-1" d="M158.4,117.58a1.836,1.836,0,0,1,1.88-1.88h0a1.836,1.836,0,0,1,1.88,1.88h0a1.836,1.836,0,0,1-1.88,1.88h0a1.921,1.921,0,0,1-1.88-1.88Z" transform="translate(20.479 -115.7)"/>
      <path id="Path_3253" data-name="Path 3253" class="cls-1" d="M148.1,117.58a1.836,1.836,0,0,1,1.88-1.88h0a1.836,1.836,0,0,1,1.88,1.88h0a1.836,1.836,0,0,1-1.88,1.88h0a2.022,2.022,0,0,1-1.88-1.88Z" transform="translate(16.947 -115.7)"/>
      <path id="Path_3254" data-name="Path 3254" class="cls-1" d="M137.9,117.58a1.836,1.836,0,0,1,1.88-1.88h0a1.836,1.836,0,0,1,1.88,1.88h0a1.836,1.836,0,0,1-1.88,1.88h0a1.921,1.921,0,0,1-1.88-1.88Z" transform="translate(13.449 -115.7)"/>
      <path id="Path_3255" data-name="Path 3255" class="cls-1" d="M127.6,117.58a1.836,1.836,0,0,1,1.88-1.88h0a1.836,1.836,0,0,1,1.88,1.88h0a1.836,1.836,0,0,1-1.88,1.88h0a2.022,2.022,0,0,1-1.88-1.88Z" transform="translate(9.917 -115.7)"/>
      <path id="Path_3256" data-name="Path 3256" class="cls-1" d="M117.4,117.58a1.836,1.836,0,0,1,1.88-1.88h0a1.836,1.836,0,0,1,1.88,1.88h0a1.836,1.836,0,0,1-1.88,1.88h0a1.921,1.921,0,0,1-1.88-1.88Z" transform="translate(6.419 -115.7)"/>
      <path id="Path_3257" data-name="Path 3257" class="cls-1" d="M107.1,117.58a1.836,1.836,0,0,1,1.88-1.88h0a1.836,1.836,0,0,1,1.88,1.88h0a1.836,1.836,0,0,1-1.88,1.88h0a2.022,2.022,0,0,1-1.88-1.88Z" transform="translate(2.887 -115.7)"/>
      <path id="Path_3258" data-name="Path 3258" class="cls-1" d="M96.9,117.58a1.836,1.836,0,0,1,1.88-1.88h0a1.836,1.836,0,0,1,1.88,1.88h0a1.836,1.836,0,0,1-1.88,1.88h0a1.921,1.921,0,0,1-1.88-1.88Z" transform="translate(-0.611 -115.7)"/>
      <path id="Path_3259" data-name="Path 3259" class="cls-1" d="M86.7,117.58a1.836,1.836,0,0,1,1.88-1.88h0a1.836,1.836,0,0,1,1.88,1.88h0a1.836,1.836,0,0,1-1.88,1.88h0a1.921,1.921,0,0,1-1.88-1.88Z" transform="translate(-4.109 -115.7)"/>
      <path id="Path_3260" data-name="Path 3260" class="cls-1" d="M76.4,117.58a1.836,1.836,0,0,1,1.88-1.88h0a1.836,1.836,0,0,1,1.88,1.88h0a1.836,1.836,0,0,1-1.88,1.88h0a1.921,1.921,0,0,1-1.88-1.88Z" transform="translate(-7.642 -115.7)"/>
      <path id="Path_3261" data-name="Path 3261" class="cls-1" d="M66.2,117.58a1.836,1.836,0,0,1,1.88-1.88h0a1.836,1.836,0,0,1,1.88,1.88h0a1.836,1.836,0,0,1-1.88,1.88h0a1.921,1.921,0,0,1-1.88-1.88Z" transform="translate(-11.14 -115.7)"/>
      <path id="Path_3262" data-name="Path 3262" class="cls-1" d="M55.9,117.58a1.836,1.836,0,0,1,1.88-1.88h0a1.836,1.836,0,0,1,1.88,1.88h0a1.836,1.836,0,0,1-1.88,1.88h0a1.921,1.921,0,0,1-1.88-1.88Z" transform="translate(-14.672 -115.7)"/>
      <path id="Path_3263" data-name="Path 3263" class="cls-1" d="M45.7,117.58a1.836,1.836,0,0,1,1.88-1.88h0a1.836,1.836,0,0,1,1.88,1.88h0a1.836,1.836,0,0,1-1.88,1.88h0a1.921,1.921,0,0,1-1.88-1.88Z" transform="translate(-18.17 -115.7)"/>
      <path id="Path_3264" data-name="Path 3264" class="cls-1" d="M35.4,117.58a1.836,1.836,0,0,1,1.88-1.88h0a1.836,1.836,0,0,1,1.88,1.88h0a1.836,1.836,0,0,1-1.88,1.88h0a1.921,1.921,0,0,1-1.88-1.88Z" transform="translate(-21.702 -115.7)"/>
      <path id="Path_3265" data-name="Path 3265" class="cls-1" d="M25.2,117.58a1.836,1.836,0,0,1,1.88-1.88h0a1.836,1.836,0,0,1,1.88,1.88h0a1.836,1.836,0,0,1-1.88,1.88h0a1.921,1.921,0,0,1-1.88-1.88Z" transform="translate(-25.2 -115.7)"/>
    </g>
    <g id="Group_129" data-name="Group 129" transform="translate(0 79.502)">
      <path id="Path_3266" data-name="Path 3266" class="cls-1" d="M194.3,111.38a1.836,1.836,0,0,1,1.88-1.88h0a1.836,1.836,0,0,1,1.88,1.88h0a1.836,1.836,0,0,1-1.88,1.88h0a1.836,1.836,0,0,1-1.88-1.88Z" transform="translate(39.774 -109.5)"/>
      <path id="Path_3267" data-name="Path 3267" class="cls-1" d="M184,111.38a1.836,1.836,0,0,1,1.88-1.88h0a1.836,1.836,0,0,1,1.88,1.88h0a1.836,1.836,0,0,1-1.88,1.88h0a1.836,1.836,0,0,1-1.88-1.88Z" transform="translate(36.242 -109.5)"/>
      <path id="Path_3268" data-name="Path 3268" class="cls-1" d="M173.8,111.38a1.836,1.836,0,0,1,1.88-1.88h0a1.836,1.836,0,0,1,1.88,1.88h0a1.836,1.836,0,0,1-1.88,1.88h0a1.836,1.836,0,0,1-1.88-1.88Z" transform="translate(32.744 -109.5)"/>
      <path id="Path_3269" data-name="Path 3269" class="cls-1" d="M163.5,111.38a1.836,1.836,0,0,1,1.88-1.88h0a1.836,1.836,0,0,1,1.88,1.88h0a1.836,1.836,0,0,1-1.88,1.88h0a1.836,1.836,0,0,1-1.88-1.88Z" transform="translate(29.211 -109.5)"/>
      <path id="Path_3270" data-name="Path 3270" class="cls-1" d="M153.3,111.38a1.836,1.836,0,0,1,1.88-1.88h0a1.836,1.836,0,0,1,1.88,1.88h0a1.836,1.836,0,0,1-1.88,1.88h0a1.836,1.836,0,0,1-1.88-1.88Z" transform="translate(25.714 -109.5)"/>
      <path id="Path_3271" data-name="Path 3271" class="cls-1" d="M143,111.38a1.836,1.836,0,0,1,1.88-1.88h0a1.836,1.836,0,0,1,1.88,1.88h0a1.836,1.836,0,0,1-1.88,1.88h0a1.836,1.836,0,0,1-1.88-1.88Z" transform="translate(22.181 -109.5)"/>
      <path id="Path_3272" data-name="Path 3272" class="cls-1" d="M132.8,111.38a1.836,1.836,0,0,1,1.88-1.88h0a1.836,1.836,0,0,1,1.88,1.88h0a1.836,1.836,0,0,1-1.88,1.88h0a1.836,1.836,0,0,1-1.88-1.88Z" transform="translate(18.683 -109.5)"/>
      <path id="Path_3273" data-name="Path 3273" class="cls-1" d="M122.5,111.38a1.836,1.836,0,0,1,1.88-1.88h0a1.836,1.836,0,0,1,1.88,1.88h0a1.836,1.836,0,0,1-1.88,1.88h0a1.921,1.921,0,0,1-1.88-1.88Z" transform="translate(15.151 -109.5)"/>
      <path id="Path_3274" data-name="Path 3274" class="cls-1" d="M112.3,111.38a1.836,1.836,0,0,1,1.88-1.88h0a1.836,1.836,0,0,1,1.88,1.88h0a1.836,1.836,0,0,1-1.88,1.88h0a1.836,1.836,0,0,1-1.88-1.88Z" transform="translate(11.653 -109.5)"/>
      <path id="Path_3275" data-name="Path 3275" class="cls-1" d="M102,111.38a1.836,1.836,0,0,1,1.88-1.88h0a1.836,1.836,0,0,1,1.88,1.88h0a1.836,1.836,0,0,1-1.88,1.88h0a1.921,1.921,0,0,1-1.88-1.88Z" transform="translate(8.121 -109.5)"/>
      <path id="Path_3276" data-name="Path 3276" class="cls-1" d="M91.8,111.38a1.836,1.836,0,0,1,1.88-1.88h0a1.836,1.836,0,0,1,1.88,1.88h0a1.836,1.836,0,0,1-1.88,1.88h0a1.836,1.836,0,0,1-1.88-1.88Z" transform="translate(4.623 -109.5)"/>
      <path id="Path_3277" data-name="Path 3277" class="cls-1" d="M81.5,111.38a1.836,1.836,0,0,1,1.88-1.88h0a1.836,1.836,0,0,1,1.88,1.88h0a1.836,1.836,0,0,1-1.88,1.88h0a1.921,1.921,0,0,1-1.88-1.88Z" transform="translate(1.091 -109.5)"/>
      <path id="Path_3278" data-name="Path 3278" class="cls-1" d="M71.3,111.38a1.836,1.836,0,0,1,1.88-1.88h0a1.836,1.836,0,0,1,1.88,1.88h0a1.836,1.836,0,0,1-1.88,1.88h0a1.836,1.836,0,0,1-1.88-1.88Z" transform="translate(-2.407 -109.5)"/>
      <path id="Path_3279" data-name="Path 3279" class="cls-1" d="M61,111.38a1.836,1.836,0,0,1,1.88-1.88h0a1.836,1.836,0,0,1,1.88,1.88h0a1.836,1.836,0,0,1-1.88,1.88h0A1.921,1.921,0,0,1,61,111.38Z" transform="translate(-5.94 -109.5)"/>
      <path id="Path_3280" data-name="Path 3280" class="cls-1" d="M50.8,111.38a1.836,1.836,0,0,1,1.88-1.88h0a1.836,1.836,0,0,1,1.88,1.88h0a1.836,1.836,0,0,1-1.88,1.88h0a1.836,1.836,0,0,1-1.88-1.88Z" transform="translate(-9.438 -109.5)"/>
      <path id="Path_3281" data-name="Path 3281" class="cls-1" d="M40.5,111.38a1.836,1.836,0,0,1,1.88-1.88h0a1.836,1.836,0,0,1,1.88,1.88h0a1.836,1.836,0,0,1-1.88,1.88h0a1.921,1.921,0,0,1-1.88-1.88Z" transform="translate(-12.97 -109.5)"/>
      <path id="Path_3282" data-name="Path 3282" class="cls-1" d="M30.3,111.38a1.836,1.836,0,0,1,1.88-1.88h0a1.836,1.836,0,0,1,1.88,1.88h0a1.836,1.836,0,0,1-1.88,1.88h0a1.836,1.836,0,0,1-1.88-1.88Z" transform="translate(-16.468 -109.5)"/>
      <path id="Path_3283" data-name="Path 3283" class="cls-1" d="M20,111.38a1.836,1.836,0,0,1,1.88-1.88h0a1.836,1.836,0,0,1,1.88,1.88h0a1.836,1.836,0,0,1-1.88,1.88h0A1.921,1.921,0,0,1,20,111.38Z" transform="translate(-20 -109.5)"/>
    </g>
    <g id="Group_130" data-name="Group 130" transform="translate(6.983 71.847)">
      <path id="Path_3284" data-name="Path 3284" class="cls-1" d="M189.1,105.68a1.836,1.836,0,0,1,1.88-1.88h0a1.836,1.836,0,0,1,1.88,1.88h0a1.836,1.836,0,0,1-1.88,1.88h0a1.833,1.833,0,0,1-1.88-1.88Z" transform="translate(31.007 -103.8)"/>
      <path id="Path_3285" data-name="Path 3285" class="cls-1" d="M178.9,105.68a1.836,1.836,0,0,1,1.88-1.88h0a1.836,1.836,0,0,1,1.88,1.88h0a1.836,1.836,0,0,1-1.88,1.88h0a1.762,1.762,0,0,1-1.88-1.88Z" transform="translate(27.509 -103.8)"/>
      <path id="Path_3286" data-name="Path 3286" class="cls-1" d="M168.6,105.68a1.836,1.836,0,0,1,1.88-1.88h0a1.836,1.836,0,0,1,1.88,1.88h0a1.836,1.836,0,0,1-1.88,1.88h0a1.833,1.833,0,0,1-1.88-1.88Z" transform="translate(23.977 -103.8)"/>
      <path id="Path_3287" data-name="Path 3287" class="cls-1" d="M158.4,105.68a1.836,1.836,0,0,1,1.88-1.88h0a1.836,1.836,0,0,1,1.88,1.88h0a1.836,1.836,0,0,1-1.88,1.88h0a1.762,1.762,0,0,1-1.88-1.88Z" transform="translate(20.479 -103.8)"/>
      <path id="Path_3288" data-name="Path 3288" class="cls-1" d="M148.1,105.68a1.836,1.836,0,0,1,1.88-1.88h0a1.836,1.836,0,0,1,1.88,1.88h0a1.836,1.836,0,0,1-1.88,1.88h0a1.833,1.833,0,0,1-1.88-1.88Z" transform="translate(16.947 -103.8)"/>
      <path id="Path_3289" data-name="Path 3289" class="cls-1" d="M137.9,105.68a1.836,1.836,0,0,1,1.88-1.88h0a1.836,1.836,0,0,1,1.88,1.88h0a1.836,1.836,0,0,1-1.88,1.88h0a1.762,1.762,0,0,1-1.88-1.88Z" transform="translate(13.449 -103.8)"/>
      <path id="Path_3290" data-name="Path 3290" class="cls-1" d="M127.6,105.68a1.836,1.836,0,0,1,1.88-1.88h0a1.836,1.836,0,0,1,1.88,1.88h0a1.836,1.836,0,0,1-1.88,1.88h0a1.833,1.833,0,0,1-1.88-1.88Z" transform="translate(9.917 -103.8)"/>
      <path id="Path_3291" data-name="Path 3291" class="cls-1" d="M117.4,105.68a1.836,1.836,0,0,1,1.88-1.88h0a1.836,1.836,0,0,1,1.88,1.88h0a1.836,1.836,0,0,1-1.88,1.88h0a1.762,1.762,0,0,1-1.88-1.88Z" transform="translate(6.419 -103.8)"/>
      <path id="Path_3292" data-name="Path 3292" class="cls-1" d="M107.1,105.68a1.836,1.836,0,0,1,1.88-1.88h0a1.836,1.836,0,0,1,1.88,1.88h0a1.836,1.836,0,0,1-1.88,1.88h0a1.833,1.833,0,0,1-1.88-1.88Z" transform="translate(2.887 -103.8)"/>
      <path id="Path_3293" data-name="Path 3293" class="cls-1" d="M96.9,105.68a1.836,1.836,0,0,1,1.88-1.88h0a1.836,1.836,0,0,1,1.88,1.88h0a1.836,1.836,0,0,1-1.88,1.88h0a1.762,1.762,0,0,1-1.88-1.88Z" transform="translate(-0.611 -103.8)"/>
      <path id="Path_3294" data-name="Path 3294" class="cls-1" d="M86.7,105.68a1.836,1.836,0,0,1,1.88-1.88h0a1.836,1.836,0,0,1,1.88,1.88h0a1.836,1.836,0,0,1-1.88,1.88h0a1.762,1.762,0,0,1-1.88-1.88Z" transform="translate(-4.109 -103.8)"/>
      <path id="Path_3295" data-name="Path 3295" class="cls-1" d="M76.4,105.68a1.836,1.836,0,0,1,1.88-1.88h0a1.836,1.836,0,0,1,1.88,1.88h0a1.836,1.836,0,0,1-1.88,1.88h0a1.762,1.762,0,0,1-1.88-1.88Z" transform="translate(-7.642 -103.8)"/>
      <path id="Path_3296" data-name="Path 3296" class="cls-1" d="M66.2,105.68a1.836,1.836,0,0,1,1.88-1.88h0a1.836,1.836,0,0,1,1.88,1.88h0a1.836,1.836,0,0,1-1.88,1.88h0a1.762,1.762,0,0,1-1.88-1.88Z" transform="translate(-11.14 -103.8)"/>
      <path id="Path_3297" data-name="Path 3297" class="cls-1" d="M55.9,105.68a1.836,1.836,0,0,1,1.88-1.88h0a1.836,1.836,0,0,1,1.88,1.88h0a1.836,1.836,0,0,1-1.88,1.88h0a1.762,1.762,0,0,1-1.88-1.88Z" transform="translate(-14.672 -103.8)"/>
      <path id="Path_3298" data-name="Path 3298" class="cls-1" d="M45.7,105.68a1.836,1.836,0,0,1,1.88-1.88h0a1.836,1.836,0,0,1,1.88,1.88h0a1.836,1.836,0,0,1-1.88,1.88h0a1.762,1.762,0,0,1-1.88-1.88Z" transform="translate(-18.17 -103.8)"/>
      <path id="Path_3299" data-name="Path 3299" class="cls-1" d="M35.4,105.68a1.836,1.836,0,0,1,1.88-1.88h0a1.836,1.836,0,0,1,1.88,1.88h0a1.836,1.836,0,0,1-1.88,1.88h0a1.762,1.762,0,0,1-1.88-1.88Z" transform="translate(-21.702 -103.8)"/>
      <path id="Path_3300" data-name="Path 3300" class="cls-1" d="M25.2,105.68a1.836,1.836,0,0,1,1.88-1.88h0a1.836,1.836,0,0,1,1.88,1.88h0a1.836,1.836,0,0,1-1.88,1.88h0a1.762,1.762,0,0,1-1.88-1.88Z" transform="translate(-25.2 -103.8)"/>
    </g>
    <g id="Group_131" data-name="Group 131" transform="translate(0 63.655)">
      <path id="Path_3301" data-name="Path 3301" class="cls-1" d="M194.3,99.58a1.836,1.836,0,0,1,1.88-1.88h0a1.836,1.836,0,0,1,1.88,1.88h0a1.836,1.836,0,0,1-1.88,1.88h0a1.836,1.836,0,0,1-1.88-1.88Z" transform="translate(39.774 -97.7)"/>
      <path id="Path_3302" data-name="Path 3302" class="cls-1" d="M184,99.58a1.836,1.836,0,0,1,1.88-1.88h0a1.836,1.836,0,0,1,1.88,1.88h0a1.836,1.836,0,0,1-1.88,1.88h0A1.836,1.836,0,0,1,184,99.58Z" transform="translate(36.242 -97.7)"/>
      <path id="Path_3303" data-name="Path 3303" class="cls-1" d="M173.8,99.58a1.836,1.836,0,0,1,1.88-1.88h0a1.836,1.836,0,0,1,1.88,1.88h0a1.836,1.836,0,0,1-1.88,1.88h0a1.836,1.836,0,0,1-1.88-1.88Z" transform="translate(32.744 -97.7)"/>
      <path id="Path_3304" data-name="Path 3304" class="cls-1" d="M163.5,99.58a1.836,1.836,0,0,1,1.88-1.88h0a1.836,1.836,0,0,1,1.88,1.88h0a1.836,1.836,0,0,1-1.88,1.88h0a1.836,1.836,0,0,1-1.88-1.88Z" transform="translate(29.211 -97.7)"/>
      <path id="Path_3305" data-name="Path 3305" class="cls-1" d="M153.3,99.58a1.836,1.836,0,0,1,1.88-1.88h0a1.836,1.836,0,0,1,1.88,1.88h0a1.836,1.836,0,0,1-1.88,1.88h0a1.836,1.836,0,0,1-1.88-1.88Z" transform="translate(25.714 -97.7)"/>
      <path id="Path_3306" data-name="Path 3306" class="cls-1" d="M143,99.58a1.836,1.836,0,0,1,1.88-1.88h0a1.836,1.836,0,0,1,1.88,1.88h0a1.836,1.836,0,0,1-1.88,1.88h0A1.836,1.836,0,0,1,143,99.58Z" transform="translate(22.181 -97.7)"/>
      <path id="Path_3307" data-name="Path 3307" class="cls-1" d="M132.8,99.58a1.836,1.836,0,0,1,1.88-1.88h0a1.836,1.836,0,0,1,1.88,1.88h0a1.836,1.836,0,0,1-1.88,1.88h0a1.836,1.836,0,0,1-1.88-1.88Z" transform="translate(18.683 -97.7)"/>
      <path id="Path_3308" data-name="Path 3308" class="cls-1" d="M122.5,99.58a1.836,1.836,0,0,1,1.88-1.88h0a1.836,1.836,0,0,1,1.88,1.88h0a1.836,1.836,0,0,1-1.88,1.88h0a1.921,1.921,0,0,1-1.88-1.88Z" transform="translate(15.151 -97.7)"/>
      <path id="Path_3309" data-name="Path 3309" class="cls-1" d="M112.3,99.58a1.836,1.836,0,0,1,1.88-1.88h0a1.836,1.836,0,0,1,1.88,1.88h0a1.836,1.836,0,0,1-1.88,1.88h0a1.836,1.836,0,0,1-1.88-1.88Z" transform="translate(11.653 -97.7)"/>
      <path id="Path_3310" data-name="Path 3310" class="cls-1" d="M102,99.58a1.836,1.836,0,0,1,1.88-1.88h0a1.836,1.836,0,0,1,1.88,1.88h0a1.836,1.836,0,0,1-1.88,1.88h0A1.921,1.921,0,0,1,102,99.58Z" transform="translate(8.121 -97.7)"/>
      <path id="Path_3311" data-name="Path 3311" class="cls-1" d="M91.8,99.58a1.836,1.836,0,0,1,1.88-1.88h0a1.836,1.836,0,0,1,1.88,1.88h0a1.836,1.836,0,0,1-1.88,1.88h0a1.836,1.836,0,0,1-1.88-1.88Z" transform="translate(4.623 -97.7)"/>
      <path id="Path_3312" data-name="Path 3312" class="cls-1" d="M81.5,99.58a1.836,1.836,0,0,1,1.88-1.88h0a1.836,1.836,0,0,1,1.88,1.88h0a1.836,1.836,0,0,1-1.88,1.88h0a1.921,1.921,0,0,1-1.88-1.88Z" transform="translate(1.091 -97.7)"/>
      <path id="Path_3313" data-name="Path 3313" class="cls-1" d="M71.3,99.58a1.836,1.836,0,0,1,1.88-1.88h0a1.836,1.836,0,0,1,1.88,1.88h0a1.836,1.836,0,0,1-1.88,1.88h0a1.836,1.836,0,0,1-1.88-1.88Z" transform="translate(-2.407 -97.7)"/>
      <path id="Path_3314" data-name="Path 3314" class="cls-1" d="M61,99.58a1.836,1.836,0,0,1,1.88-1.88h0a1.836,1.836,0,0,1,1.88,1.88h0a1.836,1.836,0,0,1-1.88,1.88h0A1.921,1.921,0,0,1,61,99.58Z" transform="translate(-5.94 -97.7)"/>
      <path id="Path_3315" data-name="Path 3315" class="cls-1" d="M50.8,99.58a1.836,1.836,0,0,1,1.88-1.88h0a1.836,1.836,0,0,1,1.88,1.88h0a1.836,1.836,0,0,1-1.88,1.88h0a1.836,1.836,0,0,1-1.88-1.88Z" transform="translate(-9.438 -97.7)"/>
      <path id="Path_3316" data-name="Path 3316" class="cls-1" d="M40.5,99.58a1.836,1.836,0,0,1,1.88-1.88h0a1.836,1.836,0,0,1,1.88,1.88h0a1.836,1.836,0,0,1-1.88,1.88h0a1.921,1.921,0,0,1-1.88-1.88Z" transform="translate(-12.97 -97.7)"/>
      <path id="Path_3317" data-name="Path 3317" class="cls-1" d="M30.3,99.58a1.836,1.836,0,0,1,1.88-1.88h0a1.836,1.836,0,0,1,1.88,1.88h0a1.836,1.836,0,0,1-1.88,1.88h0a1.836,1.836,0,0,1-1.88-1.88Z" transform="translate(-16.468 -97.7)"/>
      <path id="Path_3318" data-name="Path 3318" class="cls-1" d="M20,99.58a1.836,1.836,0,0,1,1.88-1.88h0a1.836,1.836,0,0,1,1.88,1.88h0a1.836,1.836,0,0,1-1.88,1.88h0A1.921,1.921,0,0,1,20,99.58Z" transform="translate(-20 -97.7)"/>
    </g>
    <g id="Group_132" data-name="Group 132" transform="translate(6.983 56)">
      <path id="Path_3319" data-name="Path 3319" class="cls-1" d="M189.1,93.88A1.836,1.836,0,0,1,190.98,92h0a1.836,1.836,0,0,1,1.88,1.88h0a1.836,1.836,0,0,1-1.88,1.88h0a1.921,1.921,0,0,1-1.88-1.88Z" transform="translate(31.007 -92)"/>
      <path id="Path_3320" data-name="Path 3320" class="cls-1" d="M178.9,93.88A1.836,1.836,0,0,1,180.78,92h0a1.836,1.836,0,0,1,1.88,1.88h0a1.836,1.836,0,0,1-1.88,1.88h0a1.836,1.836,0,0,1-1.88-1.88Z" transform="translate(27.509 -92)"/>
      <path id="Path_3321" data-name="Path 3321" class="cls-1" d="M168.6,93.88A1.836,1.836,0,0,1,170.48,92h0a1.836,1.836,0,0,1,1.88,1.88h0a1.836,1.836,0,0,1-1.88,1.88h0a1.921,1.921,0,0,1-1.88-1.88Z" transform="translate(23.977 -92)"/>
      <path id="Path_3322" data-name="Path 3322" class="cls-1" d="M158.4,93.88A1.836,1.836,0,0,1,160.28,92h0a1.836,1.836,0,0,1,1.88,1.88h0a1.836,1.836,0,0,1-1.88,1.88h0a1.836,1.836,0,0,1-1.88-1.88Z" transform="translate(20.479 -92)"/>
      <path id="Path_3323" data-name="Path 3323" class="cls-1" d="M148.1,93.88A1.836,1.836,0,0,1,149.98,92h0a1.836,1.836,0,0,1,1.88,1.88h0a1.836,1.836,0,0,1-1.88,1.88h0a1.921,1.921,0,0,1-1.88-1.88Z" transform="translate(16.947 -92)"/>
      <path id="Path_3324" data-name="Path 3324" class="cls-1" d="M137.9,93.88A1.836,1.836,0,0,1,139.78,92h0a1.836,1.836,0,0,1,1.88,1.88h0a1.836,1.836,0,0,1-1.88,1.88h0a1.836,1.836,0,0,1-1.88-1.88Z" transform="translate(13.449 -92)"/>
      <path id="Path_3325" data-name="Path 3325" class="cls-1" d="M127.6,93.88A1.836,1.836,0,0,1,129.48,92h0a1.836,1.836,0,0,1,1.88,1.88h0a1.836,1.836,0,0,1-1.88,1.88h0a1.921,1.921,0,0,1-1.88-1.88Z" transform="translate(9.917 -92)"/>
      <path id="Path_3326" data-name="Path 3326" class="cls-1" d="M117.4,93.88A1.836,1.836,0,0,1,119.28,92h0a1.836,1.836,0,0,1,1.88,1.88h0a1.836,1.836,0,0,1-1.88,1.88h0a1.836,1.836,0,0,1-1.88-1.88Z" transform="translate(6.419 -92)"/>
      <path id="Path_3327" data-name="Path 3327" class="cls-1" d="M107.1,93.88A1.836,1.836,0,0,1,108.98,92h0a1.836,1.836,0,0,1,1.88,1.88h0a1.836,1.836,0,0,1-1.88,1.88h0a1.921,1.921,0,0,1-1.88-1.88Z" transform="translate(2.887 -92)"/>
      <path id="Path_3328" data-name="Path 3328" class="cls-1" d="M96.9,93.88A1.836,1.836,0,0,1,98.78,92h0a1.836,1.836,0,0,1,1.88,1.88h0a1.836,1.836,0,0,1-1.88,1.88h0a1.836,1.836,0,0,1-1.88-1.88Z" transform="translate(-0.611 -92)"/>
      <path id="Path_3329" data-name="Path 3329" class="cls-1" d="M86.7,93.88A1.836,1.836,0,0,1,88.58,92h0a1.836,1.836,0,0,1,1.88,1.88h0a1.836,1.836,0,0,1-1.88,1.88h0a1.836,1.836,0,0,1-1.88-1.88Z" transform="translate(-4.109 -92)"/>
      <path id="Path_3330" data-name="Path 3330" class="cls-1" d="M76.4,93.88A1.836,1.836,0,0,1,78.28,92h0a1.836,1.836,0,0,1,1.88,1.88h0a1.836,1.836,0,0,1-1.88,1.88h0a1.836,1.836,0,0,1-1.88-1.88Z" transform="translate(-7.642 -92)"/>
      <path id="Path_3331" data-name="Path 3331" class="cls-1" d="M66.2,93.88A1.836,1.836,0,0,1,68.08,92h0a1.836,1.836,0,0,1,1.88,1.88h0a1.836,1.836,0,0,1-1.88,1.88h0a1.836,1.836,0,0,1-1.88-1.88Z" transform="translate(-11.14 -92)"/>
      <path id="Path_3332" data-name="Path 3332" class="cls-1" d="M55.9,93.88A1.836,1.836,0,0,1,57.78,92h0a1.836,1.836,0,0,1,1.88,1.88h0a1.836,1.836,0,0,1-1.88,1.88h0a1.836,1.836,0,0,1-1.88-1.88Z" transform="translate(-14.672 -92)"/>
      <path id="Path_3333" data-name="Path 3333" class="cls-1" d="M45.7,93.88A1.836,1.836,0,0,1,47.58,92h0a1.836,1.836,0,0,1,1.88,1.88h0a1.836,1.836,0,0,1-1.88,1.88h0a1.836,1.836,0,0,1-1.88-1.88Z" transform="translate(-18.17 -92)"/>
      <path id="Path_3334" data-name="Path 3334" class="cls-1" d="M35.4,93.88A1.836,1.836,0,0,1,37.28,92h0a1.836,1.836,0,0,1,1.88,1.88h0a1.836,1.836,0,0,1-1.88,1.88h0a1.836,1.836,0,0,1-1.88-1.88Z" transform="translate(-21.702 -92)"/>
      <path id="Path_3335" data-name="Path 3335" class="cls-1" d="M25.2,93.88A1.836,1.836,0,0,1,27.08,92h0a1.836,1.836,0,0,1,1.88,1.88h0a1.836,1.836,0,0,1-1.88,1.88h0a1.836,1.836,0,0,1-1.88-1.88Z" transform="translate(-25.2 -92)"/>
    </g>
    <g id="Group_133" data-name="Group 133" transform="translate(0 47.674)">
      <path id="Path_3336" data-name="Path 3336" class="cls-1" d="M194.3,87.68a1.836,1.836,0,0,1,1.88-1.88h0a1.836,1.836,0,0,1,1.88,1.88h0a1.836,1.836,0,0,1-1.88,1.88h0a1.762,1.762,0,0,1-1.88-1.88Z" transform="translate(39.774 -85.8)"/>
      <path id="Path_3337" data-name="Path 3337" class="cls-1" d="M184,87.68a1.836,1.836,0,0,1,1.88-1.88h0a1.836,1.836,0,0,1,1.88,1.88h0a1.836,1.836,0,0,1-1.88,1.88h0A1.762,1.762,0,0,1,184,87.68Z" transform="translate(36.242 -85.8)"/>
      <path id="Path_3338" data-name="Path 3338" class="cls-1" d="M173.8,87.68a1.836,1.836,0,0,1,1.88-1.88h0a1.836,1.836,0,0,1,1.88,1.88h0a1.836,1.836,0,0,1-1.88,1.88h0a1.762,1.762,0,0,1-1.88-1.88Z" transform="translate(32.744 -85.8)"/>
      <path id="Path_3339" data-name="Path 3339" class="cls-1" d="M163.5,87.68a1.836,1.836,0,0,1,1.88-1.88h0a1.836,1.836,0,0,1,1.88,1.88h0a1.836,1.836,0,0,1-1.88,1.88h0a1.762,1.762,0,0,1-1.88-1.88Z" transform="translate(29.211 -85.8)"/>
      <path id="Path_3340" data-name="Path 3340" class="cls-1" d="M153.3,87.68a1.836,1.836,0,0,1,1.88-1.88h0a1.836,1.836,0,0,1,1.88,1.88h0a1.836,1.836,0,0,1-1.88,1.88h0a1.762,1.762,0,0,1-1.88-1.88Z" transform="translate(25.714 -85.8)"/>
      <path id="Path_3341" data-name="Path 3341" class="cls-1" d="M143,87.68a1.836,1.836,0,0,1,1.88-1.88h0a1.836,1.836,0,0,1,1.88,1.88h0a1.836,1.836,0,0,1-1.88,1.88h0A1.762,1.762,0,0,1,143,87.68Z" transform="translate(22.181 -85.8)"/>
      <path id="Path_3342" data-name="Path 3342" class="cls-1" d="M132.8,87.68a1.836,1.836,0,0,1,1.88-1.88h0a1.836,1.836,0,0,1,1.88,1.88h0a1.836,1.836,0,0,1-1.88,1.88h0a1.762,1.762,0,0,1-1.88-1.88Z" transform="translate(18.683 -85.8)"/>
      <path id="Path_3343" data-name="Path 3343" class="cls-1" d="M122.5,87.68a1.836,1.836,0,0,1,1.88-1.88h0a1.836,1.836,0,0,1,1.88,1.88h0a1.836,1.836,0,0,1-1.88,1.88h0a1.833,1.833,0,0,1-1.88-1.88Z" transform="translate(15.151 -85.8)"/>
      <path id="Path_3344" data-name="Path 3344" class="cls-1" d="M112.3,87.68a1.836,1.836,0,0,1,1.88-1.88h0a1.836,1.836,0,0,1,1.88,1.88h0a1.836,1.836,0,0,1-1.88,1.88h0a1.762,1.762,0,0,1-1.88-1.88Z" transform="translate(11.653 -85.8)"/>
      <path id="Path_3345" data-name="Path 3345" class="cls-1" d="M102,87.68a1.836,1.836,0,0,1,1.88-1.88h0a1.836,1.836,0,0,1,1.88,1.88h0a1.836,1.836,0,0,1-1.88,1.88h0A1.833,1.833,0,0,1,102,87.68Z" transform="translate(8.121 -85.8)"/>
      <path id="Path_3346" data-name="Path 3346" class="cls-1" d="M91.8,87.68a1.836,1.836,0,0,1,1.88-1.88h0a1.836,1.836,0,0,1,1.88,1.88h0a1.836,1.836,0,0,1-1.88,1.88h0a1.762,1.762,0,0,1-1.88-1.88Z" transform="translate(4.623 -85.8)"/>
      <path id="Path_3347" data-name="Path 3347" class="cls-1" d="M81.5,87.68a1.836,1.836,0,0,1,1.88-1.88h0a1.836,1.836,0,0,1,1.88,1.88h0a1.836,1.836,0,0,1-1.88,1.88h0a1.833,1.833,0,0,1-1.88-1.88Z" transform="translate(1.091 -85.8)"/>
      <path id="Path_3348" data-name="Path 3348" class="cls-1" d="M71.3,87.68a1.836,1.836,0,0,1,1.88-1.88h0a1.836,1.836,0,0,1,1.88,1.88h0a1.836,1.836,0,0,1-1.88,1.88h0a1.762,1.762,0,0,1-1.88-1.88Z" transform="translate(-2.407 -85.8)"/>
      <path id="Path_3349" data-name="Path 3349" class="cls-1" d="M61,87.68a1.836,1.836,0,0,1,1.88-1.88h0a1.836,1.836,0,0,1,1.88,1.88h0a1.836,1.836,0,0,1-1.88,1.88h0A1.833,1.833,0,0,1,61,87.68Z" transform="translate(-5.94 -85.8)"/>
      <path id="Path_3350" data-name="Path 3350" class="cls-1" d="M50.8,87.68a1.836,1.836,0,0,1,1.88-1.88h0a1.836,1.836,0,0,1,1.88,1.88h0a1.836,1.836,0,0,1-1.88,1.88h0a1.762,1.762,0,0,1-1.88-1.88Z" transform="translate(-9.438 -85.8)"/>
      <path id="Path_3351" data-name="Path 3351" class="cls-1" d="M40.5,87.68a1.836,1.836,0,0,1,1.88-1.88h0a1.836,1.836,0,0,1,1.88,1.88h0a1.836,1.836,0,0,1-1.88,1.88h0a1.833,1.833,0,0,1-1.88-1.88Z" transform="translate(-12.97 -85.8)"/>
      <path id="Path_3352" data-name="Path 3352" class="cls-1" d="M30.3,87.68a1.836,1.836,0,0,1,1.88-1.88h0a1.836,1.836,0,0,1,1.88,1.88h0a1.836,1.836,0,0,1-1.88,1.88h0a1.762,1.762,0,0,1-1.88-1.88Z" transform="translate(-16.468 -85.8)"/>
      <path id="Path_3353" data-name="Path 3353" class="cls-1" d="M20,87.68a1.836,1.836,0,0,1,1.88-1.88h0a1.836,1.836,0,0,1,1.88,1.88h0a1.836,1.836,0,0,1-1.88,1.88h0A1.833,1.833,0,0,1,20,87.68Z" transform="translate(-20 -85.8)"/>
    </g>
    <g id="Group_134" data-name="Group 134" transform="translate(6.983 40.154)">
      <path id="Path_3354" data-name="Path 3354" class="cls-1" d="M189.1,82.08a1.836,1.836,0,0,1,1.88-1.88h0a1.836,1.836,0,0,1,1.88,1.88h0a1.836,1.836,0,0,1-1.88,1.88h0a1.921,1.921,0,0,1-1.88-1.88Z" transform="translate(31.007 -80.2)"/>
      <path id="Path_3355" data-name="Path 3355" class="cls-1" d="M178.9,82.08a1.836,1.836,0,0,1,1.88-1.88h0a1.836,1.836,0,0,1,1.88,1.88h0a1.836,1.836,0,0,1-1.88,1.88h0a1.836,1.836,0,0,1-1.88-1.88Z" transform="translate(27.509 -80.2)"/>
      <path id="Path_3356" data-name="Path 3356" class="cls-1" d="M168.6,82.08a1.836,1.836,0,0,1,1.88-1.88h0a1.836,1.836,0,0,1,1.88,1.88h0a1.836,1.836,0,0,1-1.88,1.88h0a1.921,1.921,0,0,1-1.88-1.88Z" transform="translate(23.977 -80.2)"/>
      <path id="Path_3357" data-name="Path 3357" class="cls-1" d="M158.4,82.08a1.836,1.836,0,0,1,1.88-1.88h0a1.836,1.836,0,0,1,1.88,1.88h0a1.836,1.836,0,0,1-1.88,1.88h0a1.836,1.836,0,0,1-1.88-1.88Z" transform="translate(20.479 -80.2)"/>
      <path id="Path_3358" data-name="Path 3358" class="cls-1" d="M148.1,82.08a1.836,1.836,0,0,1,1.88-1.88h0a1.836,1.836,0,0,1,1.88,1.88h0a1.836,1.836,0,0,1-1.88,1.88h0a1.921,1.921,0,0,1-1.88-1.88Z" transform="translate(16.947 -80.2)"/>
      <path id="Path_3359" data-name="Path 3359" class="cls-1" d="M137.9,82.08a1.836,1.836,0,0,1,1.88-1.88h0a1.836,1.836,0,0,1,1.88,1.88h0a1.836,1.836,0,0,1-1.88,1.88h0a1.836,1.836,0,0,1-1.88-1.88Z" transform="translate(13.449 -80.2)"/>
      <path id="Path_3360" data-name="Path 3360" class="cls-1" d="M127.6,82.08a1.836,1.836,0,0,1,1.88-1.88h0a1.836,1.836,0,0,1,1.88,1.88h0a1.836,1.836,0,0,1-1.88,1.88h0a1.921,1.921,0,0,1-1.88-1.88Z" transform="translate(9.917 -80.2)"/>
      <path id="Path_3361" data-name="Path 3361" class="cls-1" d="M117.4,82.08a1.836,1.836,0,0,1,1.88-1.88h0a1.836,1.836,0,0,1,1.88,1.88h0a1.836,1.836,0,0,1-1.88,1.88h0a1.836,1.836,0,0,1-1.88-1.88Z" transform="translate(6.419 -80.2)"/>
      <path id="Path_3362" data-name="Path 3362" class="cls-1" d="M107.1,82.08a1.836,1.836,0,0,1,1.88-1.88h0a1.836,1.836,0,0,1,1.88,1.88h0a1.836,1.836,0,0,1-1.88,1.88h0a1.921,1.921,0,0,1-1.88-1.88Z" transform="translate(2.887 -80.2)"/>
      <path id="Path_3363" data-name="Path 3363" class="cls-1" d="M96.9,82.08a1.836,1.836,0,0,1,1.88-1.88h0a1.836,1.836,0,0,1,1.88,1.88h0a1.836,1.836,0,0,1-1.88,1.88h0a1.836,1.836,0,0,1-1.88-1.88Z" transform="translate(-0.611 -80.2)"/>
      <path id="Path_3364" data-name="Path 3364" class="cls-1" d="M86.7,82.08a1.836,1.836,0,0,1,1.88-1.88h0a1.836,1.836,0,0,1,1.88,1.88h0a1.836,1.836,0,0,1-1.88,1.88h0a1.836,1.836,0,0,1-1.88-1.88Z" transform="translate(-4.109 -80.2)"/>
      <path id="Path_3365" data-name="Path 3365" class="cls-1" d="M76.4,82.08a1.836,1.836,0,0,1,1.88-1.88h0a1.836,1.836,0,0,1,1.88,1.88h0a1.836,1.836,0,0,1-1.88,1.88h0a1.836,1.836,0,0,1-1.88-1.88Z" transform="translate(-7.642 -80.2)"/>
      <path id="Path_3366" data-name="Path 3366" class="cls-1" d="M66.2,82.08a1.836,1.836,0,0,1,1.88-1.88h0a1.836,1.836,0,0,1,1.88,1.88h0a1.836,1.836,0,0,1-1.88,1.88h0a1.836,1.836,0,0,1-1.88-1.88Z" transform="translate(-11.14 -80.2)"/>
      <path id="Path_3367" data-name="Path 3367" class="cls-1" d="M55.9,82.08a1.836,1.836,0,0,1,1.88-1.88h0a1.836,1.836,0,0,1,1.88,1.88h0a1.836,1.836,0,0,1-1.88,1.88h0a1.836,1.836,0,0,1-1.88-1.88Z" transform="translate(-14.672 -80.2)"/>
      <path id="Path_3368" data-name="Path 3368" class="cls-1" d="M45.7,82.08a1.836,1.836,0,0,1,1.88-1.88h0a1.836,1.836,0,0,1,1.88,1.88h0a1.836,1.836,0,0,1-1.88,1.88h0a1.836,1.836,0,0,1-1.88-1.88Z" transform="translate(-18.17 -80.2)"/>
      <path id="Path_3369" data-name="Path 3369" class="cls-1" d="M35.4,82.08a1.836,1.836,0,0,1,1.88-1.88h0a1.836,1.836,0,0,1,1.88,1.88h0a1.836,1.836,0,0,1-1.88,1.88h0a1.836,1.836,0,0,1-1.88-1.88Z" transform="translate(-21.702 -80.2)"/>
      <path id="Path_3370" data-name="Path 3370" class="cls-1" d="M25.2,82.08a1.836,1.836,0,0,1,1.88-1.88h0a1.836,1.836,0,0,1,1.88,1.88h0a1.836,1.836,0,0,1-1.88,1.88h0a1.836,1.836,0,0,1-1.88-1.88Z" transform="translate(-25.2 -80.2)"/>
    </g>
    <g id="Group_135" data-name="Group 135" transform="translate(0 31.828)">
      <path id="Path_3371" data-name="Path 3371" class="cls-1" d="M194.3,75.88A1.836,1.836,0,0,1,196.18,74h0a1.836,1.836,0,0,1,1.88,1.88h0a1.836,1.836,0,0,1-1.88,1.88h0a1.836,1.836,0,0,1-1.88-1.88Z" transform="translate(39.774 -74)"/>
      <path id="Path_3372" data-name="Path 3372" class="cls-1" d="M184,75.88A1.836,1.836,0,0,1,185.88,74h0a1.836,1.836,0,0,1,1.88,1.88h0a1.836,1.836,0,0,1-1.88,1.88h0A1.836,1.836,0,0,1,184,75.88Z" transform="translate(36.242 -74)"/>
      <path id="Path_3373" data-name="Path 3373" class="cls-1" d="M173.8,75.88A1.836,1.836,0,0,1,175.68,74h0a1.836,1.836,0,0,1,1.88,1.88h0a1.836,1.836,0,0,1-1.88,1.88h0a1.836,1.836,0,0,1-1.88-1.88Z" transform="translate(32.744 -74)"/>
      <path id="Path_3374" data-name="Path 3374" class="cls-1" d="M163.5,75.88A1.836,1.836,0,0,1,165.38,74h0a1.836,1.836,0,0,1,1.88,1.88h0a1.836,1.836,0,0,1-1.88,1.88h0a1.836,1.836,0,0,1-1.88-1.88Z" transform="translate(29.211 -74)"/>
      <path id="Path_3375" data-name="Path 3375" class="cls-1" d="M153.3,75.88A1.836,1.836,0,0,1,155.18,74h0a1.836,1.836,0,0,1,1.88,1.88h0a1.836,1.836,0,0,1-1.88,1.88h0a1.836,1.836,0,0,1-1.88-1.88Z" transform="translate(25.714 -74)"/>
      <path id="Path_3376" data-name="Path 3376" class="cls-1" d="M143,75.88A1.836,1.836,0,0,1,144.88,74h0a1.836,1.836,0,0,1,1.88,1.88h0a1.836,1.836,0,0,1-1.88,1.88h0A1.836,1.836,0,0,1,143,75.88Z" transform="translate(22.181 -74)"/>
      <path id="Path_3377" data-name="Path 3377" class="cls-1" d="M132.8,75.88A1.836,1.836,0,0,1,134.68,74h0a1.836,1.836,0,0,1,1.88,1.88h0a1.836,1.836,0,0,1-1.88,1.88h0a1.836,1.836,0,0,1-1.88-1.88Z" transform="translate(18.683 -74)"/>
      <path id="Path_3378" data-name="Path 3378" class="cls-1" d="M122.5,75.88A1.836,1.836,0,0,1,124.38,74h0a1.836,1.836,0,0,1,1.88,1.88h0a1.836,1.836,0,0,1-1.88,1.88h0a1.921,1.921,0,0,1-1.88-1.88Z" transform="translate(15.151 -74)"/>
      <path id="Path_3379" data-name="Path 3379" class="cls-1" d="M112.3,75.88A1.836,1.836,0,0,1,114.18,74h0a1.836,1.836,0,0,1,1.88,1.88h0a1.836,1.836,0,0,1-1.88,1.88h0a1.836,1.836,0,0,1-1.88-1.88Z" transform="translate(11.653 -74)"/>
      <path id="Path_3380" data-name="Path 3380" class="cls-1" d="M102,75.88A1.836,1.836,0,0,1,103.88,74h0a1.836,1.836,0,0,1,1.88,1.88h0a1.836,1.836,0,0,1-1.88,1.88h0A1.921,1.921,0,0,1,102,75.88Z" transform="translate(8.121 -74)"/>
      <path id="Path_3381" data-name="Path 3381" class="cls-1" d="M91.8,75.88A1.836,1.836,0,0,1,93.68,74h0a1.836,1.836,0,0,1,1.88,1.88h0a1.836,1.836,0,0,1-1.88,1.88h0a1.836,1.836,0,0,1-1.88-1.88Z" transform="translate(4.623 -74)"/>
      <path id="Path_3382" data-name="Path 3382" class="cls-1" d="M81.5,75.88A1.836,1.836,0,0,1,83.38,74h0a1.836,1.836,0,0,1,1.88,1.88h0a1.836,1.836,0,0,1-1.88,1.88h0a1.921,1.921,0,0,1-1.88-1.88Z" transform="translate(1.091 -74)"/>
      <path id="Path_3383" data-name="Path 3383" class="cls-1" d="M71.3,75.88A1.836,1.836,0,0,1,73.18,74h0a1.836,1.836,0,0,1,1.88,1.88h0a1.836,1.836,0,0,1-1.88,1.88h0a1.836,1.836,0,0,1-1.88-1.88Z" transform="translate(-2.407 -74)"/>
      <path id="Path_3384" data-name="Path 3384" class="cls-1" d="M61,75.88A1.836,1.836,0,0,1,62.88,74h0a1.836,1.836,0,0,1,1.88,1.88h0a1.836,1.836,0,0,1-1.88,1.88h0A1.921,1.921,0,0,1,61,75.88Z" transform="translate(-5.94 -74)"/>
      <path id="Path_3385" data-name="Path 3385" class="cls-1" d="M50.8,75.88A1.836,1.836,0,0,1,52.68,74h0a1.836,1.836,0,0,1,1.88,1.88h0a1.836,1.836,0,0,1-1.88,1.88h0a1.836,1.836,0,0,1-1.88-1.88Z" transform="translate(-9.438 -74)"/>
      <path id="Path_3386" data-name="Path 3386" class="cls-1" d="M40.5,75.88A1.836,1.836,0,0,1,42.38,74h0a1.836,1.836,0,0,1,1.88,1.88h0a1.836,1.836,0,0,1-1.88,1.88h0a1.921,1.921,0,0,1-1.88-1.88Z" transform="translate(-12.97 -74)"/>
      <path id="Path_3387" data-name="Path 3387" class="cls-1" d="M30.3,75.88A1.836,1.836,0,0,1,32.18,74h0a1.836,1.836,0,0,1,1.88,1.88h0a1.836,1.836,0,0,1-1.88,1.88h0a1.836,1.836,0,0,1-1.88-1.88Z" transform="translate(-16.468 -74)"/>
      <path id="Path_3388" data-name="Path 3388" class="cls-1" d="M20,75.88A1.836,1.836,0,0,1,21.88,74h0a1.836,1.836,0,0,1,1.88,1.88h0a1.836,1.836,0,0,1-1.88,1.88h0A1.921,1.921,0,0,1,20,75.88Z" transform="translate(-20 -74)"/>
    </g>
    <g id="Group_136" data-name="Group 136" transform="translate(6.983 24.173)">
      <path id="Path_3389" data-name="Path 3389" class="cls-1" d="M189.1,70.18a1.836,1.836,0,0,1,1.88-1.88h0a1.836,1.836,0,0,1,1.88,1.88h0a1.836,1.836,0,0,1-1.88,1.88h0a1.833,1.833,0,0,1-1.88-1.88Z" transform="translate(31.007 -68.3)"/>
      <path id="Path_3390" data-name="Path 3390" class="cls-1" d="M178.9,70.18a1.836,1.836,0,0,1,1.88-1.88h0a1.836,1.836,0,0,1,1.88,1.88h0a1.836,1.836,0,0,1-1.88,1.88h0a1.762,1.762,0,0,1-1.88-1.88Z" transform="translate(27.509 -68.3)"/>
      <path id="Path_3391" data-name="Path 3391" class="cls-1" d="M168.6,70.18a1.836,1.836,0,0,1,1.88-1.88h0a1.836,1.836,0,0,1,1.88,1.88h0a1.836,1.836,0,0,1-1.88,1.88h0a1.833,1.833,0,0,1-1.88-1.88Z" transform="translate(23.977 -68.3)"/>
      <path id="Path_3392" data-name="Path 3392" class="cls-1" d="M158.4,70.18a1.836,1.836,0,0,1,1.88-1.88h0a1.836,1.836,0,0,1,1.88,1.88h0a1.836,1.836,0,0,1-1.88,1.88h0a1.762,1.762,0,0,1-1.88-1.88Z" transform="translate(20.479 -68.3)"/>
      <path id="Path_3393" data-name="Path 3393" class="cls-1" d="M148.1,70.18a1.836,1.836,0,0,1,1.88-1.88h0a1.836,1.836,0,0,1,1.88,1.88h0a1.836,1.836,0,0,1-1.88,1.88h0a1.833,1.833,0,0,1-1.88-1.88Z" transform="translate(16.947 -68.3)"/>
      <path id="Path_3394" data-name="Path 3394" class="cls-1" d="M137.9,70.18a1.836,1.836,0,0,1,1.88-1.88h0a1.836,1.836,0,0,1,1.88,1.88h0a1.836,1.836,0,0,1-1.88,1.88h0a1.762,1.762,0,0,1-1.88-1.88Z" transform="translate(13.449 -68.3)"/>
      <path id="Path_3395" data-name="Path 3395" class="cls-1" d="M127.6,70.18a1.836,1.836,0,0,1,1.88-1.88h0a1.836,1.836,0,0,1,1.88,1.88h0a1.836,1.836,0,0,1-1.88,1.88h0a1.833,1.833,0,0,1-1.88-1.88Z" transform="translate(9.917 -68.3)"/>
      <path id="Path_3396" data-name="Path 3396" class="cls-1" d="M117.4,70.18a1.836,1.836,0,0,1,1.88-1.88h0a1.836,1.836,0,0,1,1.88,1.88h0a1.836,1.836,0,0,1-1.88,1.88h0a1.762,1.762,0,0,1-1.88-1.88Z" transform="translate(6.419 -68.3)"/>
      <path id="Path_3397" data-name="Path 3397" class="cls-1" d="M107.1,70.18a1.836,1.836,0,0,1,1.88-1.88h0a1.836,1.836,0,0,1,1.88,1.88h0a1.836,1.836,0,0,1-1.88,1.88h0a1.833,1.833,0,0,1-1.88-1.88Z" transform="translate(2.887 -68.3)"/>
      <path id="Path_3398" data-name="Path 3398" class="cls-1" d="M96.9,70.18a1.836,1.836,0,0,1,1.88-1.88h0a1.836,1.836,0,0,1,1.88,1.88h0a1.836,1.836,0,0,1-1.88,1.88h0a1.762,1.762,0,0,1-1.88-1.88Z" transform="translate(-0.611 -68.3)"/>
      <path id="Path_3399" data-name="Path 3399" class="cls-1" d="M86.7,70.18a1.836,1.836,0,0,1,1.88-1.88h0a1.836,1.836,0,0,1,1.88,1.88h0a1.836,1.836,0,0,1-1.88,1.88h0a1.762,1.762,0,0,1-1.88-1.88Z" transform="translate(-4.109 -68.3)"/>
      <path id="Path_3400" data-name="Path 3400" class="cls-1" d="M76.4,70.18a1.836,1.836,0,0,1,1.88-1.88h0a1.836,1.836,0,0,1,1.88,1.88h0a1.836,1.836,0,0,1-1.88,1.88h0a1.762,1.762,0,0,1-1.88-1.88Z" transform="translate(-7.642 -68.3)"/>
      <path id="Path_3401" data-name="Path 3401" class="cls-1" d="M66.2,70.18a1.836,1.836,0,0,1,1.88-1.88h0a1.836,1.836,0,0,1,1.88,1.88h0a1.836,1.836,0,0,1-1.88,1.88h0a1.762,1.762,0,0,1-1.88-1.88Z" transform="translate(-11.14 -68.3)"/>
      <path id="Path_3402" data-name="Path 3402" class="cls-1" d="M55.9,70.18a1.836,1.836,0,0,1,1.88-1.88h0a1.836,1.836,0,0,1,1.88,1.88h0a1.836,1.836,0,0,1-1.88,1.88h0a1.762,1.762,0,0,1-1.88-1.88Z" transform="translate(-14.672 -68.3)"/>
      <path id="Path_3403" data-name="Path 3403" class="cls-1" d="M45.7,70.18a1.836,1.836,0,0,1,1.88-1.88h0a1.836,1.836,0,0,1,1.88,1.88h0a1.836,1.836,0,0,1-1.88,1.88h0a1.762,1.762,0,0,1-1.88-1.88Z" transform="translate(-18.17 -68.3)"/>
      <path id="Path_3404" data-name="Path 3404" class="cls-1" d="M35.4,70.18a1.836,1.836,0,0,1,1.88-1.88h0a1.836,1.836,0,0,1,1.88,1.88h0a1.836,1.836,0,0,1-1.88,1.88h0a1.762,1.762,0,0,1-1.88-1.88Z" transform="translate(-21.702 -68.3)"/>
      <path id="Path_3405" data-name="Path 3405" class="cls-1" d="M25.2,70.18a1.836,1.836,0,0,1,1.88-1.88h0a1.836,1.836,0,0,1,1.88,1.88h0a1.836,1.836,0,0,1-1.88,1.88h0a1.762,1.762,0,0,1-1.88-1.88Z" transform="translate(-25.2 -68.3)"/>
    </g>
    <g id="Group_137" data-name="Group 137" transform="translate(0 15.981)">
      <path id="Path_3406" data-name="Path 3406" class="cls-1" d="M194.3,64.08a1.836,1.836,0,0,1,1.88-1.88h0a1.836,1.836,0,0,1,1.88,1.88h0a1.836,1.836,0,0,1-1.88,1.88h0a1.836,1.836,0,0,1-1.88-1.88Z" transform="translate(39.774 -62.2)"/>
      <path id="Path_3407" data-name="Path 3407" class="cls-1" d="M184,64.08a1.836,1.836,0,0,1,1.88-1.88h0a1.836,1.836,0,0,1,1.88,1.88h0a1.836,1.836,0,0,1-1.88,1.88h0A1.836,1.836,0,0,1,184,64.08Z" transform="translate(36.242 -62.2)"/>
      <path id="Path_3408" data-name="Path 3408" class="cls-1" d="M173.8,64.08a1.836,1.836,0,0,1,1.88-1.88h0a1.836,1.836,0,0,1,1.88,1.88h0a1.836,1.836,0,0,1-1.88,1.88h0a1.836,1.836,0,0,1-1.88-1.88Z" transform="translate(32.744 -62.2)"/>
      <path id="Path_3409" data-name="Path 3409" class="cls-1" d="M163.5,64.08a1.836,1.836,0,0,1,1.88-1.88h0a1.836,1.836,0,0,1,1.88,1.88h0a1.836,1.836,0,0,1-1.88,1.88h0a1.836,1.836,0,0,1-1.88-1.88Z" transform="translate(29.211 -62.2)"/>
      <path id="Path_3410" data-name="Path 3410" class="cls-1" d="M153.3,64.08a1.836,1.836,0,0,1,1.88-1.88h0a1.836,1.836,0,0,1,1.88,1.88h0a1.836,1.836,0,0,1-1.88,1.88h0a1.836,1.836,0,0,1-1.88-1.88Z" transform="translate(25.714 -62.2)"/>
      <path id="Path_3411" data-name="Path 3411" class="cls-1" d="M143,64.08a1.836,1.836,0,0,1,1.88-1.88h0a1.836,1.836,0,0,1,1.88,1.88h0a1.836,1.836,0,0,1-1.88,1.88h0A1.836,1.836,0,0,1,143,64.08Z" transform="translate(22.181 -62.2)"/>
      <path id="Path_3412" data-name="Path 3412" class="cls-1" d="M132.8,64.08a1.836,1.836,0,0,1,1.88-1.88h0a1.836,1.836,0,0,1,1.88,1.88h0a1.836,1.836,0,0,1-1.88,1.88h0a1.836,1.836,0,0,1-1.88-1.88Z" transform="translate(18.683 -62.2)"/>
      <path id="Path_3413" data-name="Path 3413" class="cls-1" d="M122.5,64.08a1.836,1.836,0,0,1,1.88-1.88h0a1.836,1.836,0,0,1,1.88,1.88h0a1.836,1.836,0,0,1-1.88,1.88h0a1.921,1.921,0,0,1-1.88-1.88Z" transform="translate(15.151 -62.2)"/>
      <path id="Path_3414" data-name="Path 3414" class="cls-1" d="M112.3,64.08a1.836,1.836,0,0,1,1.88-1.88h0a1.836,1.836,0,0,1,1.88,1.88h0a1.836,1.836,0,0,1-1.88,1.88h0a1.836,1.836,0,0,1-1.88-1.88Z" transform="translate(11.653 -62.2)"/>
      <path id="Path_3415" data-name="Path 3415" class="cls-1" d="M102,64.08a1.836,1.836,0,0,1,1.88-1.88h0a1.836,1.836,0,0,1,1.88,1.88h0a1.836,1.836,0,0,1-1.88,1.88h0A1.921,1.921,0,0,1,102,64.08Z" transform="translate(8.121 -62.2)"/>
      <path id="Path_3416" data-name="Path 3416" class="cls-1" d="M91.8,64.08a1.836,1.836,0,0,1,1.88-1.88h0a1.836,1.836,0,0,1,1.88,1.88h0a1.836,1.836,0,0,1-1.88,1.88h0a1.836,1.836,0,0,1-1.88-1.88Z" transform="translate(4.623 -62.2)"/>
      <path id="Path_3417" data-name="Path 3417" class="cls-1" d="M81.5,64.08a1.836,1.836,0,0,1,1.88-1.88h0a1.836,1.836,0,0,1,1.88,1.88h0a1.836,1.836,0,0,1-1.88,1.88h0a1.921,1.921,0,0,1-1.88-1.88Z" transform="translate(1.091 -62.2)"/>
      <path id="Path_3418" data-name="Path 3418" class="cls-1" d="M71.3,64.08a1.836,1.836,0,0,1,1.88-1.88h0a1.836,1.836,0,0,1,1.88,1.88h0a1.836,1.836,0,0,1-1.88,1.88h0a1.836,1.836,0,0,1-1.88-1.88Z" transform="translate(-2.407 -62.2)"/>
      <path id="Path_3419" data-name="Path 3419" class="cls-1" d="M61,64.08a1.836,1.836,0,0,1,1.88-1.88h0a1.836,1.836,0,0,1,1.88,1.88h0a1.836,1.836,0,0,1-1.88,1.88h0A1.921,1.921,0,0,1,61,64.08Z" transform="translate(-5.94 -62.2)"/>
      <path id="Path_3420" data-name="Path 3420" class="cls-1" d="M50.8,64.08a1.836,1.836,0,0,1,1.88-1.88h0a1.836,1.836,0,0,1,1.88,1.88h0a1.836,1.836,0,0,1-1.88,1.88h0a1.836,1.836,0,0,1-1.88-1.88Z" transform="translate(-9.438 -62.2)"/>
      <path id="Path_3421" data-name="Path 3421" class="cls-1" d="M40.5,64.08a1.836,1.836,0,0,1,1.88-1.88h0a1.836,1.836,0,0,1,1.88,1.88h0a1.836,1.836,0,0,1-1.88,1.88h0a1.921,1.921,0,0,1-1.88-1.88Z" transform="translate(-12.97 -62.2)"/>
      <path id="Path_3422" data-name="Path 3422" class="cls-1" d="M30.3,64.08a1.836,1.836,0,0,1,1.88-1.88h0a1.836,1.836,0,0,1,1.88,1.88h0a1.836,1.836,0,0,1-1.88,1.88h0a1.836,1.836,0,0,1-1.88-1.88Z" transform="translate(-16.468 -62.2)"/>
      <path id="Path_3423" data-name="Path 3423" class="cls-1" d="M20,64.08a1.836,1.836,0,0,1,1.88-1.88h0a1.836,1.836,0,0,1,1.88,1.88h0a1.836,1.836,0,0,1-1.88,1.88h0A1.921,1.921,0,0,1,20,64.08Z" transform="translate(-20 -62.2)"/>
    </g>
    <g id="Group_138" data-name="Group 138" transform="translate(6.983 8.326)">
      <path id="Path_3424" data-name="Path 3424" class="cls-1" d="M189.1,58.38a1.836,1.836,0,0,1,1.88-1.88h0a1.836,1.836,0,0,1,1.88,1.88h0a1.836,1.836,0,0,1-1.88,1.88h0a1.921,1.921,0,0,1-1.88-1.88Z" transform="translate(31.007 -56.5)"/>
      <path id="Path_3425" data-name="Path 3425" class="cls-1" d="M178.9,58.38a1.836,1.836,0,0,1,1.88-1.88h0a1.836,1.836,0,0,1,1.88,1.88h0a1.836,1.836,0,0,1-1.88,1.88h0a1.836,1.836,0,0,1-1.88-1.88Z" transform="translate(27.509 -56.5)"/>
      <path id="Path_3426" data-name="Path 3426" class="cls-1" d="M168.6,58.38a1.836,1.836,0,0,1,1.88-1.88h0a1.836,1.836,0,0,1,1.88,1.88h0a1.836,1.836,0,0,1-1.88,1.88h0a1.921,1.921,0,0,1-1.88-1.88Z" transform="translate(23.977 -56.5)"/>
      <path id="Path_3427" data-name="Path 3427" class="cls-1" d="M158.4,58.38a1.836,1.836,0,0,1,1.88-1.88h0a1.836,1.836,0,0,1,1.88,1.88h0a1.836,1.836,0,0,1-1.88,1.88h0a1.836,1.836,0,0,1-1.88-1.88Z" transform="translate(20.479 -56.5)"/>
      <path id="Path_3428" data-name="Path 3428" class="cls-1" d="M148.1,58.38a1.836,1.836,0,0,1,1.88-1.88h0a1.836,1.836,0,0,1,1.88,1.88h0a1.836,1.836,0,0,1-1.88,1.88h0a1.921,1.921,0,0,1-1.88-1.88Z" transform="translate(16.947 -56.5)"/>
      <path id="Path_3429" data-name="Path 3429" class="cls-1" d="M137.9,58.38a1.836,1.836,0,0,1,1.88-1.88h0a1.836,1.836,0,0,1,1.88,1.88h0a1.836,1.836,0,0,1-1.88,1.88h0a1.836,1.836,0,0,1-1.88-1.88Z" transform="translate(13.449 -56.5)"/>
      <path id="Path_3430" data-name="Path 3430" class="cls-1" d="M127.6,58.38a1.836,1.836,0,0,1,1.88-1.88h0a1.836,1.836,0,0,1,1.88,1.88h0a1.836,1.836,0,0,1-1.88,1.88h0a1.921,1.921,0,0,1-1.88-1.88Z" transform="translate(9.917 -56.5)"/>
      <path id="Path_3431" data-name="Path 3431" class="cls-1" d="M117.4,58.38a1.836,1.836,0,0,1,1.88-1.88h0a1.836,1.836,0,0,1,1.88,1.88h0a1.836,1.836,0,0,1-1.88,1.88h0a1.836,1.836,0,0,1-1.88-1.88Z" transform="translate(6.419 -56.5)"/>
      <path id="Path_3432" data-name="Path 3432" class="cls-1" d="M107.1,58.38a1.836,1.836,0,0,1,1.88-1.88h0a1.836,1.836,0,0,1,1.88,1.88h0a1.836,1.836,0,0,1-1.88,1.88h0a1.921,1.921,0,0,1-1.88-1.88Z" transform="translate(2.887 -56.5)"/>
      <path id="Path_3433" data-name="Path 3433" class="cls-1" d="M96.9,58.38a1.836,1.836,0,0,1,1.88-1.88h0a1.836,1.836,0,0,1,1.88,1.88h0a1.836,1.836,0,0,1-1.88,1.88h0a1.836,1.836,0,0,1-1.88-1.88Z" transform="translate(-0.611 -56.5)"/>
      <path id="Path_3434" data-name="Path 3434" class="cls-1" d="M86.7,58.38a1.836,1.836,0,0,1,1.88-1.88h0a1.836,1.836,0,0,1,1.88,1.88h0a1.836,1.836,0,0,1-1.88,1.88h0a1.836,1.836,0,0,1-1.88-1.88Z" transform="translate(-4.109 -56.5)"/>
      <path id="Path_3435" data-name="Path 3435" class="cls-1" d="M76.4,58.38a1.836,1.836,0,0,1,1.88-1.88h0a1.836,1.836,0,0,1,1.88,1.88h0a1.836,1.836,0,0,1-1.88,1.88h0a1.836,1.836,0,0,1-1.88-1.88Z" transform="translate(-7.642 -56.5)"/>
      <path id="Path_3436" data-name="Path 3436" class="cls-1" d="M66.2,58.38a1.836,1.836,0,0,1,1.88-1.88h0a1.836,1.836,0,0,1,1.88,1.88h0a1.836,1.836,0,0,1-1.88,1.88h0a1.836,1.836,0,0,1-1.88-1.88Z" transform="translate(-11.14 -56.5)"/>
      <path id="Path_3437" data-name="Path 3437" class="cls-1" d="M55.9,58.38a1.836,1.836,0,0,1,1.88-1.88h0a1.836,1.836,0,0,1,1.88,1.88h0a1.836,1.836,0,0,1-1.88,1.88h0a1.836,1.836,0,0,1-1.88-1.88Z" transform="translate(-14.672 -56.5)"/>
      <path id="Path_3438" data-name="Path 3438" class="cls-1" d="M45.7,58.38a1.836,1.836,0,0,1,1.88-1.88h0a1.836,1.836,0,0,1,1.88,1.88h0a1.836,1.836,0,0,1-1.88,1.88h0a1.836,1.836,0,0,1-1.88-1.88Z" transform="translate(-18.17 -56.5)"/>
      <path id="Path_3439" data-name="Path 3439" class="cls-1" d="M35.4,58.38a1.836,1.836,0,0,1,1.88-1.88h0a1.836,1.836,0,0,1,1.88,1.88h0a1.836,1.836,0,0,1-1.88,1.88h0a1.836,1.836,0,0,1-1.88-1.88Z" transform="translate(-21.702 -56.5)"/>
      <path id="Path_3440" data-name="Path 3440" class="cls-1" d="M25.2,58.38a1.836,1.836,0,0,1,1.88-1.88h0a1.836,1.836,0,0,1,1.88,1.88h0a1.836,1.836,0,0,1-1.88,1.88h0a1.836,1.836,0,0,1-1.88-1.88Z" transform="translate(-25.2 -56.5)"/>
    </g>
    <g id="Group_139" data-name="Group 139">
      <path id="Path_3441" data-name="Path 3441" class="cls-1" d="M194.3,52.18a1.836,1.836,0,0,1,1.88-1.88h0a1.836,1.836,0,0,1,1.88,1.88h0a1.836,1.836,0,0,1-1.88,1.88h0a1.762,1.762,0,0,1-1.88-1.88Z" transform="translate(39.774 -50.3)"/>
      <path id="Path_3442" data-name="Path 3442" class="cls-1" d="M184,52.18a1.836,1.836,0,0,1,1.88-1.88h0a1.836,1.836,0,0,1,1.88,1.88h0a1.836,1.836,0,0,1-1.88,1.88h0A1.762,1.762,0,0,1,184,52.18Z" transform="translate(36.242 -50.3)"/>
      <path id="Path_3443" data-name="Path 3443" class="cls-1" d="M173.8,52.18a1.836,1.836,0,0,1,1.88-1.88h0a1.836,1.836,0,0,1,1.88,1.88h0a1.836,1.836,0,0,1-1.88,1.88h0a1.762,1.762,0,0,1-1.88-1.88Z" transform="translate(32.744 -50.3)"/>
      <path id="Path_3444" data-name="Path 3444" class="cls-1" d="M163.5,52.18a1.836,1.836,0,0,1,1.88-1.88h0a1.836,1.836,0,0,1,1.88,1.88h0a1.836,1.836,0,0,1-1.88,1.88h0a1.762,1.762,0,0,1-1.88-1.88Z" transform="translate(29.211 -50.3)"/>
      <path id="Path_3445" data-name="Path 3445" class="cls-1" d="M153.3,52.18a1.836,1.836,0,0,1,1.88-1.88h0a1.836,1.836,0,0,1,1.88,1.88h0a1.836,1.836,0,0,1-1.88,1.88h0a1.762,1.762,0,0,1-1.88-1.88Z" transform="translate(25.714 -50.3)"/>
      <path id="Path_3446" data-name="Path 3446" class="cls-1" d="M143,52.18a1.836,1.836,0,0,1,1.88-1.88h0a1.836,1.836,0,0,1,1.88,1.88h0a1.836,1.836,0,0,1-1.88,1.88h0A1.762,1.762,0,0,1,143,52.18Z" transform="translate(22.181 -50.3)"/>
      <path id="Path_3447" data-name="Path 3447" class="cls-1" d="M132.8,52.18a1.836,1.836,0,0,1,1.88-1.88h0a1.836,1.836,0,0,1,1.88,1.88h0a1.836,1.836,0,0,1-1.88,1.88h0a1.762,1.762,0,0,1-1.88-1.88Z" transform="translate(18.683 -50.3)"/>
      <path id="Path_3448" data-name="Path 3448" class="cls-1" d="M122.5,52.18a1.836,1.836,0,0,1,1.88-1.88h0a1.836,1.836,0,0,1,1.88,1.88h0a1.836,1.836,0,0,1-1.88,1.88h0a1.833,1.833,0,0,1-1.88-1.88Z" transform="translate(15.151 -50.3)"/>
      <path id="Path_3449" data-name="Path 3449" class="cls-1" d="M112.3,52.18a1.836,1.836,0,0,1,1.88-1.88h0a1.836,1.836,0,0,1,1.88,1.88h0a1.836,1.836,0,0,1-1.88,1.88h0a1.762,1.762,0,0,1-1.88-1.88Z" transform="translate(11.653 -50.3)"/>
      <path id="Path_3450" data-name="Path 3450" class="cls-1" d="M102,52.18a1.836,1.836,0,0,1,1.88-1.88h0a1.836,1.836,0,0,1,1.88,1.88h0a1.836,1.836,0,0,1-1.88,1.88h0A1.833,1.833,0,0,1,102,52.18Z" transform="translate(8.121 -50.3)"/>
      <path id="Path_3451" data-name="Path 3451" class="cls-1" d="M91.8,52.18a1.836,1.836,0,0,1,1.88-1.88h0a1.836,1.836,0,0,1,1.88,1.88h0a1.836,1.836,0,0,1-1.88,1.88h0a1.762,1.762,0,0,1-1.88-1.88Z" transform="translate(4.623 -50.3)"/>
      <path id="Path_3452" data-name="Path 3452" class="cls-1" d="M81.5,52.18a1.836,1.836,0,0,1,1.88-1.88h0a1.836,1.836,0,0,1,1.88,1.88h0a1.836,1.836,0,0,1-1.88,1.88h0a1.833,1.833,0,0,1-1.88-1.88Z" transform="translate(1.091 -50.3)"/>
      <path id="Path_3453" data-name="Path 3453" class="cls-1" d="M71.3,52.18a1.836,1.836,0,0,1,1.88-1.88h0a1.836,1.836,0,0,1,1.88,1.88h0a1.836,1.836,0,0,1-1.88,1.88h0a1.762,1.762,0,0,1-1.88-1.88Z" transform="translate(-2.407 -50.3)"/>
      <path id="Path_3454" data-name="Path 3454" class="cls-1" d="M61,52.18a1.836,1.836,0,0,1,1.88-1.88h0a1.836,1.836,0,0,1,1.88,1.88h0a1.836,1.836,0,0,1-1.88,1.88h0A1.833,1.833,0,0,1,61,52.18Z" transform="translate(-5.94 -50.3)"/>
      <path id="Path_3455" data-name="Path 3455" class="cls-1" d="M50.8,52.18a1.836,1.836,0,0,1,1.88-1.88h0a1.836,1.836,0,0,1,1.88,1.88h0a1.836,1.836,0,0,1-1.88,1.88h0a1.762,1.762,0,0,1-1.88-1.88Z" transform="translate(-9.438 -50.3)"/>
      <path id="Path_3456" data-name="Path 3456" class="cls-1" d="M40.5,52.18a1.836,1.836,0,0,1,1.88-1.88h0a1.836,1.836,0,0,1,1.88,1.88h0a1.836,1.836,0,0,1-1.88,1.88h0a1.833,1.833,0,0,1-1.88-1.88Z" transform="translate(-12.97 -50.3)"/>
      <path id="Path_3457" data-name="Path 3457" class="cls-1" d="M30.3,52.18a1.836,1.836,0,0,1,1.88-1.88h0a1.836,1.836,0,0,1,1.88,1.88h0a1.836,1.836,0,0,1-1.88,1.88h0a1.762,1.762,0,0,1-1.88-1.88Z" transform="translate(-16.468 -50.3)"/>
      <path id="Path_3458" data-name="Path 3458" class="cls-1" d="M20,52.18a1.836,1.836,0,0,1,1.88-1.88h0a1.836,1.836,0,0,1,1.88,1.88h0a1.836,1.836,0,0,1-1.88,1.88h0A1.833,1.833,0,0,1,20,52.18Z" transform="translate(-20 -50.3)"/>
    </g>
  </g>
</svg>
