<svg xmlns="http://www.w3.org/2000/svg" viewBox="0 0 198.88 128.82">
  <title>kofe</title>
  <g>
    <path d="M0,20.74c1.73,33,3.54,65.94,5.27,99,.19,4.31,7,4.4,6.79,0-1.72-33-3.54-65.94-5.26-99C6.6,16.44-.19,16.44,0,20.74Z" transform="translate(0 0)" fill="#18052e"/>
    <path d="M10.05,53.28Q35.46,32.33,62.12,13c3.54-2.58.1-8.42-3.45-5.84Q31.25,27,5.17,48.5C1.82,51.27,6.7,56.06,10.05,53.28Z" transform="translate(0 0)" fill="#18052e"/>
    <path d="M15.22,45.44q35.18,41.63,71.39,82.3c2.88,3.25,7.66-1.54,4.79-4.79Q55.08,82.33,20,40.65c-2.88-3.35-7.66,1.53-4.79,4.78Z" transform="translate(0 0)" fill="#18052e"/>
    <path d="M69,42.66c-7.08,4.6-4.3,17.8-2.77,24.4,1.53,6.8,4.21,16.56,12.92,14.74s18.95-6.79,25-13.21c6.51-6.89,2-13.87-4.5-18.85C92.35,44,78.09,36.44,69,42.66c-3.54,2.49-.19,8.33,3.45,5.84,6.6-4.5,18.76,3,23.83,7.18,2.1,1.72,5.45,4.3,3.92,7.08-1.82,3.25-6.7,5.64-9.86,7.37A53.56,53.56,0,0,1,78.67,75a6,6,0,0,1-1.92.38c-1,0-.28-.1.1.19-1-.76-1.72-2.68-2.2-3.83a46.37,46.37,0,0,1-3.06-13.4c-.19-1.91-1.15-8.61.77-9.85,3.73-2.4.38-8.23-3.35-5.84Z" transform="translate(0 0)" fill="#18052e"/>
    <path d="M122.12,106.88C125.47,81,129.68,55.39,135,29.93,137.24,19.4,140.78,8,153.22,6.87c9.48-.86,16.85,6.5,26.51,4.88,4.31-.67,2.49-7.28-1.82-6.51-5.55.86-10-2.49-15-4.12A26.2,26.2,0,0,0,148.05,1C137.14,4,132,13.66,129.49,23.9,122.89,51.08,119,79.21,115.32,107c-.57,4.21,6.23,4.11,6.8-.1Z" transform="translate(0 0)" fill="#18052e"/>
    <path d="M130.07,41.89a78.5,78.5,0,0,0,16.17,3.55c4.31.47,4.31-6.32,0-6.8a68.85,68.85,0,0,1-14.45-3.25c-4-1.44-5.84,5.16-1.72,6.5Z" transform="translate(0 0)" fill="#18052e"/>
    <path d="M192.08,94.72c1.72,10.72-8.52,15.12-17.61,13.21-12.16-2.59-20.77-16.85-17-28.71a18.58,18.58,0,0,1,13-12.35c5.64-1.53,16.17.19,13.68,8.23-2.2,7.27-9.47,9.57-16.17,11.29a70.66,70.66,0,0,1-21.54,1.82c-4.4-.28-4.3,6.51,0,6.8a75.44,75.44,0,0,0,24.89-2.49c7-2,13.59-4.59,17.41-11.1,3.26-5.55,4-12.35-.95-17.13-4.79-4.6-12.16-5.55-18.47-4-14.36,3.35-22,18.18-18.66,32.06,3.15,12.92,15.6,23.35,29,23,12.53-.39,21-9.57,18.94-22.2-.67-4.5-7.17-2.68-6.5,1.62Z" transform="translate(0 0)" fill="#18052e"/>
  </g>
</svg>
