<svg xmlns="http://www.w3.org/2000/svg" viewBox="-1272 640 120.882 78.301">
  <defs>
    <style>
      .cls-1 {
        fill: #18052e;
      }
    </style>
  </defs>
  <g id="Group_225" data-name="Group 225" transform="translate(-5707 777)">
    <path id="Path_3010" data-name="Path 3010" class="cls-1" d="M0,20.388C1.045,40.456,2.15,60.466,3.2,80.535c.116,2.618,4.246,2.676,4.13,0C6.28,60.466,5.175,40.456,4.128,20.388c-.116-2.618-4.246-2.618-4.13,0Z" transform="translate(4435.004 -144.78)"/>
    <path id="Path_3011" data-name="Path 3011" class="cls-1" d="M7.875,35.355Q23.319,22.616,39.519,10.866c2.152-1.571.058-5.119-2.094-3.548Q20.759,19.359,4.908,32.447c-2.036,1.687.931,4.6,2.967,2.908Z" transform="translate(4433.236 -139.97)"/>
    <path id="Path_3012" data-name="Path 3012" class="cls-1" d="M15.513,45.016Q36.89,70.32,58.907,95.041c1.745,1.978,4.653-.931,2.908-2.908Q39.74,67.44,18.421,42.108c-1.745-2.036-4.653.931-2.908,2.908Z" transform="translate(4428.739 -154.401)"/>
    <path id="Path_3013" data-name="Path 3013" class="cls-1" d="M70.082,43.681c-4.3,2.792-2.618,10.819-1.687,14.833.931,4.13,2.559,10.063,7.853,8.958,5.235-1.047,11.517-4.13,15.182-8.027,3.955-4.188,1.222-8.434-2.734-11.459-4.421-3.49-13.088-8.085-18.614-4.3-2.152,1.512-.116,5.061,2.094,3.548,4.014-2.734,11.4,1.8,14.484,4.363,1.28,1.047,3.316,2.618,2.385,4.3-1.105,1.978-4.072,3.432-5.991,4.479a32.763,32.763,0,0,1-7.1,2.967,3.761,3.761,0,0,1-1.163.233c-.582,0-.174-.058.058.116a5.815,5.815,0,0,1-1.338-2.327,28.088,28.088,0,0,1-1.861-8.144c-.116-1.163-.7-5.235.465-5.991,2.269-1.454.233-5-2.036-3.548Z" transform="translate(4406.86 -154.752)"/>
    <path id="Path_3014" data-name="Path 3014" class="cls-1" d="M124.615,65.085c2.036-15.706,4.6-31.295,7.853-46.768C133.806,11.919,135.958,5,143.52,4.3c5.759-.524,10.238,3.955,16.113,2.967,2.618-.407,1.512-4.421-1.105-3.955-3.374.524-6.108-1.512-9.132-2.5A15.856,15.856,0,0,0,140.379.75c-6.631,1.8-9.772,7.678-11.285,13.9-4.014,16.52-6.4,33.621-8.609,50.49-.349,2.559,3.781,2.5,4.13-.058Z" transform="translate(4384.61 -137.125)"/>
    <path id="Path_3015" data-name="Path 3015" class="cls-1" d="M134.882,40.967a47.9,47.9,0,0,0,9.83,2.152c2.618.291,2.618-3.839,0-4.13a41.705,41.705,0,0,1-8.783-1.978c-2.443-.873-3.548,3.141-1.047,3.955Z" transform="translate(4379.171 -152.503)"/>
    <path id="Path_3016" data-name="Path 3016" class="cls-1" d="M179.319,83.745c1.047,6.515-5.177,9.191-10.7,8.027-7.387-1.571-12.622-10.238-10.354-17.451a11.284,11.284,0,0,1,7.911-7.5c3.432-.931,9.83.116,8.318,5-1.338,4.421-5.759,5.817-9.83,6.864a43.072,43.072,0,0,1-13.088,1.105c-2.676-.175-2.618,3.955,0,4.13A45.726,45.726,0,0,0,166.7,82.407c4.246-1.222,8.26-2.792,10.587-6.748,1.978-3.374,2.443-7.5-.582-10.412-2.908-2.792-7.387-3.374-11.227-2.443-8.725,2.036-13.379,11.052-11.343,19.487,1.92,7.853,9.481,14.193,17.625,13.96,7.62-.233,12.739-5.817,11.517-13.5-.407-2.734-4.363-1.629-3.955.989Z" transform="translate(4372.428 -163.173)"/>
  </g>
</svg>
