<svg xmlns="http://www.w3.org/2000/svg" viewBox="0 0 216.709 166.186">
  <defs>
    <style>
      .cls-1 {
        fill: #3f2a3d;
      }

      .cls-2 {
        fill: #65c8d0;
      }
    </style>
  </defs>
  <g id="Group_177" data-name="Group 177" transform="translate(-641 -417.203)">
    <g id="Group_174" data-name="Group 174" transform="translate(670 442.523)">
      <path id="Path_3468" data-name="Path 3468" class="cls-1" d="M67.745,205.555l40.465,5.146h0l59.879-59.879L108.209,90.71,67.745,86.5,8.1,146.145Zm.936-2.105-55.9-55.9,36.956,4.678,55.9,55.9ZM108.209,93.985l56.838,56.838L108.209,207.66,51.372,150.823Zm-2.105-1.17L49.033,149.887l-1.871-.234-35.085-4.444,56.6-56.37Z" transform="translate(-8.1 -86.5)"/>
    </g>
    <g id="Group_175" data-name="Group 175" transform="translate(641 417.203)">
      <g id="Group_147" data-name="Group 147" transform="translate(68.299 17.543)">
        <path id="Path_3469" data-name="Path 3469" class="cls-2" d="M129.792,183.892a1.835,1.835,0,0,1-2.573,0L65,121.674a1.835,1.835,0,0,1,0-2.573h0a1.835,1.835,0,0,1,2.573,0l62.218,62.218a1.835,1.835,0,0,1,0,2.573Z" transform="translate(18.092 -35.774)"/>
        <path id="Path_3470" data-name="Path 3470" class="cls-2" d="M78.071,132.071a1.835,1.835,0,0,1-2.573,0l-26.2-26.2a1.835,1.835,0,0,1,0-2.573h0a1.835,1.835,0,0,1,2.573,0l26.2,26.2a1.836,1.836,0,0,1,0,2.573Z" transform="translate(-2.93 -56.931)"/>
        <path id="Path_3471" data-name="Path 3471" class="cls-2" d="M51.261,105.361a1.835,1.835,0,0,1-2.573,0L40.5,97.174a1.835,1.835,0,0,1,0-2.573h0a1.835,1.835,0,0,1,2.573,0l8.187,8.187a1.835,1.835,0,0,1,0,2.573Z" transform="translate(-14.714 -68.58)"/>
        <path id="Path_3472" data-name="Path 3472" class="cls-2" d="M41.115,95.115a1.835,1.835,0,0,1-2.573,0L35.5,92.074a1.835,1.835,0,0,1,0-2.573h0a1.835,1.835,0,0,1,2.573,0l3.041,3.041a1.835,1.835,0,0,1,0,2.573Z" transform="translate(-21.409 -75.409)"/>
        <path id="Path_3473" data-name="Path 3473" class="cls-2" d="M35.315,89.315a1.835,1.835,0,0,1-2.573,0L29.7,86.274a1.835,1.835,0,0,1,0-2.573h0a1.835,1.835,0,0,1,2.573,0l3.041,3.041a1.835,1.835,0,0,1,0,2.573Z" transform="translate(-29.175 -83.175)"/>
      </g>
      <g id="Group_148" data-name="Group 148">
        <path id="Path_3474" data-name="Path 3474" class="cls-2" d="M100.692,176.292a1.835,1.835,0,0,1-2.573,0L35.9,114.074a1.835,1.835,0,0,1,0-2.573h0a1.835,1.835,0,0,1,2.573,0l62.218,62.218a1.835,1.835,0,0,1,0,2.573Z" transform="translate(47.426 -28.408)"/>
        <path id="Path_3475" data-name="Path 3475" class="cls-2" d="M49.1,124.571a1.835,1.835,0,0,1-2.573,0L20.1,98.374a1.835,1.835,0,0,1,0-2.573h0a1.835,1.835,0,0,1,2.573,0l26.2,26.2a1.669,1.669,0,0,1,.234,2.573Z" transform="translate(26.27 -49.431)"/>
        <path id="Path_3476" data-name="Path 3476" class="cls-2" d="M22.161,97.761a1.835,1.835,0,0,1-2.573,0L11.4,89.574A1.835,1.835,0,0,1,11.4,87h0a1.835,1.835,0,0,1,2.573,0l8.187,7.953a2.129,2.129,0,0,1,0,2.807Z" transform="translate(14.62 -61.214)"/>
        <path id="Path_3477" data-name="Path 3477" class="cls-2" d="M11.915,87.515a1.835,1.835,0,0,1-2.573,0L6.3,84.474a1.835,1.835,0,0,1,0-2.573h0a1.835,1.835,0,0,1,2.573,0l3.041,3.041a1.835,1.835,0,0,1,0,2.573Z" transform="translate(7.791 -68.043)"/>
        <path id="Path_3478" data-name="Path 3478" class="cls-2" d="M6.115,81.815a1.835,1.835,0,0,1-2.573,0L.5,78.774A1.835,1.835,0,0,1,.5,76.2h0a1.835,1.835,0,0,1,2.573,0l3.041,3.041a1.835,1.835,0,0,1,0,2.573Z" transform="translate(0.025 -75.675)"/>
      </g>
    </g>
  </g>
</svg>
