<svg width="56" height="55" viewBox="0 0 56 55" fill="none" xmlns="http://www.w3.org/2000/svg">
<path d="M56 27.5C56 42.6878 37.7424 55 28.1966 55C12.8412 55 3.38648 44.4694 0.393166 27.5C-2.68426 10.0538 12.8412 0 28.1966 0C43.552 0 56 12.3122 56 27.5Z" fill="url(#paint0_linear)"/>
<g opacity="0.8">
<path d="M40.0188 28.0002H13.9828C13.5858 28.0002 13.2268 27.7562 13.0748 27.3832C12.9228 27.0092 13.0068 26.5793 13.2878 26.2933L25.0768 14.2932C25.4608 13.9022 26.0818 13.9022 26.4658 14.2932C26.8498 14.6842 26.8498 15.3162 26.4658 15.7072L16.3548 26.0002H40.0178C40.5618 26.0002 41.0008 26.4482 41.0008 27.0002C41.0008 27.5522 40.5618 28.0002 40.0188 28.0002Z" fill="#89536B"/>
<path d="M25.7727 40.0003C25.5217 40.0003 25.2697 39.9023 25.0777 39.7073L17.2177 31.7073C16.8337 31.3163 16.8337 30.6842 17.2177 30.2932C17.6017 29.9022 18.2227 29.9022 18.6067 30.2932L26.4667 38.2933C26.8507 38.6842 26.8507 39.3163 26.4667 39.7073C26.2757 39.9023 26.0237 40.0003 25.7727 40.0003Z" fill="#89536B"/>
</g>
<defs>
<linearGradient id="paint0_linear" x1="28" y1="0" x2="28" y2="55" gradientUnits="userSpaceOnUse">
<stop stop-color="#F0E2BB"/>
<stop offset="1" stop-color="#FFEDF3"/>
</linearGradient>
</defs>
</svg>
