<svg width="26" height="28" viewBox="0 0 26 28" fill="none" xmlns="http://www.w3.org/2000/svg">
<path d="M11.9997 27.0188L11.9998 0.982781C11.9998 0.585781 12.2438 0.226781 12.6168 0.0747805C12.9908 -0.0772194 13.4207 0.00678064 13.7067 0.287781L25.7067 12.0768C26.0977 12.4608 26.0977 13.0818 25.7067 13.4658C25.3157 13.8498 24.6837 13.8498 24.2927 13.4658L13.9997 3.35478L13.9997 27.0178C13.9997 27.5618 13.5517 28.0008 12.9997 28.0008C12.4477 28.0008 11.9997 27.5618 11.9997 27.0188Z" fill="#FFBE2E"/>
<path d="M-0.000251203 12.7727C-0.000251192 12.5217 0.0977484 12.2697 0.292748 12.0777L8.29275 4.21769C8.68375 3.83369 9.31575 3.83369 9.70675 4.21769C10.0977 4.60169 10.0977 5.22269 9.70675 5.60669L1.70675 13.4667C1.31575 13.8507 0.683748 13.8507 0.292748 13.4667C0.0977483 13.2757 -0.000251214 13.0237 -0.000251203 12.7727Z" fill="#FFBE2E"/>
</svg>
