<svg width="26" height="28" viewBox="0 0 26 28" fill="none" xmlns="http://www.w3.org/2000/svg">
<path d="M11.9998 0.982L11.9997 27.017C11.9997 27.414 12.2437 27.773 12.6167 27.925C12.9907 28.077 13.4207 27.993 13.7067 27.712L25.7067 15.923C26.0977 15.539 26.0977 14.918 25.7067 14.534C25.3157 14.15 24.6837 14.15 24.2927 14.534L13.9997 24.646L13.9998 0.982C13.9998 0.439 13.5518 -5.4413e-07 12.9998 -5.68259e-07C12.4478 -5.92388e-07 11.9998 0.439 11.9998 0.982Z" fill="#FFBE2E"/>
<path d="M-0.000250859 15.2281C-0.00025087 15.4791 0.0977487 15.7311 0.292748 15.9231L8.29275 23.7831C8.68375 24.1671 9.31575 24.1671 9.70675 23.7831C10.0977 23.3991 10.0977 22.7781 9.70675 22.3941L1.70675 14.5341C1.31575 14.1501 0.683748 14.1501 0.292748 14.5341C0.0977487 14.7251 -0.000250848 14.9771 -0.000250859 15.2281Z" fill="#FFBE2E"/>
</svg>
