<svg width="28" height="26" viewBox="0 0 28 26" fill="none" xmlns="http://www.w3.org/2000/svg">
<path d="M0.982 14.0002H27.017C27.414 14.0002 27.773 13.7562 27.925 13.3832C28.077 13.0092 27.993 12.5793 27.712 12.2933L15.923 0.29325C15.539 -0.09775 14.918 -0.09775 14.534 0.29325C14.15 0.68425 14.15 1.31625 14.534 1.70725L24.646 12.0002H0.982C0.439 12.0002 0 12.4482 0 13.0002C0 13.5522 0.439 14.0002 0.982 14.0002Z" fill="#FFBE2E"/>
<path d="M15.2281 26.0003C15.4791 26.0003 15.7311 25.9023 15.9231 25.7073L23.7831 17.7073C24.1671 17.3163 24.1671 16.6842 23.7831 16.2932C23.3991 15.9022 22.7781 15.9022 22.3941 16.2932L14.5341 24.2933C14.1501 24.6842 14.1501 25.3163 14.5341 25.7073C14.7251 25.9023 14.9771 26.0003 15.2281 26.0003Z" fill="#FFBE2E"/>
</svg>
