<svg width="28" height="26" viewBox="0 0 28 26" fill="none" xmlns="http://www.w3.org/2000/svg">
<path d="M27.0188 14.0002H0.982781C0.585781 14.0002 0.226781 13.7562 0.0747811 13.3832C-0.0772189 13.0092 0.00678119 12.5793 0.287781 12.2933L12.0768 0.29325C12.4608 -0.09775 13.0818 -0.09775 13.4658 0.29325C13.8498 0.68425 13.8498 1.31625 13.4658 1.70725L3.35478 12.0002H27.0178C27.5618 12.0002 28.0008 12.4482 28.0008 13.0002C28.0008 13.5522 27.5618 14.0002 27.0188 14.0002Z" fill="#FFBE2E"/>
<path d="M12.7727 26.0003C12.5217 26.0003 12.2697 25.9023 12.0777 25.7073L4.21769 17.7073C3.83369 17.3163 3.83369 16.6842 4.21769 16.2932C4.60169 15.9022 5.22269 15.9022 5.60669 16.2932L13.4667 24.2933C13.8507 24.6842 13.8507 25.3163 13.4667 25.7073C13.2757 25.9023 13.0237 26.0003 12.7727 26.0003Z" fill="#FFBE2E"/>
</svg>
