<svg width="42" height="41" viewBox="0 0 42 41" fill="none" xmlns="http://www.w3.org/2000/svg">
<path d="M20.6102 41C20.567 41 20.567 41 20.6102 41C15.0802 41 9.93897 38.8399 6.05067 34.9855C-0.991476 27.9545 -1.98515 16.9421 3.58808 8.76756C3.76089 8.47107 4.14972 8.42872 4.40894 8.59814C4.66816 8.76756 4.75457 9.14876 4.58176 9.44525C-0.689053 17.1116 0.304624 27.4886 6.91474 34.0961C10.587 37.7386 15.4258 39.7717 20.567 39.7717H20.6102C25.7514 39.7717 30.5902 37.781 34.2193 34.1384C41.6934 26.6415 41.6502 14.4008 34.1329 6.81921C31.0222 3.72727 26.9611 1.77893 22.6408 1.27066V22.3213C22.6408 22.6601 22.3815 22.9143 22.0359 22.9143H8.77248C8.42686 22.9143 8.16764 22.6601 8.16764 22.3213C8.16764 21.9824 8.42686 21.7283 8.77248 21.7283H21.4311V0.592975C21.4311 0.423554 21.5175 0.254132 21.6039 0.127066C21.7335 0.0423554 21.9063 0 22.0791 0C26.9611 0.381198 31.5407 2.49897 34.9969 5.97211C42.9895 13.9773 43.0327 27.0227 35.0401 35.0279C31.195 38.8822 26.0538 41 20.6102 41Z" fill="#89536B"/>
<path d="M7.56275 7.96283C6.9579 7.96283 6.43946 7.75105 6.00743 7.3275C5.6186 6.90394 5.35938 6.35332 5.35938 5.8027C5.35938 5.20973 5.57539 4.65911 6.00743 4.27791C6.39626 3.85435 6.9579 3.64258 7.51954 3.64258C8.08119 3.64258 8.64283 3.85435 9.07487 4.27791C9.4637 4.70146 9.72292 5.25208 9.72292 5.8027C9.72292 6.39568 9.5069 6.9463 9.07487 7.3275C8.68603 7.70869 8.16759 7.96283 7.56275 7.96283ZM7.56275 4.82853C7.30353 4.82853 7.08751 4.91324 6.87149 5.12502C6.69868 5.29444 6.61227 5.54857 6.61227 5.8027C6.61227 6.05683 6.69868 6.31097 6.9147 6.48039C7.08751 6.64981 7.34673 6.77688 7.60595 6.77688C7.86517 6.77688 8.08119 6.69216 8.2972 6.48039C8.47002 6.31097 8.55642 6.05683 8.55642 5.8027C8.55642 5.54857 8.47002 5.29444 8.254 5.12502C8.08119 4.91324 7.82197 4.82853 7.56275 4.82853Z" fill="#89536B"/>
</svg>
