<svg width="32" height="32" viewBox="0 0 32 32" fill="none" xmlns="http://www.w3.org/2000/svg">
<g clip-path="url(#clip0)">
<path d="M11.312 12.766C11.506 12.961 11.761 13.058 12.016 13.058C12.271 13.058 12.526 12.961 12.72 12.766C13.109 12.377 13.109 11.746 12.72 11.357L4.75499 3.38404C4.36599 2.99504 3.73599 2.99504 3.34699 3.38404C2.95799 3.77304 2.95799 4.40404 3.34699 4.79304L11.312 12.766Z" fill="#89536B"/>
<path d="M17.407 16.048L28.652 4.79303C29.041 4.40403 29.041 3.77303 28.652 3.38403C28.263 2.99503 27.633 2.82303 27.244 3.21303L15.296 15H15V15.345L3.19997 27.303C2.81097 27.692 2.88497 28.323 3.27297 28.712C3.46697 28.907 3.75897 29.004 4.01397 29.004C4.26897 29.004 4.54197 28.907 4.73597 28.712L15.99 17.458L27.239 28.713C27.433 28.908 27.691 29.005 27.945 29.005C28.199 29.005 28.456 28.908 28.65 28.713C29.039 28.324 29.04 27.693 28.651 27.304L17.407 16.048Z" fill="#89536B"/>
</g>
<defs>
<clipPath id="clip0">
<rect width="32" height="32" fill="white"/>
</clipPath>
</defs>
</svg>
