<svg width="926" height="511" viewBox="0 0 926 511" fill="none" xmlns="http://www.w3.org/2000/svg">
<rect x="1.37891" y="478.763" width="923.036" height="17.3635" rx="1" fill="#FFEDF3" stroke="#58223A" stroke-width="2"/>
<path d="M0.378906 496.107H925.415L906.263 510.375H19.5308L0.378906 496.107Z" fill="#58223A"/>
<path d="M396.653 477.763H529.141C529.141 482.828 525.034 486.935 519.968 486.935H405.826C400.76 486.935 396.653 482.828 396.653 477.763Z" fill="#58223A"/>
<path d="M71.0313 20.3319C71.0313 9.56234 79.7617 0.831909 90.5313 0.831909H835.264C846.033 0.831909 854.764 9.56236 854.764 20.3319V478.282H71.0313V20.3319Z" fill="#FFEDF3" stroke="#58223A"/>
<path d="M71.5313 20.3319C71.5313 9.8385 80.0379 1.33191 90.5313 1.33191H835.264C845.757 1.33191 854.264 9.8385 854.264 20.3319V445.533C854.264 456.026 845.757 464.533 835.264 464.533H90.5313C80.0379 464.533 71.5313 456.026 71.5313 445.533V20.3319Z" fill="#FFEDF3" stroke="#58223A" stroke-width="2"/>
<circle cx="462.388" cy="13.1321" r="6.62436" fill="#58223A"/>
</svg>
