<svg width="983" height="550" viewBox="0 0 983 550" fill="none" xmlns="http://www.w3.org/2000/svg">
<path d="M0 535.767H982.07L961.737 550H20.3327L0 535.767Z" fill="#89536B"/>
<path d="M424.953 517.468H557.116C557.116 522.521 553.019 526.617 547.966 526.617H434.103C429.05 526.617 424.953 522.521 424.953 517.468Z" fill="#89536B"/>
<path d="M100.131 20C100.131 9.23044 108.861 0.5 119.631 0.5H862.44C873.21 0.5 881.94 9.23045 881.94 20V517.984H100.131V20Z" stroke="#89536B"/>
<path d="M100.631 20C100.631 9.50659 109.137 1 119.631 1H862.44C872.934 1 881.44 9.50659 881.44 20V485.268C881.44 495.761 872.934 504.268 862.44 504.268H119.631C109.137 504.268 100.631 495.761 100.631 485.268V20Z" stroke="#89536B" stroke-width="2"/>
<path d="M121.477 26.3989C121.477 25.5705 122.148 24.8989 122.977 24.8989H859.087C859.916 24.8989 860.587 25.5705 860.587 26.3989V480.902C860.587 481.73 859.916 482.402 859.087 482.402H122.977C122.148 482.402 121.477 481.73 121.477 480.902V26.3989Z" fill="#F1E8EB" stroke="#89536B"/>
<circle cx="490.528" cy="12.7082" r="6.60813" fill="#89536B"/>
<rect x="1" y="518.468" width="980.07" height="17.3161" rx="1" stroke="#89536B" stroke-width="2"/>
</svg>
