<svg width="26" height="26" viewBox="0 0 26 26" fill="none" xmlns="http://www.w3.org/2000/svg">
<path d="M21 0H5C3.67392 0 2.40215 0.526784 1.46447 1.46447C0.526784 2.40215 0 3.67392 0 5V21C0 22.3261 0.526784 23.5979 1.46447 24.5355C2.40215 25.4732 3.67392 26 5 26H13C13.2652 26 13.5196 25.8946 13.7071 25.7071C13.8946 25.5196 14 25.2652 14 25V17C14 16.7348 13.8946 16.4804 13.7071 16.2929C13.5196 16.1054 13.2652 16 13 16H12V14H13C13.2652 14 13.5196 13.8946 13.7071 13.7071C13.8946 13.5196 14 13.2652 14 13V9.5C14 8.83696 14.2634 8.20107 14.7322 7.73223C15.2011 7.26339 15.837 7 16.5 7H19V9H18C17.4696 9 16.9609 9.21071 16.5858 9.58579C16.2107 9.96086 16 10.4696 16 11V13C16 13.2652 16.1054 13.5196 16.2929 13.7071C16.4804 13.8946 16.7348 14 17 14H18.72L18.22 16H17C16.7348 16 16.4804 16.1054 16.2929 16.2929C16.1054 16.4804 16 16.7348 16 17V21C16 21.2652 16.1054 21.5196 16.2929 21.7071C16.4804 21.8946 16.7348 22 17 22C17.2652 22 17.5196 21.8946 17.7071 21.7071C17.8946 21.5196 18 21.2652 18 21V18H19C19.2284 18.0067 19.4523 17.9349 19.6342 17.7966C19.8162 17.6583 19.9452 17.4619 20 17.24L21 13.24C21.0375 13.0924 21.0407 12.9382 21.0095 12.7892C20.9783 12.6401 20.9135 12.5002 20.82 12.38C20.7227 12.2567 20.5978 12.1581 20.4554 12.0921C20.3129 12.0261 20.1569 11.9945 20 12H18V11H20C20.2652 11 20.5196 10.8946 20.7071 10.7071C20.8946 10.5196 21 10.2652 21 10V6C21 5.73478 20.8946 5.48043 20.7071 5.29289C20.5196 5.10536 20.2652 5 20 5H16.5C15.3073 5.00264 14.1643 5.4776 13.3209 6.32094C12.4776 7.16428 12.0026 8.30734 12 9.5V12H11C10.7348 12 10.4804 12.1054 10.2929 12.2929C10.1054 12.4804 10 12.7348 10 13V17C10 17.2652 10.1054 17.5196 10.2929 17.7071C10.4804 17.8946 10.7348 18 11 18H12V24H5C4.20435 24 3.44129 23.6839 2.87868 23.1213C2.31607 22.5587 2 21.7956 2 21V5C2 4.20435 2.31607 3.44129 2.87868 2.87868C3.44129 2.31607 4.20435 2 5 2H21C21.7956 2 22.5587 2.31607 23.1213 2.87868C23.6839 3.44129 24 4.20435 24 5V21C24 21.7956 23.6839 22.5587 23.1213 23.1213C22.5587 23.6839 21.7956 24 21 24H17C16.7348 24 16.4804 24.1054 16.2929 24.2929C16.1054 24.4804 16 24.7348 16 25C16 25.2652 16.1054 25.5196 16.2929 25.7071C16.4804 25.8946 16.7348 26 17 26H21C22.3261 26 23.5979 25.4732 24.5355 24.5355C25.4732 23.5979 26 22.3261 26 21V5C26 3.67392 25.4732 2.40215 24.5355 1.46447C23.5979 0.526784 22.3261 0 21 0Z" fill="#89536B"/>
</svg>
