<svg width="26" height="26" viewBox="0 0 26 26" fill="none" xmlns="http://www.w3.org/2000/svg">
<path d="M17.45 10.3201C17.3269 10.3676 17.2145 10.439 17.1191 10.5302C17.0237 10.6214 16.9474 10.7306 16.8944 10.8514C16.8414 10.9723 16.8128 11.1024 16.8104 11.2343C16.8079 11.3662 16.8316 11.4973 16.88 11.6201C17.2095 12.4749 17.2356 13.417 16.9538 14.2888C16.6721 15.1605 16.0996 15.9091 15.3322 16.4095C14.5647 16.9098 13.6487 17.1315 12.7374 17.0376C11.8261 16.9436 10.9746 16.5396 10.3254 15.8932C9.67616 15.2468 9.26851 14.3971 9.17058 13.4862C9.07266 12.5753 9.2904 11.6584 9.7874 10.8887C10.2844 10.1191 11.0305 9.54339 11.9011 9.25787C12.7716 8.97234 13.7138 8.99431 14.57 9.32008C14.818 9.41424 15.0932 9.40602 15.3352 9.29725C15.5771 9.18848 15.7659 8.98806 15.86 8.74008C15.9542 8.49211 15.946 8.21688 15.8372 7.97496C15.7284 7.73304 15.528 7.54424 15.28 7.45008C13.9972 6.96482 12.5868 6.93373 11.2838 7.36201C9.98075 7.79028 8.86381 8.65205 8.11899 9.80378C7.37417 10.9555 7.04643 12.3277 7.19037 13.6917C7.3343 15.0557 7.94122 16.3292 8.91003 17.3001C10.035 18.4237 11.56 19.0548 13.15 19.0548C14.74 19.0548 16.265 18.4237 17.39 17.3001C18.2138 16.4785 18.7809 15.4352 19.0223 14.2971C19.2638 13.1591 19.1692 11.9753 18.75 10.8901C18.7025 10.767 18.6311 10.6545 18.5399 10.5592C18.4487 10.4638 18.3395 10.3874 18.2187 10.3344C18.0979 10.2814 17.9677 10.2529 17.8358 10.2504C17.7039 10.248 17.5728 10.2716 17.45 10.3201Z" fill="#89536B"/>
<path d="M20 7C20.5523 7 21 6.55228 21 6C21 5.44772 20.5523 5 20 5C19.4477 5 19 5.44772 19 6C19 6.55228 19.4477 7 20 7Z" fill="#89536B"/>
<path d="M25 6.00021C25.0003 4.69127 24.4872 3.43442 23.5711 2.49956C22.6549 1.5647 21.4087 1.02638 20.1 1.00021C15.4099 0.569593 10.6901 0.569593 6 1.00021C4.68766 1.00004 3.42787 1.51583 2.49245 2.43628C1.55703 3.35672 1.02099 4.60804 0.999997 5.92021C0.639975 10.6066 0.639975 15.3138 0.999997 20.0002C0.999736 21.3091 1.51277 22.566 2.42893 23.5008C3.3451 24.4357 4.59132 24.974 5.9 25.0002C8.26 25.2202 10.63 25.3402 13 25.3402C15.37 25.3402 17.71 25.2302 20.05 25.0002C21.3537 24.9873 22.6007 24.4658 23.5254 23.5467C24.4501 22.6276 24.9792 21.3838 25 20.0802C25.38 15.3946 25.38 10.6858 25 6.00021ZM23 20.0002C23 20.7959 22.6839 21.5589 22.1213 22.1215C21.5587 22.6841 20.7956 23.0002 20 23.0002H19.9C15.2776 23.4502 10.6224 23.4502 6 23.0002C5.59921 23.0003 5.20245 22.9202 4.83316 22.7644C4.46387 22.6087 4.12953 22.3805 3.84988 22.0934C3.57024 21.8063 3.35095 21.4661 3.20498 21.0928C3.05901 20.7196 2.98931 20.3209 3 19.9202C2.64999 15.2868 2.64999 10.6336 3 6.00021C2.99982 5.59855 3.08029 5.20095 3.23665 4.83098C3.39301 4.46101 3.62208 4.12621 3.91025 3.84642C4.19843 3.56664 4.53986 3.34757 4.91429 3.20221C5.28872 3.05685 5.68852 2.98816 6.09 3.00021C8.38333 2.79354 10.6833 2.68687 12.99 2.68021C15.2967 2.67354 17.6333 2.78021 20 3.00021C20.4008 3.00006 20.7975 3.08023 21.1668 3.23597C21.5361 3.39171 21.8705 3.61987 22.1501 3.90698C22.4298 4.19408 22.649 4.53431 22.795 4.90757C22.941 5.28083 23.0107 5.67956 23 6.08021C23.38 10.7124 23.38 15.368 23 20.0002Z" fill="#89536B"/>
</svg>
