<svg width="27" height="26" viewBox="0 0 27 26" fill="none" xmlns="http://www.w3.org/2000/svg">
<path d="M3.5 0C2.80777 0 2.13108 0.205271 1.55551 0.589856C0.979934 0.974441 0.53133 1.52107 0.266423 2.16061C0.00151649 2.80015 -0.0677952 3.50388 0.0672531 4.18282C0.202301 4.86175 0.535644 5.48539 1.02513 5.97487C1.51461 6.46436 2.13825 6.7977 2.81719 6.93275C3.49612 7.0678 4.19985 6.99849 4.83939 6.73358C5.47894 6.46867 6.02556 6.02007 6.41015 5.4445C6.79473 4.86892 7 4.19223 7 3.5C7 2.57174 6.63125 1.6815 5.97487 1.02513C5.3185 0.368749 4.42826 0 3.5 0ZM3.5 5C3.20333 5 2.91332 4.91203 2.66665 4.7472C2.41997 4.58238 2.22771 4.34811 2.11418 4.07403C2.00065 3.79994 1.97095 3.49834 2.02882 3.20736C2.0867 2.91639 2.22956 2.64912 2.43934 2.43934C2.64912 2.22956 2.91639 2.0867 3.20737 2.02882C3.49834 1.97094 3.79994 2.00065 4.07403 2.11418C4.34812 2.22771 4.58238 2.41997 4.74721 2.66664C4.91203 2.91332 5 3.20333 5 3.5C5 3.89782 4.84197 4.27936 4.56066 4.56066C4.27936 4.84196 3.89783 5 3.5 5Z" fill="#89536B"/>
<path d="M6 8H1C0.734784 8 0.48043 8.10536 0.292893 8.29289C0.105357 8.48043 0 8.73478 0 9C0 9.26522 0.105357 9.51957 0.292893 9.70711C0.48043 9.89464 0.734784 10 1 10H5V24H2V13C2 12.7348 1.89464 12.4804 1.70711 12.2929C1.51957 12.1054 1.26522 12 1 12C0.734784 12 0.48043 12.1054 0.292893 12.2929C0.105357 12.4804 0 12.7348 0 13V25C0 25.2652 0.105357 25.5196 0.292893 25.7071C0.48043 25.8946 0.734784 26 1 26H6C6.26522 26 6.51957 25.8946 6.70711 25.7071C6.89464 25.5196 7 25.2652 7 25V9C7 8.73478 6.89464 8.48043 6.70711 8.29289C6.51957 8.10536 6.26522 8 6 8Z" fill="#89536B"/>
<path d="M24.34 9.67981C23.7669 9.12206 23.0871 8.68576 22.3414 8.39708C21.5956 8.1084 20.7992 7.97328 20 7.99981H19C17.6113 7.93661 16.2309 8.24377 15 8.88981C14.9728 8.64409 14.8556 8.41715 14.6709 8.25279C14.4862 8.08843 14.2472 7.99831 14 7.99981H9C8.73478 7.99981 8.48043 8.10516 8.29289 8.2927C8.10536 8.48024 8 8.73459 8 8.99981V24.9998C8 25.265 8.10536 25.5194 8.29289 25.7069C8.48043 25.8944 8.73478 25.9998 9 25.9998H14C14.2652 25.9998 14.5196 25.8944 14.7071 25.7069C14.8946 25.5194 15 25.265 15 24.9998V15.9998C15 15.4694 15.2107 14.9607 15.5858 14.5856C15.9609 14.2105 16.4696 13.9998 17 13.9998C17.5304 13.9998 18.0391 14.2105 18.4142 14.5856C18.7893 14.9607 19 15.4694 19 15.9998V24.9998C19 25.265 19.1054 25.5194 19.2929 25.7069C19.4804 25.8944 19.7348 25.9998 20 25.9998H25C25.2652 25.9998 25.5196 25.8944 25.7071 25.7069C25.8946 25.5194 26 25.265 26 24.9998V13.9998C26.0288 13.205 25.8965 12.4126 25.6113 11.6703C25.326 10.9279 24.8936 10.2508 24.34 9.67981ZM24 23.9998H21V15.9998C21 14.9389 20.5786 13.9215 19.8284 13.1714C19.0783 12.4212 18.0609 11.9998 17 11.9998C15.9391 11.9998 14.9217 12.4212 14.1716 13.1714C13.4214 13.9215 13 14.9389 13 15.9998V23.9998H10V9.99981H13V10.9998C13.001 11.1972 13.0604 11.3899 13.1707 11.5537C13.2811 11.7174 13.4374 11.8448 13.62 11.9198C13.8021 11.9964 14.0028 12.0173 14.1968 11.9799C14.3908 11.9426 14.5694 11.8486 14.71 11.7098C15.66 10.7098 16.41 9.99981 19 9.99981H20C20.5349 9.97683 21.069 10.0615 21.5705 10.2487C22.0721 10.4359 22.531 10.722 22.92 11.0898C23.2848 11.4784 23.5683 11.936 23.7538 12.4358C23.9392 12.9355 24.023 13.4673 24 13.9998V23.9998Z" fill="#89536B"/>
</svg>
