<svg width="61" height="40" viewBox="0 0 61 40" fill="none" xmlns="http://www.w3.org/2000/svg">
<path d="M21.2195 13.2219C20.7321 13.4819 20.4547 14.0069 20.2919 14.5126C20.1118 15.0751 20.0579 15.6868 20.0396 16.2744C20.0225 16.9523 20.0547 17.6306 20.1359 18.3039C20.2213 19.0699 20.3499 19.8305 20.5212 20.5819C20.667 21.2365 20.8579 21.8802 21.0924 22.5084C21.2985 23.0488 21.5297 23.6036 21.8726 24.0746C22.0482 24.3277 22.2624 24.5516 22.5074 24.7383C22.7054 24.8794 22.939 24.9622 23.1817 24.9772C23.5978 25.0225 24.0389 24.9175 24.4406 24.8163C24.9873 24.6735 25.5242 24.4959 26.0482 24.2846C26.7389 24.014 27.418 23.7115 28.0797 23.3782C29.3146 22.755 30.5446 22.0297 31.558 21.0751C31.9529 20.7052 32.342 20.2737 32.5684 19.7776C32.813 19.2421 32.8853 18.6786 32.6888 18.1122C32.4855 17.5237 32.1224 17.016 31.7082 16.5566C31.2257 16.0394 30.6912 15.5733 30.1131 15.1657C28.8677 14.2603 27.4879 13.5559 26.0242 13.0783C25.324 12.8463 24.5993 12.696 23.8646 12.6304C23.2539 12.5803 22.5999 12.6141 22.0171 12.8173C21.7305 12.9105 21.4602 13.0476 21.2157 13.2238C21.0575 13.324 20.9399 13.4768 20.8834 13.6553C20.8337 13.8433 20.86 14.0433 20.9566 14.2121C21.0521 14.3743 21.2068 14.4931 21.3881 14.5434C21.5653 14.5839 21.7936 14.5858 21.9449 14.4712C22.0905 14.3614 22.249 14.2699 22.4168 14.1986L22.2444 14.2718C22.4912 14.1701 22.7503 14.1014 23.015 14.0676L22.8224 14.0936C23.2784 14.0391 23.7395 14.045 24.194 14.1109L24.0014 14.0849C24.9122 14.2222 25.8012 14.4784 26.6454 14.8468L26.473 14.7746C27.3651 15.15 28.2179 15.6127 29.0189 16.1559C29.2115 16.2843 29.3993 16.4192 29.5824 16.5604C29.6922 16.6433 29.486 16.4863 29.5274 16.5181L29.5872 16.5643L29.7249 16.6741C29.8078 16.7415 29.8896 16.8109 29.9705 16.8802C30.2765 17.1393 30.5615 17.4221 30.823 17.726C30.8548 17.7626 30.8856 17.8001 30.9193 17.8377C30.953 17.8753 31.0157 17.9581 30.9193 17.8377C30.823 17.7173 30.8904 17.8001 30.9107 17.8281C30.9685 17.9051 31.0234 17.9841 31.0754 18.065C31.1713 18.2126 31.2547 18.3679 31.3248 18.5293L31.2516 18.3569C31.3165 18.5078 31.3619 18.6664 31.3865 18.8289L31.3605 18.6362C31.3745 18.7449 31.3745 18.855 31.3605 18.9637L31.3865 18.7711C31.3662 18.9094 31.3277 19.0445 31.2719 19.1727L31.3451 19.0003C31.2808 19.1472 31.2024 19.2876 31.111 19.4193C31.0869 19.4559 31.0609 19.4916 31.0349 19.5272L31.0022 19.5705C31.1553 19.3615 31.1158 19.4251 31.0821 19.4675L31.0532 19.5041C30.9954 19.5754 30.9347 19.6457 30.8731 19.7141C30.5819 20.0228 30.2665 20.3079 29.9301 20.5665C30.1574 20.3864 29.9754 20.5309 29.9176 20.5742L29.7731 20.6802C29.6768 20.7524 29.5737 20.8228 29.4735 20.8911C29.2722 21.0289 29.067 21.1609 28.8599 21.289C28.4197 21.5596 27.968 21.811 27.5114 22.048C27.0067 22.3049 26.4929 22.5447 25.9702 22.7675L26.1426 22.6943C25.4269 23.0085 24.6857 23.2615 23.9272 23.4505C23.7731 23.4861 23.618 23.5169 23.461 23.5381L23.6536 23.5121C23.4979 23.5371 23.3396 23.542 23.1826 23.5266L23.3753 23.5526C23.326 23.5466 23.2778 23.5343 23.2317 23.516L23.4051 23.5892C23.3614 23.5681 23.3198 23.5429 23.2809 23.514C23.1672 23.4379 23.46 23.6614 23.3387 23.5574C23.3155 23.5381 23.2924 23.5169 23.2703 23.4957C23.2192 23.4465 23.1709 23.3944 23.1258 23.3397L23.0873 23.2935C23.0102 23.1971 23.2086 23.4553 23.1528 23.3782C23.1296 23.3455 23.1056 23.3137 23.0824 23.2819C22.867 22.963 22.685 22.6228 22.5392 22.2666L22.6114 22.4391C22.2146 21.4586 21.924 20.4385 21.7445 19.3962C21.6861 19.0835 21.6357 18.7685 21.5933 18.4513L21.6193 18.6439C21.4967 17.796 21.4519 16.9387 21.4854 16.0827C21.497 15.8746 21.5143 15.6666 21.5422 15.4595L21.5162 15.6521C21.5575 15.3157 21.6423 14.9861 21.7686 14.6715L21.6954 14.844C21.726 14.772 21.7607 14.7019 21.7994 14.634C21.8476 14.5492 22.0142 14.3671 21.8062 14.6031C21.8476 14.5559 21.8871 14.5068 21.9333 14.4683L21.9689 14.4384C21.7638 14.6311 21.8148 14.5511 21.8726 14.5164C21.8996 14.5001 21.9246 14.4837 21.9516 14.4693C22.1159 14.3715 22.2351 14.2131 22.2836 14.0282C22.332 13.8433 22.3059 13.6467 22.2107 13.481C22.1114 13.3184 21.953 13.2006 21.7688 13.1523C21.5845 13.104 21.3887 13.1289 21.2224 13.2219H21.2195Z"/>
<path d="M59.6489 30.4403C59.5834 30.5367 59.516 30.633 59.4457 30.7235C59.3542 30.8459 59.5613 30.5771 59.4823 30.6773L59.4235 30.7515C59.3773 30.8093 59.3272 30.8671 59.282 30.9239C59.072 31.1724 58.8485 31.4103 58.6164 31.6386C58.3524 31.8955 58.0763 32.1414 57.788 32.3765L57.6791 32.4622L57.6252 32.5046C57.7918 32.3726 57.7215 32.4275 57.6878 32.4554C57.603 32.52 57.5173 32.5835 57.4306 32.6481C57.264 32.7675 57.0925 32.8821 56.9182 32.992C56.5028 33.2536 56.0673 33.482 55.6159 33.6749L55.7893 33.6017C55.2511 33.835 54.6847 33.997 54.1046 34.0833L54.2972 34.0573C53.9247 34.1087 53.5471 34.1109 53.1741 34.064L53.3667 34.0891C53.047 34.045 52.7342 33.9598 52.4362 33.8358L52.6087 33.909C52.3095 33.7815 52.026 33.6199 51.7639 33.4273L51.7177 33.3936C51.6213 33.3233 51.8516 33.4996 51.7841 33.4447L51.6936 33.3724C51.6213 33.3127 51.551 33.2511 51.4817 33.1885C51.3532 33.0722 51.2309 32.9502 51.1147 32.8224C50.9837 32.6818 50.8594 32.5335 50.74 32.3861C50.7034 32.3408 50.6061 32.2088 50.7506 32.4015C50.7246 32.3659 50.6966 32.3312 50.6706 32.2955C50.609 32.2127 50.5493 32.1299 50.4905 32.0461C50.2478 31.6993 50.0253 31.339 49.8162 30.9711C49.6119 30.615 49.4282 30.2474 49.2662 29.8701L49.3394 30.0425C48.8429 28.837 48.5074 27.5714 48.3415 26.2782L48.3675 26.4709C48.205 25.3616 48.1901 24.2358 48.3232 23.1226L48.2972 23.3153C48.3681 22.7227 48.5168 22.142 48.7393 21.5882L48.6671 21.7606C48.7598 21.5428 48.8686 21.3323 48.9927 21.1307C49.063 21.017 49.14 20.9072 49.219 20.7984C49.2701 20.729 49.1054 20.94 49.1786 20.8513C49.1998 20.8253 49.22 20.7993 49.2421 20.7743C49.2845 20.7242 49.3279 20.6751 49.3722 20.6269C49.4521 20.5421 49.535 20.4603 49.6226 20.3832C49.6689 20.3418 49.719 20.3042 49.7652 20.2638C49.5648 20.4343 49.7363 20.2869 49.7912 20.2493C49.9805 20.1193 50.1821 20.0083 50.3932 19.918L50.2208 19.9912C50.5445 19.8565 50.8846 19.7655 51.2322 19.7205L51.0395 19.7465C51.5379 19.6885 52.0418 19.6956 52.5383 19.7677L52.3457 19.7417C53.3081 19.8909 54.2471 20.1645 55.1391 20.5556L54.9667 20.4824C55.7238 20.8027 56.4427 21.2069 57.1099 21.6874C56.9172 21.5468 57.0617 21.6508 57.1041 21.6874L57.2158 21.7712C57.2765 21.8232 57.3372 21.8762 57.395 21.9302C57.5232 22.0475 57.6445 22.1723 57.7581 22.3039C57.8044 22.3569 57.9508 22.5717 57.7995 22.3492C57.8448 22.4147 57.8959 22.4773 57.9353 22.5418C58.0167 22.6681 58.0876 22.8008 58.1473 22.9387L58.0741 22.7662C58.143 22.9287 58.1909 23.0993 58.2166 23.2739L58.1906 23.0812C58.2123 23.2481 58.2123 23.4171 58.1906 23.584L58.2166 23.3914C58.1916 23.5671 58.1443 23.739 58.076 23.9029L58.1492 23.7295C58.0961 23.8558 58.0316 23.977 57.9565 24.0917C57.9382 24.1206 57.918 24.1485 57.8978 24.1764L57.8718 24.213C57.813 24.2959 57.9286 24.1379 57.9305 24.1379C57.9016 24.1379 57.8169 24.2727 57.7928 24.2997C57.6905 24.4104 57.5818 24.5149 57.4672 24.6128C57.4152 24.658 57.3574 24.6975 57.3073 24.7447C57.3073 24.7447 57.4624 24.6263 57.3767 24.6908L57.3372 24.7197L57.2312 24.7967C56.712 25.1474 56.1643 25.4539 55.5937 25.7128C55.1901 25.9054 54.7846 26.0923 54.3733 26.2666L54.5457 26.1934C53.1269 26.8097 51.6328 27.2356 50.1023 27.4601L50.295 27.4341C49.536 27.5336 48.7707 27.5774 48.0054 27.5651C47.6278 27.5603 47.2656 27.9013 47.2829 28.2875C47.2864 28.478 47.3636 28.6598 47.4983 28.7945C47.6331 28.9293 47.8148 29.0065 48.0054 29.0099C49.7676 29.033 51.522 28.7702 53.2001 28.2316C54.2584 27.8834 55.2918 27.4634 56.293 26.9746C57.0964 26.5893 57.8949 26.1713 58.5615 25.5722C59.228 24.973 59.7347 24.084 59.6489 23.1573C59.5632 22.2307 59.044 21.4649 58.3717 20.859C57.6011 20.1617 56.6783 19.6425 55.7238 19.237C54.8193 18.8517 53.8821 18.5213 52.9082 18.37C52.0134 18.2284 51.0877 18.1967 50.2112 18.4664C49.7918 18.5892 49.395 18.7788 49.036 19.0279C48.6232 19.3244 48.2609 19.6854 47.963 20.0971C47.4659 20.7714 47.1625 21.5824 46.9997 22.3973C46.8303 23.2766 46.7656 24.1729 46.8071 25.0674C46.8678 26.8661 47.2399 28.6407 47.9071 30.3122C48.2437 31.1347 48.6646 31.9201 49.1632 32.6558C49.6785 33.411 50.2651 34.0949 50.9991 34.6439C51.6611 35.1294 52.441 35.4288 53.2579 35.5108C54.1306 35.6071 55.0341 35.4145 55.849 35.112C57.5752 34.4527 59.1059 33.3663 60.2982 31.9546C60.5128 31.7038 60.7135 31.4414 60.8992 31.1686C61.1111 30.8545 60.9695 30.3546 60.6401 30.1803C60.4733 30.0873 60.277 30.0624 60.0922 30.1109C59.9075 30.1594 59.7486 30.2774 59.6489 30.4403Z"/>
<path d="M37.3595 33.0721C37.4166 32.6348 37.4741 32.1971 37.5319 31.7592L37.5694 31.4779L37.5897 31.3219C37.5694 31.476 37.5897 31.3344 37.5897 31.2959L37.6793 30.6399C37.7974 29.7865 37.9207 28.9334 38.0491 28.0806C38.2932 26.3956 38.55 24.7131 38.8197 23.0332C39.3636 19.6523 39.9615 16.2809 40.6133 12.9193C40.9099 11.3858 41.198 9.8475 41.5409 8.32462C41.7614 7.29836 42.0649 6.29169 42.4482 5.31451C42.4742 5.25094 42.5012 5.18736 42.5272 5.12186C42.4386 5.3463 42.532 5.11223 42.5523 5.06599C42.611 4.93307 42.6727 4.80207 42.7353 4.67107C42.8586 4.41806 42.9918 4.16986 43.135 3.92649C43.2728 3.69435 43.424 3.46799 43.582 3.25222C43.6051 3.22044 43.6321 3.18961 43.6532 3.1559C43.6532 3.16264 43.5415 3.29749 43.6137 3.20695L43.7399 3.05283C43.8285 2.94688 43.9201 2.84477 44.0164 2.7446C44.1127 2.64442 44.1898 2.56929 44.2813 2.48645C44.3294 2.4431 44.3776 2.40072 44.4267 2.3593L44.5163 2.2861C44.6126 2.20326 44.3805 2.38242 44.4922 2.3044C44.6974 2.15103 44.9149 2.01476 45.1424 1.89695C45.2002 1.86805 45.258 1.84012 45.3168 1.81411C45.3755 1.7881 45.4872 1.76691 45.2859 1.82567C45.31 1.81796 45.336 1.80544 45.3591 1.79677C45.5112 1.73673 45.6661 1.68433 45.8234 1.63976C45.9602 1.6022 46.0989 1.56945 46.2386 1.54344C46.306 1.52996 46.3725 1.5184 46.4389 1.5078C46.4832 1.5001 46.5352 1.49913 46.5738 1.48757L46.4717 1.50106L46.5622 1.49046C47.1894 1.42609 47.8218 1.43353 48.4473 1.51262L48.5388 1.52418C48.7045 1.5444 48.3654 1.49721 48.5301 1.52418L48.7343 1.55596C48.8923 1.58197 49.0503 1.61087 49.2063 1.64362C49.5059 1.70527 49.8016 1.77847 50.0954 1.86131C50.6218 2.01314 51.1396 2.19386 51.6462 2.40265C51.414 2.30632 51.6173 2.39109 51.6722 2.41517L51.8292 2.48645C51.9323 2.53365 52.0353 2.58277 52.1365 2.63382C52.306 2.71763 52.4726 2.80721 52.6354 2.90449C52.699 2.94302 52.7616 2.98252 52.8281 3.02393L52.908 3.0798C53.0323 3.16649 52.7847 2.98348 52.8435 3.02875C52.9821 3.15924 53.1637 3.2346 53.354 3.24066C53.5455 3.23909 53.7289 3.1631 53.8655 3.02875C54.1053 2.76771 54.1804 2.25816 53.8655 2.00772C53.1373 1.42978 52.2376 1.06182 51.3678 0.755514C50.1502 0.304145 48.8684 0.0498679 47.5707 0.00226402C46.2954 -0.0266331 44.9459 0.217066 43.8844 0.9655C42.8961 1.65807 42.1564 2.63768 41.6054 3.70205C40.4341 5.96758 40.0112 8.51053 39.52 10.9832C38.8412 14.4046 38.2167 17.8363 37.6465 21.2782C37.0686 24.7728 36.5471 28.2761 36.0822 31.7881L35.9146 33.0692C35.8934 33.2387 36.0109 33.4651 36.1265 33.5797C36.1936 33.6468 36.2733 33.7001 36.3609 33.7364C36.4486 33.7728 36.5426 33.7915 36.6375 33.7915C36.7324 33.7915 36.8264 33.7728 36.9141 33.7364C37.0018 33.7001 37.0814 33.6468 37.1485 33.5797C37.2744 33.4382 37.3487 33.2583 37.3595 33.0692V33.0721Z"/>
<path d="M40.2923 12.8064C41.822 13.3304 43.4238 13.657 45.0209 13.891C45.5025 13.9623 45.9841 14.0259 46.4725 14.076C46.5672 14.0761 46.6611 14.0575 46.7487 14.0213C46.8363 13.9851 46.9159 13.932 46.983 13.865C47.0501 13.7979 47.1034 13.7183 47.1397 13.6306C47.176 13.5429 47.1947 13.4489 47.1947 13.354C47.1947 13.2591 47.176 13.1651 47.1397 13.0774C47.1034 12.9898 47.0501 12.9101 46.983 12.843C46.842 12.7161 46.6618 12.6414 46.4725 12.6311C46.1835 12.6012 45.8945 12.5666 45.6056 12.528L45.7982 12.5531C44.4272 12.3747 43.0701 12.1028 41.7362 11.7391C41.3798 11.6409 41.0266 11.5324 40.6767 11.4136C40.3193 11.2903 39.8714 11.5532 39.7876 11.9173C39.7416 12.102 39.7684 12.2973 39.8623 12.4627C39.9563 12.6282 40.1102 12.7513 40.2923 12.8064Z"/>
<path d="M0.0337133 6.06282C0.0144485 8.2195 0 10.3762 0 12.5329C0 14.4102 0.0173382 16.2895 0.0597206 18.1668C0.101461 19.9713 0.168887 21.7751 0.262 23.5783C0.364103 25.5048 0.495103 27.4312 0.655 29.3577C0.839942 31.6271 1.05667 33.8946 1.28881 36.1591L1.38513 37.1031C1.39075 37.2935 1.46617 37.4752 1.59705 37.6136C1.73316 37.748 1.9163 37.824 2.10756 37.8255C2.46492 37.8092 2.87237 37.5057 2.82999 37.1031C2.58725 34.7817 2.35896 32.4593 2.16246 30.1341C1.99615 28.1729 1.85583 26.2092 1.74153 24.2429C1.63943 22.4359 1.56526 20.6273 1.51902 18.817C1.47086 16.9676 1.44967 15.1163 1.44485 13.2659C1.43811 11.1545 1.4516 9.04403 1.46893 6.93262C1.46893 6.64365 1.47375 6.35468 1.47664 6.06571C1.47664 5.68716 1.1424 5.32594 0.754214 5.34328C0.56362 5.3465 0.381733 5.42365 0.246943 5.55844C0.112154 5.69323 0.0350074 5.87511 0.0317868 6.06571L0.0337133 6.06282Z"/>
<path d="M1.44517 16.6912C2.81778 15.8022 4.18076 14.8977 5.51388 13.9518C6.61582 13.1696 7.69753 12.3576 8.74072 11.5004C9.63203 10.7683 10.4916 10.0006 11.3193 9.19725C12.1756 8.36502 12.9992 7.49811 13.8044 6.61578C14.7677 5.56585 15.7011 4.49666 16.6373 3.42651L17.0361 2.96993C17.1679 2.83213 17.2435 2.65006 17.248 2.45942C17.2464 2.26788 17.1705 2.08446 17.0361 1.94794C16.7635 1.69846 16.28 1.64452 16.0141 1.94794C15.0557 3.04603 14.0963 4.14412 13.1186 5.22294C12.3037 6.1226 11.4753 7.00974 10.6142 7.86317C9.80188 8.66715 8.95841 9.43774 8.08379 10.1749C7.62048 10.5602 7.14753 10.9455 6.66976 11.3135L6.74393 11.2567L6.70733 11.2846L6.611 11.3597L6.41836 11.51C6.28993 11.6082 6.15957 11.7046 6.02728 11.799C5.75565 12.0012 5.48273 12.2009 5.20853 12.3981C3.92839 13.3209 2.61743 14.2003 1.29683 15.0624L0.71889 15.4361C0.401986 15.6413 0.237273 16.0863 0.45978 16.4244C0.663986 16.7413 1.109 16.906 1.44806 16.6835L1.44517 16.6912Z"/>
<path d="M4.78679 14.0134C6.13532 15.7672 7.49284 17.5122 8.85935 19.2486C10.0897 20.7994 11.3378 22.3358 12.6034 23.8577C13.8691 25.3796 15.1608 26.8816 16.4785 28.3637C17.9176 29.9871 19.3789 31.5902 20.8622 33.1732C22.5794 35.0117 24.3161 36.8319 26.0724 38.6338L26.8006 39.3841C27.0645 39.6548 27.5606 39.6731 27.8226 39.3841C27.9547 39.2468 28.0285 39.0637 28.0285 38.8731C28.0285 38.6826 27.9547 38.4994 27.8226 38.3621C26.0245 36.514 24.2393 34.6517 22.467 32.7753C20.9624 31.1732 19.4777 29.5533 18.013 27.9158C16.6889 26.4324 15.3866 24.9301 14.1061 23.4088C12.8423 21.9049 11.5994 20.3846 10.3774 18.8479C9.73525 18.0446 9.09856 17.2374 8.46731 16.4263C8.1366 16.0083 7.8075 15.5861 7.48 15.1597L7.24111 14.8515C7.20066 14.7994 7.16117 14.7474 7.12071 14.6964C7.03113 14.5798 7.22763 14.8341 7.13805 14.7176L7.06581 14.6212L6.55048 13.9605L6.03033 13.2862C5.93012 13.1281 5.7773 13.0104 5.5988 12.9539C5.41081 12.9042 5.2108 12.9305 5.04205 13.0271C4.87986 13.1226 4.76106 13.2773 4.71069 13.4586C4.67024 13.6349 4.66831 13.8651 4.78294 14.0154L4.78679 14.0134Z"/>
</svg>
