<svg width="26" height="18" viewBox="0 0 26 18" fill="none" xmlns="http://www.w3.org/2000/svg">
<path d="M25 6C24.7348 6 24.4804 6.10536 24.2929 6.29289C24.1054 6.48043 24 6.73478 24 7V15C24 15.2652 23.8946 15.5196 23.7071 15.7071C23.5196 15.8946 23.2652 16 23 16H3C2.73478 16 2.48043 15.8946 2.29289 15.7071C2.10536 15.5196 2 15.2652 2 15V7C2 6.73478 1.89464 6.48043 1.70711 6.29289C1.51957 6.10536 1.26522 6 1 6C0.734784 6 0.48043 6.10536 0.292893 6.29289C0.105357 6.48043 0 6.73478 0 7V15C0.000700208 15.7954 0.31723 16.5579 0.88 17.12C1.44207 17.6828 2.20462 17.9993 3 18H23C23.7954 17.9993 24.5579 17.6828 25.12 17.12C25.6828 16.5579 25.9993 15.7954 26 15V7C26 6.73478 25.8946 6.48043 25.7071 6.29289C25.5196 6.10536 25.2652 6 25 6Z" fill="#58223A"/>
<path d="M12.3993 11.8C12.5724 11.9298 12.783 12 12.9993 12C13.2157 12 13.4262 11.9298 13.5993 11.8L25.4093 2.94C25.5936 2.80107 25.7241 2.6027 25.7788 2.37852C25.8334 2.15434 25.8089 1.91815 25.7093 1.71C25.5604 1.40232 25.361 1.12177 25.1193 0.88C24.5573 0.31723 23.7947 0.000700208 22.9993 0H2.99933C2.20394 0.000700208 1.4414 0.31723 0.879326 0.88C0.637681 1.12177 0.438253 1.40232 0.289326 1.71C0.189742 1.91815 0.165209 2.15434 0.219887 2.37852C0.274564 2.6027 0.405087 2.80107 0.589326 2.94L12.3993 11.8ZM2.99933 2H22.9993C23.0921 1.98539 23.1866 1.98539 23.2793 2L12.9993 9.75L2.71933 2C2.81209 1.98539 2.90656 1.98539 2.99933 2Z" fill="#58223A"/>
</svg>
