<svg width="23" height="27" viewBox="0 0 23 27" fill="none" xmlns="http://www.w3.org/2000/svg">
<path d="M18.7826 3.22258C16.7192 1.1592 13.9206 -2.17413e-08 11.0026 0C8.08452 2.17413e-08 5.28597 1.1592 3.22258 3.22258C1.1592 5.28597 2.17413e-08 8.08452 0 11.0026C-2.17413e-08 13.9206 1.1592 16.7192 3.22258 18.7826L7.32258 22.8826C7.41582 22.9758 7.52651 23.0498 7.64833 23.1002C7.77015 23.1507 7.90072 23.1767 8.03258 23.1767C8.16444 23.1767 8.29501 23.1507 8.41683 23.1002C8.53865 23.0498 8.64934 22.9758 8.74258 22.8826C8.83582 22.7893 8.90978 22.6787 8.96024 22.5568C9.0107 22.435 9.03667 22.3044 9.03667 22.1726C9.03667 22.0407 9.0107 21.9102 8.96024 21.7883C8.90978 21.6665 8.83582 21.5558 8.74258 21.4626L4.64258 17.3626C3.38279 16.1044 2.52451 14.5007 2.17633 12.7546C1.82816 11.0085 2.00574 9.19829 2.68659 7.5531C3.36745 5.90791 4.521 4.50164 6.00129 3.51221C7.48157 2.52279 9.22207 1.99466 11.0026 1.99466C12.7831 1.99466 14.5236 2.52279 16.0039 3.51221C17.4842 4.50164 18.6377 5.90791 19.3186 7.5531C19.9994 9.19829 20.177 11.0085 19.8288 12.7546C19.4807 14.5007 18.6224 16.1044 17.3626 17.3626L10.2926 24.4326C10.1989 24.5255 10.1245 24.6361 10.0737 24.758C10.0229 24.8799 9.99678 25.0106 9.99678 25.1426C9.99678 25.2746 10.0229 25.4053 10.0737 25.5272C10.1245 25.649 10.1989 25.7596 10.2926 25.8526C10.3855 25.9463 10.4961 26.0207 10.618 26.0715C10.7399 26.1222 10.8706 26.1484 11.0026 26.1484C11.1346 26.1484 11.2653 26.1222 11.3872 26.0715C11.509 26.0207 11.6196 25.9463 11.7126 25.8526L18.7826 18.7826C19.8046 17.7611 20.6153 16.5482 21.1684 15.2133C21.7215 13.8784 22.0062 12.4476 22.0062 11.0026C22.0062 9.55761 21.7215 8.12679 21.1684 6.79187C20.6153 5.45695 19.8046 4.24409 18.7826 3.22258Z" fill="#5A223B"/>
<path d="M16.002 13C16.002 12.0111 15.7087 11.0444 15.1593 10.2222C14.6099 9.39991 13.829 8.75904 12.9154 8.3806C12.0017 8.00217 10.9964 7.90315 10.0265 8.09608C9.0566 8.289 8.16568 8.76521 7.46642 9.46447C6.76716 10.1637 6.29096 11.0546 6.09803 12.0246C5.9051 12.9945 6.00412 13.9998 6.38256 14.9134C6.761 15.8271 7.40186 16.6079 8.2241 17.1574C9.04635 17.7068 10.013 18 11.002 18C12.328 18 13.5998 17.4732 14.5375 16.5355C15.4752 15.5979 16.002 14.3261 16.002 13ZM8.00196 13C8.00196 12.4067 8.1779 11.8266 8.50755 11.3333C8.83719 10.8399 9.30573 10.4554 9.85391 10.2284C10.4021 10.0013 11.0053 9.94189 11.5872 10.0576C12.1692 10.1734 12.7037 10.4591 13.1233 10.8787C13.5428 11.2982 13.8286 11.8328 13.9443 12.4147C14.0601 12.9967 14.0007 13.5999 13.7736 14.1481C13.5465 14.6962 13.162 15.1648 12.6687 15.4944C12.1753 15.8241 11.5953 16 11.002 16C10.2063 16 9.44324 15.6839 8.88064 15.1213C8.31803 14.5587 8.00196 13.7957 8.00196 13Z" fill="#5A223B"/>
</svg>
