<svg width="27" height="26" viewBox="0 0 27 26" fill="none" xmlns="http://www.w3.org/2000/svg">
<path d="M13.9998 1.03941e-05C11.0338 -0.00373886 8.1556 1.00691 5.84303 2.86422C3.53045 4.72152 1.92254 7.3138 1.28616 10.2108C0.649773 13.1078 1.02319 16.1353 2.34443 18.7909C3.66567 21.4464 5.85528 23.5703 8.54985 24.81C8.66995 24.876 8.80232 24.9165 8.93876 24.9292C9.07519 24.9419 9.21277 24.9264 9.34296 24.8836C9.47315 24.8409 9.59317 24.7719 9.69558 24.6809C9.79799 24.5898 9.8806 24.4787 9.93828 24.3544C9.99596 24.2302 10.0275 24.0953 10.0309 23.9584C10.0343 23.8214 10.0095 23.6852 9.9581 23.5582C9.90667 23.4312 9.82969 23.3161 9.73194 23.2201C9.63419 23.1241 9.51775 23.0492 9.38985 23C6.92441 21.8702 4.96324 19.8694 3.88292 17.3819C2.8026 14.8943 2.67929 12.0954 3.53666 9.5225C4.39403 6.94959 6.17165 4.7841 8.52818 3.44183C10.8847 2.09956 13.654 1.67514 16.3044 2.25005C18.9547 2.82497 21.2993 4.3587 22.8879 6.55673C24.4764 8.75477 25.197 11.4622 24.9113 14.1591C24.6255 16.856 23.3536 19.3522 21.3396 21.1686C19.3257 22.9849 16.7118 23.9933 13.9998 24C13.7346 24 13.4803 24.1054 13.2927 24.2929C13.1052 24.4804 12.9998 24.7348 12.9998 25C12.9998 25.2652 13.1052 25.5196 13.2927 25.7071C13.4803 25.8947 13.7346 26 13.9998 26C17.4477 26 20.7543 24.6304 23.1922 22.1924C25.6302 19.7544 26.9998 16.4478 26.9998 13C26.9998 9.5522 25.6302 6.2456 23.1922 3.80762C20.7543 1.36965 17.4477 1.03941e-05 13.9998 1.03941e-05Z" fill="#89536B"/>
<path d="M21.0998 11.5701C21.2493 11.6548 21.418 11.6996 21.5898 11.7001C21.8104 11.6994 22.0245 11.6259 22.1989 11.4908C22.3733 11.3558 22.4982 11.1669 22.5541 10.9536C22.61 10.7402 22.5938 10.5144 22.5081 10.3112C22.4223 10.108 22.2717 9.93885 22.0798 9.83011C18.0798 7.56011 12.8398 6.99011 6.51983 8.10011C6.39045 8.12304 6.26686 8.17124 6.15612 8.24195C6.04538 8.31267 5.94967 8.40452 5.87444 8.51225C5.79922 8.61998 5.74596 8.74148 5.71771 8.8698C5.68947 8.99812 5.68679 9.13075 5.70983 9.26011C5.73276 9.38948 5.78096 9.51307 5.85168 9.62381C5.92239 9.73455 6.01424 9.83027 6.12197 9.90549C6.2297 9.98072 6.3512 10.034 6.47952 10.0622C6.60784 10.0905 6.74047 10.0931 6.86983 10.0701C12.7198 9.00011 17.4998 9.54011 21.0998 11.5701Z" fill="#89536B"/>
<path d="M7.65973 13.9998C12.5397 12.9198 16.5197 13.4398 19.5097 15.5398C19.6785 15.6621 19.8813 15.7285 20.0897 15.7298C20.2509 15.7296 20.4097 15.6903 20.5525 15.6154C20.6953 15.5406 20.8178 15.4323 20.9097 15.2998C21.0616 15.0835 21.1215 14.8158 21.0766 14.5553C21.0316 14.2948 20.8853 14.0628 20.6697 13.9098C17.1997 11.4598 12.6697 10.8398 7.22973 12.0398C6.96451 12.0968 6.73281 12.2569 6.5856 12.4847C6.43838 12.7126 6.38771 12.9896 6.44473 13.2548C6.50175 13.52 6.6618 13.7517 6.88965 13.899C7.11751 14.0462 7.39451 14.0968 7.65973 14.0398V13.9998Z" fill="#89536B"/>
<path d="M8.51999 17.79C12.32 17.02 15.41 17.39 17.72 18.88C17.8809 18.984 18.0684 19.0395 18.26 19.04C18.4756 19.0395 18.6853 18.9692 18.8578 18.8398C19.0302 18.7103 19.1562 18.5285 19.2169 18.3216C19.2777 18.1147 19.2699 17.8937 19.1947 17.6916C19.1196 17.4895 18.9811 17.317 18.8 17.2C16 15.41 12.45 15 8.12999 15.83C7.86478 15.8817 7.63097 16.0367 7.48 16.2608C7.32903 16.4849 7.27327 16.7598 7.32499 17.025C7.37671 17.2902 7.53167 17.5241 7.75577 17.675C7.97988 17.826 8.25478 17.8817 8.51999 17.83V17.79Z" fill="#89536B"/>
</svg>
