<svg width="27" height="27" viewBox="0 0 27 27" fill="none" xmlns="http://www.w3.org/2000/svg">
<path d="M14.0001 1.38928e-06C11.7535 -0.00103711 9.54494 0.580157 7.58985 1.68691C5.63477 2.79365 3.99988 4.38818 2.8446 6.31498C1.68932 8.24179 1.0531 10.4351 0.997977 12.681C0.942854 14.927 1.47071 17.1488 2.53007 19.13L1.00007 24.74C0.94949 24.9155 0.947912 25.1014 0.995508 25.2777C1.0431 25.454 1.13806 25.6139 1.27007 25.74C1.36833 25.8297 1.48351 25.8989 1.60886 25.9436C1.73421 25.9882 1.86721 26.0074 2.00007 26C2.08948 26.0146 2.18066 26.0146 2.27007 26L8.18007 24.35C8.43601 24.2797 8.65354 24.1106 8.78481 23.88C8.91609 23.6493 8.95036 23.3759 8.88007 23.12C8.80979 22.8641 8.64072 22.6465 8.41005 22.5153C8.17938 22.384 7.90601 22.3497 7.65007 22.42L3.42007 23.56L4.57007 19.26C4.60421 19.133 4.61295 19.0005 4.59579 18.87C4.57863 18.7396 4.53591 18.6139 4.47007 18.5C3.25941 16.4031 2.77445 13.9653 3.0904 11.5647C3.40634 9.16406 4.50554 6.93476 6.21752 5.22249C7.92951 3.51021 10.1586 2.41064 12.5592 2.09429C14.9597 1.77794 17.3976 2.26249 19.4947 3.47279C21.5919 4.6831 23.2311 6.55153 24.1581 8.78834C25.0852 11.0251 25.2483 13.5053 24.6223 15.8443C23.9962 18.1833 22.6158 20.2503 20.6953 21.7249C18.7748 23.1995 16.4214 23.9992 14.0001 24C13.3837 24.0006 12.7682 23.9504 12.1601 23.85C11.8989 23.8066 11.6311 23.8685 11.4156 24.0223C11.2 24.176 11.0541 24.4089 11.0101 24.67C10.9667 24.9312 11.0286 25.1989 11.1823 25.4145C11.336 25.6301 11.569 25.7759 11.8301 25.82C13.6029 26.1181 15.4184 26.0453 17.1616 25.6061C18.9049 25.1669 20.5382 24.371 21.9582 23.2685C23.3782 22.166 24.5541 20.781 25.4116 19.2009C26.2691 17.6209 26.7896 15.8802 26.9402 14.0887C27.0907 12.2973 26.8681 10.4941 26.2863 8.79308C25.7046 7.09207 24.7763 5.5302 23.5602 4.20618C22.3442 2.88215 20.8667 1.82474 19.2211 1.10076C17.5756 0.376781 15.7978 0.00196743 14.0001 1.38928e-06Z" fill="#89536B"/>
<path d="M13.0001 8.20978L11.8401 6.60978C11.6653 6.37 11.4408 6.1708 11.1819 6.02582C10.923 5.88085 10.6359 5.79351 10.3401 5.76978C10.0428 5.74788 9.74435 5.79012 9.46485 5.89364C9.18535 5.99716 8.93136 6.15954 8.72009 6.36978L7.52009 7.56978C7.25194 7.8436 7.04265 8.16938 6.90507 8.52708C6.76749 8.88479 6.70454 9.26685 6.72009 9.64978C6.72009 11.4198 8.08009 13.6498 10.7201 16.2498C13.8101 19.2498 15.9501 20.2498 17.4101 20.2498C17.7812 20.2595 18.1504 20.1926 18.4945 20.0533C18.8386 19.9139 19.1503 19.705 19.4101 19.4398L20.6101 18.2398C20.8284 18.035 20.998 17.7837 21.1063 17.5047C21.2146 17.2256 21.2589 16.9257 21.2358 16.6272C21.2128 16.3287 21.1231 16.0392 20.9732 15.7801C20.8234 15.5209 20.6173 15.2987 20.3701 15.1298L18.8001 13.9998C18.5387 13.8123 18.2376 13.6877 17.9202 13.6357C17.6028 13.5837 17.2776 13.6056 16.9701 13.6998L15.4801 14.1698C15.387 14.1632 15.2973 14.1321 15.2201 14.0798C14.3327 13.4427 13.5413 12.6816 12.8701 11.8198C12.8635 11.7834 12.8635 11.7462 12.8701 11.7098C13.0001 11.2698 13.2201 10.5598 13.3701 10.0698C13.4671 9.75334 13.4841 9.41776 13.4196 9.09314C13.355 8.76851 13.2109 8.46499 13.0001 8.20978ZM14.2901 15.8398C14.8248 16.1329 15.4531 16.2047 16.0401 16.0398L17.5801 15.5798L19.1901 16.8298L18.0001 17.9998C17.5201 18.4698 15.7501 18.3298 12.1401 14.7898C9.14009 11.8798 8.73008 10.2898 8.73008 9.60978C8.7376 9.37913 8.8344 9.16042 9.00009 8.99978L10.2801 7.80978L11.4601 9.45978C11.3001 9.94978 11.0701 10.6798 10.9501 11.1098C10.8076 11.5686 10.8253 12.0623 11.0001 12.5098C11.8625 13.8425 12.9974 14.9774 14.3301 15.8398H14.2901Z" fill="#89536B"/>
</svg>
